<?xml version="1.0" encoding="UTF-8" standalone="no"?>
<!-- Created with Inkscape (http://www.inkscape.org/) -->

<svg
   width="16"
   height="16"
   id="svg2"
   version="1.1"
   xmlns:xlink="http://www.w3.org/1999/xlink"
   xmlns="http://www.w3.org/2000/svg"
   xmlns:svg="http://www.w3.org/2000/svg"
   xmlns:rdf="http://www.w3.org/1999/02/22-rdf-syntax-ns#"
   xmlns:cc="http://creativecommons.org/ns#"
   xmlns:dc="http://purl.org/dc/elements/1.1/">
  <defs
     id="defs4">
    <linearGradient
       id="linearGradient4994">
      <stop
         style="stop-color:#f9fafc;stop-opacity:1;"
         offset="0"
         id="stop4996" />
      <stop
         style="stop-color:#dce7f7;stop-opacity:1"
         offset="1"
         id="stop4998" />
    </linearGradient>
    <linearGradient
       id="linearGradient4902">
      <stop
         style="stop-color:#bfb688;stop-opacity:1"
         offset="0"
         id="stop4904" />
      <stop
         style="stop-color:#8291b0;stop-opacity:1"
         offset="1"
         id="stop4906" />
    </linearGradient>
    <linearGradient
       id="linearGradient4894">
      <stop
         style="stop-color:#e0c88f;stop-opacity:1"
         offset="0"
         id="stop4896" />
      <stop
         style="stop-color:#d5b269;stop-opacity:1"
         offset="1"
         id="stop4898" />
    </linearGradient>
    <linearGradient
       xlink:href="#linearGradient4894"
       id="linearGradient4900"
       x1="7.9987183"
       y1="1042.2307"
       x2="9.9874563"
       y2="1040.3303"
       gradientUnits="userSpaceOnUse"
       gradientTransform="translate(3.0164666,-1.0277276)" />
    <linearGradient
       xlink:href="#linearGradient4902"
       id="linearGradient4908"
       x1="10.544736"
       y1="1038.5779"
       x2="10.544736"
       y2="1052.3228"
       gradientUnits="userSpaceOnUse"
       gradientTransform="translate(-0.98353343,-1.0277276)" />
    <linearGradient
       xlink:href="#linearGradient4994"
       id="linearGradient5000"
       x1="9.8946028"
       y1="1039.153"
       x2="9.8946028"
       y2="1051.8378"
       gradientUnits="userSpaceOnUse"
       gradientTransform="translate(-0.983533,-1.0277276)" />
    <linearGradient
       id="linearGradient4852-7-8">
      <stop
         id="stop4854-4-1"
         offset="0"
         style="stop-color:#707070;stop-opacity:1" />
      <stop
         id="stop4856-0-2"
         offset="1"
         style="stop-color:#a0a0a0;stop-opacity:1" />
    </linearGradient>
    <linearGradient
       id="linearGradient4844-4-1">
      <stop
         id="stop4846-8-4"
         offset="0"
         style="stop-color:#606060;stop-opacity:1" />
      <stop
         id="stop4848-8-9"
         offset="1"
         style="stop-color:#787878;stop-opacity:1" />
    </linearGradient>
    <linearGradient
       y2="1038.5814"
       x2="4.7528968"
       y1="1051.0466"
       x1="4.7528968"
       gradientTransform="translate(1.9961442e-6,-9.9830348e-5)"
       gradientUnits="userSpaceOnUse"
       id="linearGradient6120"
       xlink:href="#linearGradient4852-7-8" />
    <linearGradient
       y2="1037.7"
       x2="8.6566515"
       y1="1050.7386"
       x1="8.6566515"
       gradientTransform="translate(1.9961442e-6,-9.9830348e-5)"
       gradientUnits="userSpaceOnUse"
       id="linearGradient6122"
       xlink:href="#linearGradient4844-4-1" />
    <mask
       maskUnits="userSpaceOnUse"
       id="mask6204">
      <path
         style="font-size:medium;font-style:normal;font-variant:normal;font-weight:normal;font-stretch:normal;text-indent:0;text-align:start;text-decoration:none;line-height:normal;letter-spacing:normal;word-spacing:normal;text-transform:none;direction:ltr;block-progression:tb;writing-mode:lr-tb;text-anchor:start;baseline-shift:baseline;color:#000000;fill:#ffffff;fill-opacity:1;stroke:none;stroke-width:1;marker:none;visibility:visible;display:inline;overflow:visible;enable-background:accumulate;font-family:Sans;-inkscape-font-specification:Sans"
         d="m 1,1036.3935 0,0.5 0,12.9687 0,0.5 0.5,0 10.0625,0 0.5,0 0,-0.5 0,-9.9687 0,-0.2188 -0.15625,-0.125 -3.0625,-3 -0.125,-0.1562 -0.21875,0 -7,0 -0.5,0 z"
         id="path6206" />
    </mask>
    <filter
       id="filter6988"
       x="-0.39259929"
       width="1.7850301"
       y="-0.39254203"
       height="1.7850802">
      <feGaussianBlur
         stdDeviation="1.2049008"
         id="feGaussianBlur6990" />
    </filter>
  </defs>
  <metadata
     id="metadata7">
    <rdf:RDF>
      <cc:Work
         rdf:about="">
        <dc:format>image/svg+xml</dc:format>
        <dc:type
           rdf:resource="http://purl.org/dc/dcmitype/StillImage" />
        <dc:title />
      </cc:Work>
    </rdf:RDF>
  </metadata>
  <g
     id="layer1"
     style="display:inline"
     transform="translate(0,-1036.3622)">
    <path
       style="fill:url(#linearGradient5000);fill-opacity:1;stroke:none;display:inline"
       d="m 4.513749,1037.8761 7.009664,0 3.062057,3.0066 0,9.9546 -10.071721,0 z"
       id="rect4001-3" />
    <path
       style="fill:url(#linearGradient4900);fill-opacity:1;stroke:none"
       d="m 10.993083,1037.4134 0,3.9112 3.977476,0 z"
       id="path4884" />
    <path
       style="fill:none;stroke:url(#linearGradient4908);stroke-width:1;stroke-linecap:butt;stroke-linejoin:miter;stroke-miterlimit:4;stroke-opacity:1;stroke-dashoffset:0"
       d="m 4.5137491,1037.8761 7.0096639,0 3.062057,3.0066 0,9.9546 -10.0717209,0 z"
       id="rect4001" />
    <g
       id="g6200"
       mask="url(#mask6204)"
       transform="translate(3.0164666,0.97227174)">
      <g
         transform="matrix(0.53947849,0,0,0.53947849,-3.1259914,479.49735)"
         id="layer1-8"
         style="opacity:0.75;fill:#ffffff;stroke:#ffffff;stroke-width:3.70728397;stroke-miterlimit:4;stroke-dasharray:none;display:inline;filter:url(#filter6988)">
        <path
           style="fill:#ffffff;fill-opacity:1;stroke:#ffffff;stroke-width:3.70728397;stroke-linecap:round;stroke-linejoin:miter;stroke-miterlimit:4;stroke-opacity:1;stroke-dasharray:none;stroke-dashoffset:0;display:inline"
           d="m 13.419292,1038.6553 c -0.468185,-0.4682 -1.221974,-0.4682 -1.690135,-10e-5 l -3.1127968,3.1129 -3.1127723,-3.1128 c -0.4681138,-0.4682 -1.221974,-0.4682 -1.690134,0 l -0.8600555,0.8601 c -0.4681391,0.468 -0.4681272,1.2218 3.66e-5,1.6901 l 3.1127223,3.1128 -3.1127269,3.1127 c -0.4682099,0.4682 -0.468198,1.222 -1.34e-5,1.6902 l 0.8601016,0.8601 c 0.4681344,0.4681 1.2219244,0.4681 1.6901337,0 l 3.1127774,-3.1128 3.1344053,3.1344 c 0.468135,0.4682 1.221925,0.4682 1.690135,0 l 0.860055,-0.86 c 0.46816,-0.4682 0.463458,-1.2173 -3.7e-5,-1.6902 l -3.134406,-3.1344 3.112777,-3.1127 c 0.468181,-0.4683 0.468169,-1.2221 3.4e-5,-1.6902 z"
           id="rect4043" />
      </g>
    </g>
    <g
       style="display:inline"
       id="layer1-8-8"
       transform="matrix(0.53947849,0,0,0.53947849,-0.10952774,480.46953)">
      <path
         id="rect4043-2"
         d="m 13.419292,1038.6553 c -0.468185,-0.4682 -1.221974,-0.4682 -1.690135,-10e-5 l -3.1127968,3.1129 -3.1127723,-3.1128 c -0.4681138,-0.4682 -1.221974,-0.4682 -1.690134,0 l -0.8600555,0.8601 c -0.4681391,0.468 -0.4681272,1.2218 3.66e-5,1.6901 l 3.1127223,3.1128 -3.1127269,3.1127 c -0.4682099,0.4682 -0.468198,1.222 -1.34e-5,1.6902 l 0.8601016,0.8601 c 0.4681344,0.4681 1.2219244,0.4681 1.6901337,0 l 3.1127774,-3.1128 3.1344053,3.1344 c 0.468135,0.4682 1.221925,0.4682 1.690135,0 l 0.860055,-0.86 c 0.46816,-0.4682 0.463458,-1.2173 -3.7e-5,-1.6902 l -3.134406,-3.1344 3.112777,-3.1127 c 0.468181,-0.4683 0.468169,-1.2221 3.4e-5,-1.6902 z"
         style="fill:url(#linearGradient6120);fill-opacity:1;stroke:url(#linearGradient6122);stroke-width:0.98060334;stroke-linecap:round;stroke-linejoin:miter;stroke-miterlimit:4;stroke-opacity:1;stroke-dasharray:none;stroke-dashoffset:0;display:inline" />
    </g>
  </g>
</svg>
