<?xml version="1.0" encoding="UTF-8" standalone="no"?>
<svg
   version="1.1"
   id="svg2"
   height="66"
   width="75"
   xml:space="preserve"
   xmlns:xlink="http://www.w3.org/1999/xlink"
   xmlns="http://www.w3.org/2000/svg"
   xmlns:svg="http://www.w3.org/2000/svg"
   xmlns:rdf="http://www.w3.org/1999/02/22-rdf-syntax-ns#"
   xmlns:cc="http://creativecommons.org/ns#"
   xmlns:dc="http://purl.org/dc/elements/1.1/"><defs
     id="defs4"><linearGradient
       id="linearGradient10"><stop
         style="stop-color:#b35f5f;stop-opacity:1;"
         offset="0"
         id="stop9" /><stop
         style="stop-color:#9d3333;stop-opacity:1;"
         offset="1"
         id="stop10" /></linearGradient><linearGradient
       id="linearGradient7"><stop
         style="stop-color:#d58989;stop-opacity:1;"
         offset="0"
         id="stop7" /><stop
         style="stop-color:#ffffff;stop-opacity:0.22680412;"
         offset="1"
         id="stop8" /></linearGradient><linearGradient
       id="linearGradient2"><stop
         style="stop-color:#d48181;stop-opacity:1;"
         offset="0"
         id="stop2" /><stop
         style="stop-color:#af3a3a;stop-opacity:1;"
         offset="1"
         id="stop3" /></linearGradient><linearGradient
       gradientTransform="translate(-88.220116,-999.2669)"
       gradientUnits="userSpaceOnUse"
       y2="1032.2668"
       x2="163.22012"
       y1="1032.2668"
       x1="88.220116"
       id="linearGradient4978"
       xlink:href="#linearGradient4972-7" /><linearGradient
       id="linearGradient4972-7"><stop
         id="stop4974-8"
         offset="0"
         style="stop-color:#b8ccf1;stop-opacity:0.10196079" /><stop
         id="stop4976-1"
         offset="1"
         style="stop-color:#6e97e2;stop-opacity:0.10196079" /></linearGradient><linearGradient
       gradientTransform="translate(-88.220117,-999.2669)"
       gradientUnits="userSpaceOnUse"
       y2="1032.2668"
       x2="163.22012"
       y1="1032.1835"
       x1="118.38584"
       id="linearGradient4970"
       xlink:href="#linearGradient4964-3" /><linearGradient
       id="linearGradient4964-3"><stop
         id="stop4966-1"
         offset="0"
         style="stop-color:#ffffff;stop-opacity:0.349" /><stop
         id="stop4968-1"
         offset="1"
         style="stop-color:#91ade6;stop-opacity:1" /></linearGradient><linearGradient
       gradientTransform="translate(-88.220116,-999.2669)"
       gradientUnits="userSpaceOnUse"
       y2="1042.7972"
       x2="163.22012"
       y1="1042.7972"
       x1="88.220116"
       id="linearGradient4962"
       xlink:href="#linearGradient4956-2" /><linearGradient
       id="linearGradient4956-2"><stop
         id="stop4958-5"
         offset="0"
         style="stop-color:#fcfdfe;stop-opacity:0.25641027" /><stop
         id="stop4960-6"
         offset="1"
         style="stop-color:#98aae7;stop-opacity:0.40392157" /></linearGradient><linearGradient
       xlink:href="#linearGradient2"
       id="linearGradient3"
       x1="81.057755"
       y1="1037.51"
       x2="80.973343"
       y2="1019.4859"
       gradientUnits="userSpaceOnUse"
       gradientTransform="matrix(1.014251,0,0,1.0952889,-49.030265,-75.134053)" /><linearGradient
       xlink:href="#linearGradient10"
       id="linearGradient4"
       gradientUnits="userSpaceOnUse"
       gradientTransform="matrix(1.0292105,0,0,0.63104761,-50.698435,371.80247)"
       x1="84.138847"
       y1="1035.3987"
       x2="59.405704"
       y2="1025.6487" /><linearGradient
       xlink:href="#linearGradient7"
       id="linearGradient8"
       x1="7.3125001"
       y1="1005.985"
       x2="52.437498"
       y2="1005.985"
       gradientUnits="userSpaceOnUse" /><filter
       style="color-interpolation-filters:sRGB"
       id="filter8"
       x="-0.026294752"
       y="-0.1557044"
       width="1.0525895"
       height="1.3114088"><feGaussianBlur
         stdDeviation="0.49439609"
         id="feGaussianBlur8" /></filter><filter
       style="color-interpolation-filters:sRGB"
       id="filter10"
       x="-0.032970262"
       y="-3.1110088"
       width="1.0659405"
       height="7.2220176"><feGaussianBlur
         stdDeviation="0.589 0.733"
         id="feGaussianBlur10" /></filter><filter
       style="color-interpolation-filters:sRGB"
       id="filter11"
       x="-0.078663249"
       y="-0.070064432"
       width="1.1573265"
       height="1.1401289"><feGaussianBlur
         stdDeviation="0.45067487"
         id="feGaussianBlur11" /></filter><filter
       style="color-interpolation-filters:sRGB"
       id="filter12"
       x="-0.024964458"
       y="-1.2381723"
       width="1.0499289"
       height="3.4763447"><feGaussianBlur
         stdDeviation="0.154 0.228"
         id="feGaussianBlur12" /></filter><filter
       style="color-interpolation-filters:sRGB"
       id="filter12-6"
       x="-0.23002965"
       y="-1.3793675"
       width="1.4600593"
       height="3.758735"><feGaussianBlur
         stdDeviation="1.419 0.254"
         id="feGaussianBlur12-1" /></filter><filter
       style="color-interpolation-filters:sRGB"
       id="filter13"
       x="-1.2688697"
       y="-0.14602817"
       width="3.5377393"
       height="1.2920563"><feGaussianBlur
         stdDeviation="0.38 0.27"
         id="feGaussianBlur13" /></filter><filter
       style="color-interpolation-filters:sRGB"
       id="filter13-8"
       x="-1.2688697"
       y="-0.14602817"
       width="3.5377393"
       height="1.2920563"><feGaussianBlur
         stdDeviation="0.38 0.27"
         id="feGaussianBlur13-8" /></filter><filter
       style="color-interpolation-filters:sRGB"
       id="filter15"
       x="-1.1681684"
       y="-0.061905455"
       width="3.3363369"
       height="1.1238109"><feGaussianBlur
         stdDeviation="0.289 0.133"
         id="feGaussianBlur15" /></filter><filter
       style="color-interpolation-filters:sRGB"
       id="filter16"
       x="-0.031953244"
       y="-0.67261574"
       width="1.0639065"
       height="2.3452315"><feGaussianBlur
         stdDeviation="0.17516035"
         id="feGaussianBlur16" /></filter><filter
       style="color-interpolation-filters:sRGB"
       id="filter17"
       x="-0.026794031"
       y="-1.2051693"
       width="1.0535881"
       height="3.4103386"><feGaussianBlur
         stdDeviation="0.187 0.408"
         id="feGaussianBlur17" /></filter><filter
       style="color-interpolation-filters:sRGB"
       id="filter17-2"
       x="-0.026794031"
       y="-1.2051693"
       width="1.0535881"
       height="3.4103386"><feGaussianBlur
         stdDeviation="0.187 0.408"
         id="feGaussianBlur17-6" /></filter><filter
       style="color-interpolation-filters:sRGB"
       id="filter17-2-6"
       x="-0.026794031"
       y="-2.2360618"
       width="1.0535881"
       height="5.4721236"><feGaussianBlur
         stdDeviation="0.187 0.757"
         id="feGaussianBlur17-6-0" /></filter><filter
       style="color-interpolation-filters:sRGB"
       id="filter17-6"
       x="-0.026794031"
       y="-1.2051693"
       width="1.0535881"
       height="3.4103386"><feGaussianBlur
         stdDeviation="0.187 0.408"
         id="feGaussianBlur17-3" /></filter><filter
       style="color-interpolation-filters:sRGB"
       id="filter17-2-3"
       x="-0.026794031"
       y="-1.2051693"
       width="1.0535881"
       height="3.4103386"><feGaussianBlur
         stdDeviation="0.187 0.408"
         id="feGaussianBlur17-6-04" /></filter><filter
       style="color-interpolation-filters:sRGB"
       id="filter20"
       x="-0.0035584997"
       y="-0.71140602"
       width="1.007117"
       height="2.422812"><feGaussianBlur
         stdDeviation="0.069 0.262"
         id="feGaussianBlur20" /></filter><filter
       style="color-interpolation-filters:sRGB"
       id="filter18-5"
       x="-0.0085197806"
       y="-0.0036972633"
       width="1.0170396"
       height="1.0073945"><feGaussianBlur
         stdDeviation="0.015308981"
         id="feGaussianBlur18-6" /></filter><filter
       style="color-interpolation-filters:sRGB"
       id="filter19-2"
       x="-0.466944"
       y="-0.13002419"
       width="1.933888"
       height="1.2600484"><feGaussianBlur
         stdDeviation="0.456 0.364"
         id="feGaussianBlur19-4" /></filter><filter
       style="color-interpolation-filters:sRGB"
       id="filter18-5-5"
       x="-0.0085197806"
       y="-0.0036972633"
       width="1.0170396"
       height="1.0073945"><feGaussianBlur
         stdDeviation="0.015308981"
         id="feGaussianBlur18-6-4" /></filter><filter
       style="color-interpolation-filters:sRGB"
       id="filter19-2-2"
       x="-0.466944"
       y="-0.13002419"
       width="1.933888"
       height="1.2600484"><feGaussianBlur
         stdDeviation="0.456 0.364"
         id="feGaussianBlur19-4-8" /></filter><filter
       style="color-interpolation-filters:sRGB"
       id="filter23"
       x="-0.18014433"
       y="-0.81659833"
       width="1.3602887"
       height="2.6331967"><feGaussianBlur
         stdDeviation="0.549 0.203"
         id="feGaussianBlur23" /></filter><linearGradient
       xlink:href="#linearGradient5373"
       id="linearGradient5379"
       x1="18.4132"
       y1="1003.4459"
       x2="29.930859"
       y2="1039.3618"
       gradientUnits="userSpaceOnUse"
       gradientTransform="matrix(0.73328163,0,0,0.73328163,34.775441,280.5084)" /><linearGradient
       id="linearGradient5373"><stop
         style="stop-color:#91d959;stop-opacity:1;"
         offset="0"
         id="stop5375" /><stop
         style="stop-color:#61bb18;stop-opacity:1;"
         offset="1"
         id="stop5377" /></linearGradient><filter
       style="color-interpolation-filters:sRGB"
       id="filter5535"
       x="-0.48403505"
       width="1.9680701"
       y="-0.56926084"
       height="2.1385217"><feGaussianBlur
         stdDeviation="5.2543488"
         id="feGaussianBlur5537" /></filter><filter
       style="color-interpolation-filters:sRGB"
       id="filter5221"
       x="-0.10833312"
       width="1.2166662"
       y="-0.070208004"
       height="1.140416"><feGaussianBlur
         stdDeviation="0.8812897"
         id="feGaussianBlur5223" /></filter><filter
       style="color-interpolation-filters:sRGB"
       id="filter5047"
       x="-0.061442132"
       width="1.1228843"
       y="-0.049128299"
       height="1.0982566"><feGaussianBlur
         stdDeviation="0.44094492"
         id="feGaussianBlur5049" /></filter></defs><metadata
     id="metadata7"><rdf:RDF><cc:Work
         rdf:about=""><dc:format>image/svg+xml</dc:format><dc:type
           rdf:resource="http://purl.org/dc/dcmitype/StillImage" /></cc:Work></rdf:RDF></metadata><g
     transform="translate(0,-986.3622)"
     style="display:inline"
     id="layer1"><path
       style="display:inline;fill:url(#linearGradient4978);fill-opacity:1;stroke:none"
       d="M 75,0 V 66 H 1e-6 C 1e-6,41.2048 50.00969,0 75,0 Z"
       id="rect4113-1"
       transform="translate(0,986.3622)" /><path
       style="display:inline;opacity:0.404;fill:url(#linearGradient4962);fill-opacity:1;stroke:none"
       d="M 75,21.0607 V 66 H 1e-6 C 10.625001,47.804 43.509694,25.4357 75,21.0607 Z"
       id="rect4113-1-0"
       transform="translate(0,986.3622)" /><path
       style="display:inline;opacity:0.184;fill:url(#linearGradient4970);fill-opacity:1;stroke:none"
       d="M 75,4.0000001e-7 V 66 H 30.000003 C 30.000003,46.1545 47.70944,9.2500004 75,4e-7 Z"
       id="rect4113-1-7"
       transform="translate(0,986.3622)" /><g
       id="g10"
       transform="matrix(0.98244775,0,0,1.0018522,-23.447944,12.937263)"
       style="display:inline"><path
         id="rect1-5"
         style="display:inline;fill:url(#linearGradient4);stroke:#7b2826;stroke-width:1.57004;stroke-linecap:square;stroke-dasharray:none;stroke-opacity:0.992157;paint-order:markers stroke fill"
         d="m 15.646297,1018.5151 37.75842,0 a 4.3171873,4.3171873 45 0 1 4.317187,4.3172 l 0,4.6908 H 10.55384 v -3.9155 a 5.0924569,5.0924569 135 0 1 5.092457,-5.0925 z"
         transform="matrix(0.99147696,0,0,0.92062139,24.707727,66.529919)" /><path
         style="mix-blend-mode:normal;fill:url(#linearGradient8);stroke:none;stroke-width:1;stroke-linecap:square;stroke-dasharray:none;stroke-opacity:0.992157;paint-order:markers stroke fill;filter:url(#filter8)"
         d="m 7.3125001,1009.7372 0,-2.9875 a 4.5749998,4.5749998 135 0 1 4.5749999,-4.575 h 39.431248 a 1.11875,1.11875 45 0 1 1.11875,1.1187 l 0,0.092 a 0.60156247,0.60156247 135 0 1 -0.601562,0.6016 l -3.94243,0 a 9.0482939,9.0482939 170.08877 0 0 -3.068338,0.5361 l -13.150339,4.7403 a 8.975956,8.975956 170.16704 0 1 -3.068332,0.5318 z"
         id="path6"
         transform="matrix(1.0055826,0,0,1.0140252,27.825635,-11.476538)" /><path
         id="rect10"
         style="fill:#ffffff;stroke-linecap:square;stroke-opacity:0.992157;paint-order:markers stroke fill;filter:url(#filter10)"
         d="M 37.00625,1005.1747 H 79.6875 v 0.5625 H 37.24375 a 0.43124998,0.43124998 45 0 1 -0.43125,-0.4312 0.16547764,0.16547764 145.88555 0 1 0.19375,-0.1313 z"
         transform="matrix(0.98356095,0,0,1,1.3653953,0.70044423)" /></g><g
       id="g22"
       transform="matrix(0.98974498,0,0,1.0005335,-0.14705808,-19.844342)"
       style="display:inline"><rect
         style="fill:url(#linearGradient3);stroke:#7b2826;stroke-width:1.5;stroke-linecap:square;stroke-dasharray:none;stroke-opacity:0.992157;paint-order:markers stroke fill"
         id="rect1"
         width="46.482475"
         height="15.634939"
         x="11.331713"
         y="1047.344" /><path
         style="mix-blend-mode:normal;fill:#d88081;fill-opacity:1;stroke:none;stroke-width:1.5;stroke-linecap:square;stroke-dasharray:none;stroke-opacity:0.992157;paint-order:markers stroke fill;filter:url(#filter11)"
         d="m 11.999999,1063.3622 -0.125,-15.4375 h 13.75 z"
         id="path10"
         transform="matrix(0.98416275,0,0,1.0081385,0.14069837,-8.9350885)" /><rect
         style="fill:#c99997;fill-opacity:1;stroke:none;stroke-width:1.5;stroke-linecap:square;stroke-dasharray:none;stroke-opacity:1;paint-order:markers stroke fill;filter:url(#filter17)"
         id="rect16"
         width="16.75"
         height="0.81249994"
         x="41.03125"
         y="1047.3622"
         transform="matrix(1,0,0,1.0451117,0,-47.204111)" /><rect
         style="display:inline;fill:#c99997;fill-opacity:1;stroke:none;stroke-width:1.5;stroke-linecap:square;stroke-dasharray:none;stroke-opacity:1;paint-order:markers stroke fill;filter:url(#filter17-6)"
         id="rect16-83"
         width="16.75"
         height="0.81249994"
         x="41.03125"
         y="1047.3622"
         transform="matrix(0.91735944,0,0,1.0451117,-26.416732,-47.224911)" /><rect
         style="display:inline;fill:#c99997;fill-opacity:1;stroke:none;stroke-width:1.5;stroke-linecap:square;stroke-dasharray:none;stroke-opacity:1;paint-order:markers stroke fill;filter:url(#filter17-2)"
         id="rect16-8"
         width="16.75"
         height="0.81249994"
         x="41.03125"
         y="1047.3622"
         transform="matrix(0,0.91485518,-1.0451117,0,1152.2947,1009.9971)" /><rect
         style="display:inline;fill:#c99997;fill-opacity:1;stroke:none;stroke-width:1.5;stroke-linecap:square;stroke-dasharray:none;stroke-opacity:1;paint-order:markers stroke fill;filter:url(#filter17-2-3)"
         id="rect16-8-9"
         width="16.75"
         height="0.81249994"
         x="41.03125"
         y="1047.3622"
         transform="matrix(0,0.91485518,-1.0451117,0,1106.8366,1010.0306)" /><rect
         style="display:inline;fill:#8d9395;fill-opacity:1;stroke:none;stroke-width:1.5;stroke-linecap:square;stroke-dasharray:none;stroke-opacity:1;paint-order:markers stroke fill;filter:url(#filter17-2-6)"
         id="rect16-8-3"
         width="16.75"
         height="0.81249994"
         x="41.03125"
         y="1047.3622"
         transform="matrix(-2.7154177,0,0,-0.94941534,168.72394,2057.3677)" /><rect
         style="display:inline;mix-blend-mode:normal;fill:#841717;fill-opacity:1;stroke:none;stroke-width:1.5;stroke-linecap:square;stroke-dasharray:none;stroke-opacity:0.992157;paint-order:markers stroke fill;filter:url(#filter20)"
         id="rect19"
         width="46.536465"
         height="0.88388342"
         x="11.171973"
         y="1047.0485"
         transform="matrix(1.008668,0,0,1,-0.31415348,0)" /></g><g
       id="g19"
       transform="matrix(1.0025416,0,0,1.0813819,-0.29305488,-104.4762)"
       style="display:inline"><path
         id="rect11"
         style="fill:#670000;stroke:#882222;stroke-width:1.41966;stroke-linecap:square;stroke-opacity:1;paint-order:markers stroke fill"
         d="m 40.771645,1036.6558 h 13.058936 v 4.6077 a 0.34375003,0.34375003 135 0 1 -0.34375,0.3438 H 41.115395 a 0.34375003,0.34375003 45 0 1 -0.34375,-0.3438 z"
         transform="translate(-13.562499,11.3125)" /><rect
         style="mix-blend-mode:normal;fill:#ffffff;fill-opacity:1;stroke:none;stroke-width:1.51592;stroke-linecap:square;stroke-dasharray:none;stroke-opacity:0.992157;paint-order:markers stroke fill;filter:url(#filter12)"
         id="rect12"
         width="14.805048"
         height="0.44194171"
         x="48.30423"
         y="1034.578"
         transform="matrix(0.89137981,0,0,1.1210301,-15.968542,-107.35426)" /><rect
         style="display:inline;mix-blend-mode:normal;fill:#ffffff;fill-opacity:1;stroke:none;stroke-width:1.51592;stroke-linecap:square;stroke-dasharray:none;stroke-opacity:0.992157;paint-order:markers stroke fill;filter:url(#filter12-6)"
         id="rect12-8"
         width="14.805048"
         height="0.44194171"
         x="48.30423"
         y="1034.578"
         transform="matrix(0,0.28322275,-0.93320437,0,1005.7097,1034.4957)" /><rect
         style="fill:#410000;fill-opacity:1;stroke:none;stroke-width:1.56171;stroke-linecap:square;stroke-dasharray:none;stroke-opacity:1;paint-order:markers stroke fill;filter:url(#filter13)"
         id="rect13"
         width="0.71874994"
         height="4.4375"
         x="27.1875"
         y="1048.0809" /><rect
         style="display:inline;fill:#410000;fill-opacity:1;stroke:none;stroke-width:1.56171;stroke-linecap:square;stroke-dasharray:none;stroke-opacity:1;paint-order:markers stroke fill;filter:url(#filter13-8)"
         id="rect13-8"
         width="0.71874994"
         height="4.4375"
         x="42.911999"
         y="1037.0103"
         transform="matrix(0,1,-2.5936418,0,2729.2786,1005.2372)" /><rect
         style="mix-blend-mode:normal;fill:#ffffff;fill-opacity:1;stroke:none;stroke-width:1.5;stroke-linecap:square;stroke-dasharray:none;stroke-opacity:1;paint-order:markers stroke fill;filter:url(#filter16)"
         id="rect14"
         width="13.156249"
         height="0.625"
         x="27.562498"
         y="1053.7372"
         transform="matrix(1.1027005,0,0,1,-3.1000067,-0.09375)" /><rect
         style="mix-blend-mode:normal;fill:#ffffff;fill-opacity:1;stroke:none;stroke-width:1.5;stroke-linecap:square;stroke-dasharray:none;stroke-opacity:1;paint-order:markers stroke fill;filter:url(#filter15)"
         id="rect15"
         width="0.59375"
         height="5.15625"
         x="41.09375"
         y="1048.4247"
         transform="matrix(1,0,0,1.2428939,0,-255.64208)" /></g><g
       id="g21-4"
       transform="matrix(0.98376501,0,0,1.5483792,30.88322,-597.32933)"
       style="display:inline"><path
         id="rect5-7"
         style="display:inline;fill:#c3a29e;fill-opacity:1;stroke:none;stroke-linecap:square;stroke-opacity:0.992157;paint-order:markers stroke fill;filter:url(#filter18-5)"
         d="m 16.71875,1024.5809 h 4.3125 v 8.525 a 1.4125315,1.4125315 135 0 1 -1.412532,1.4125 h -1.449032 a 1.4509356,1.4509356 45 0 1 -1.450936,-1.4509 z"
         transform="matrix(1,0,0,0.68424793,-0.39774755,346.36193)" /><rect
         style="mix-blend-mode:normal;fill:#ffffff;fill-opacity:1;stroke:none;stroke-width:1.49307;stroke-linecap:square;stroke-dasharray:none;stroke-opacity:0.992157;paint-order:markers stroke fill;filter:url(#filter19-2)"
         id="rect18-8"
         width="2.34375"
         height="6.7187495"
         x="17.28125"
         y="1047.4559"
         transform="matrix(1.2080201,0,0,0.94105106,-3.7109406,61.814537)" /></g><g
       id="g21-4-4"
       transform="matrix(0.98376501,0,0,1.5483792,0.43621009,-597.3293)"
       style="display:inline"><path
         id="rect5-7-2"
         style="display:inline;fill:#c3a29e;fill-opacity:1;stroke:none;stroke-linecap:square;stroke-opacity:0.992157;paint-order:markers stroke fill;filter:url(#filter18-5-5)"
         d="m 16.71875,1024.5809 h 4.3125 v 8.525 a 1.4125315,1.4125315 135 0 1 -1.412532,1.4125 h -1.449032 a 1.4509356,1.4509356 45 0 1 -1.450936,-1.4509 z"
         transform="matrix(1,0,0,0.68424793,-0.39774755,346.36193)" /><rect
         style="mix-blend-mode:normal;fill:#ffffff;fill-opacity:1;stroke:none;stroke-width:1.49307;stroke-linecap:square;stroke-dasharray:none;stroke-opacity:0.992157;paint-order:markers stroke fill;filter:url(#filter19-2-2)"
         id="rect18-8-8"
         width="2.34375"
         height="6.7187495"
         x="17.28125"
         y="1047.4559"
         transform="matrix(1.2080201,0,0,0.94105106,-3.7109406,61.814537)" /></g><g
       id="g23"><path
         style="fill:#3d0d0f;fill-opacity:0.85098;stroke:none;stroke-width:1.52782;stroke-linecap:square;stroke-dasharray:none;stroke-opacity:1;paint-order:markers stroke fill"
         d="m 22.458486,1018.2683 1.456361,-3.0021 1.028013,-3.1172 18.951106,0.01 1.03125,3.1145 1.390277,2.9529 -2.364389,0.046 -2.031592,-3.03 0.0066,-1.0171 H 39.9242 l -0.0052,1.0236 -2.996051,-0.043 -0.01305,-0.9846 -1.005857,-0.01 0.0078,1.0087 h -2.987129 v -1.0087 h -1.281631 v 1.0316 h -2.729775 l -0.0026,-1.0316 h -1.997775 l 0.0054,0.9736 -2.103245,3.084 z"
         id="path23" /><rect
         style="mix-blend-mode:normal;fill:#ffffff;fill-opacity:0.85098;stroke:none;stroke-width:1.59159;stroke-linecap:square;stroke-dasharray:none;stroke-opacity:1;paint-order:markers stroke fill;filter:url(#filter23)"
         id="rect23"
         width="7.3141356"
         height="0.59662133"
         x="25.477942"
         y="1005.675"
         transform="matrix(1.2076469,0,0,0.79763926,-4.8628899,210.20755)" /></g><g
       id="g3"
       style="display:inline"
       transform="matrix(0.6505993,0,0,0.65987977,-22.931677,327.93433)"><ellipse
         cy="1029.0879"
         cx="52.683666"
         style="font-style:normal;font-weight:normal;font-size:medium;line-height:125%;font-family:Sans;letter-spacing:0px;word-spacing:0px;display:inline;fill:url(#linearGradient5379);fill-opacity:1;stroke:none;stroke-width:1.09992;stroke-linecap:round;stroke-linejoin:round;stroke-miterlimit:4;stroke-dasharray:none;stroke-dashoffset:0;stroke-opacity:1"
         id="path10796-2-6-2"
         rx="14.610767"
         ry="14.663307" /><path
         style="display:inline;fill:#ffffff;fill-opacity:1;stroke:none;stroke-width:1.5;stroke-linecap:round;stroke-linejoin:miter;stroke-miterlimit:4;stroke-dasharray:none;stroke-dashoffset:0;stroke-opacity:1;filter:url(#filter5535)"
         d="m 71.264734,1018.9726 a 19.925179,19.996828 0 0 0 -16.566406,8.9062 13.02639,11.919721 0 0 0 -0.08789,1.3262 13.02639,11.919721 0 0 0 13.027344,11.9199 13.02639,11.919721 0 0 0 13.025391,-11.9199 13.02639,11.919721 0 0 0 -5.744141,-9.8789 19.925179,19.996828 0 0 0 -3.654298,-0.3535 z"
         id="path5381-3"
         transform="matrix(-0.69511499,0.23348898,-0.23348898,-0.69511499,339.33081,1725.6209)" /><path
         style="display:inline;fill:#4f8c1c;fill-opacity:1;fill-rule:evenodd;stroke:none;stroke-width:1px;stroke-linecap:butt;stroke-linejoin:miter;stroke-opacity:1;filter:url(#filter5221)"
         d="m 69.880959,1056.7348 c 13.138983,1.3446 26.215947,-13.2506 15.6794,-30.04 4.270131,11.66 -2.596726,28.1272 -15.6794,30.04 z"
         id="path4955"
         transform="matrix(0.73041538,0.06477126,-0.06477126,0.73041538,69.292829,266.61004)" /><path
         style="display:inline;fill:#7ebe66;fill-opacity:1;fill-rule:evenodd;stroke:none;stroke-width:1px;stroke-linecap:butt;stroke-linejoin:miter;stroke-opacity:1;filter:url(#filter5047)"
         d="m 42.016424,1063.8653 c 10.35108,-1.0571 18.719697,-7.243 16.998227,-21.5409 -1.492,9.5512 -7.513167,18.0332 -16.998227,21.5409 z"
         id="path4955-4"
         transform="matrix(0.40377958,0.61209802,-0.61209802,0.40377958,677.09121,582.6025)" /><ellipse
         cy="1029.0879"
         cx="52.683666"
         style="font-style:normal;font-weight:normal;font-size:medium;line-height:125%;font-family:Sans;letter-spacing:0px;word-spacing:0px;display:inline;fill:none;fill-opacity:1;stroke:#657a32;stroke-width:0.916602;stroke-linecap:round;stroke-linejoin:round;stroke-miterlimit:4;stroke-dasharray:none;stroke-dashoffset:0;stroke-opacity:1"
         id="path10796-2-6-2-2"
         rx="14.610767"
         ry="14.663307" /><path
         style="fill:#f8f8f8;fill-opacity:1;stroke:#7eb582;stroke-width:2;stroke-linecap:square;stroke-opacity:1;paint-order:markers stroke fill"
         d="m 49.611136,1023.2359 v 12.4186 l 8.927223,-6.2314 z"
         id="path2" /></g></g></svg>
