<?xml version="1.0" encoding="UTF-8" standalone="no"?>
<!-- Created with Inkscape (http://www.inkscape.org/) -->

<svg
   width="48"
   height="48"
   id="svg2"
   version="1.1"
   xml:space="preserve"
   xmlns="http://www.w3.org/2000/svg"
   xmlns:svg="http://www.w3.org/2000/svg"
   xmlns:rdf="http://www.w3.org/1999/02/22-rdf-syntax-ns#"
   xmlns:cc="http://creativecommons.org/ns#"
   xmlns:dc="http://purl.org/dc/elements/1.1/"><defs
     id="defs4" /><metadata
     id="metadata7"><rdf:RDF><cc:Work
         rdf:about=""><dc:format>image/svg+xml</dc:format><dc:type
           rdf:resource="http://purl.org/dc/dcmitype/StillImage" /></cc:Work></rdf:RDF></metadata><g
     id="layer1"
     style="display:inline"
     transform="translate(0,-1036.3622)"><path
       style="fill:#ffffff;stroke:#355d55;stroke-width:2.5;stroke-linecap:square;stroke-dasharray:none;stroke-opacity:1;paint-order:markers stroke fill;fill-opacity:1"
       d="m 18.678535,1072.7038 10.949545,0.029 a 0.38182157,0.38182157 134.89251 0 0 0.382823,-0.3843 l -0.0031,-0.4832 a 4.4526101,4.4526101 102.91204 0 1 0.530366,-2.3135 l 0.684187,-1.1289 a 9.1755847,9.1755847 123.62303 0 1 0.426314,-0.6411 l 0.607426,-0.8352 a 40.538173,40.538173 126.57206 0 1 0.459116,-0.6188 l 0.772439,-1.0208 a 12.883054,12.883054 125.40358 0 0 0.446222,-0.6278 l 0.898379,-1.3475 a 15.891366,15.891366 125.07944 0 1 0.442731,-0.6304 l 0.293285,-0.3969 a 22.711483,22.711483 125.49642 0 0 0.447374,-0.6272 l 0.08937,-0.1299 a 5.1023681,5.1023681 112.4644 0 0 0.929706,-2.2485 l 0.02581,-4.8089 c 0.003,-0.56 -0.05046,-1.4667 -0.196174,-2.0071 -0.208349,-0.7726 -0.524473,-1.4883 -0.923231,-2.2016 -0.103823,-0.1857 -0.290964,-0.4753 -0.412455,-0.65 l -0.599716,-0.8624 c -0.121491,-0.1747 -0.336212,-0.4438 -0.481139,-0.5996 -1.005031,-1.0805 -3.328033,-2.5383 -4.95838,-3.4549 -5e-5,0 -9.9e-5,-1e-4 -1.49e-4,-1e-4 -0.442934,-0.249 -1.219383,-0.4414 -1.727758,-0.4414 h -6.840624 a 6.0970603,6.0970603 170.78334 0 0 -1.927896,0.3128 c -0.213882,0.071 -0.944959,0.4129 -1.627911,0.7725 -0.184467,0.097 -0.360507,0.1909 -0.504015,0.2691 -0.186263,0.1015 -0.468643,0.2984 -0.634891,0.4313 -0.333046,0.2662 -0.851367,0.6847 -1.187532,0.9558 -0.16552,0.1335 -0.435484,0.3483 -0.596346,0.4876 -0.662599,0.5736 -0.84091,0.9175 -1.354069,1.6313 -0.124069,0.1726 -0.318465,0.4573 -0.414695,0.6469 -0.151126,0.2979 -0.351463,0.7225 -0.495506,1.0365 -0.08843,0.1928 -0.22123,0.5107 -0.291671,0.7115 -0.156444,0.4461 -0.386407,1.1566 -0.501519,1.6075 -0.05197,0.2036 -0.07114,0.5462 -0.07114,0.759 v 4.3071 a 8.6251682,8.6251682 82.459354 0 0 0.416054,3.143 l 0.929271,1.5148 c 0.11127,0.1814 0.300466,0.4698 0.42293,0.644 0.09523,0.1354 0.206984,0.294 0.30513,0.4324 0.123028,0.1734 0.330512,0.4489 0.461356,0.6167 0.125265,0.1606 0.273715,0.3533 0.395084,0.5228 0.123338,0.1722 0.296683,0.4704 0.420722,0.6432 0.233054,0.3246 0.595542,0.7954 0.832602,1.1003 0.130056,0.1672 0.335669,0.4433 0.458578,0.6172 0.142061,0.201 0.326673,0.4616 0.474459,0.6681 0.123726,0.1729 0.331952,0.4478 0.466877,0.6124 0.293392,0.3578 0.775577,0.94 1.070374,1.3482 0.149185,0.2065 0.251656,0.6011 0.261107,0.8597 l 0.05092,1.3933 a 0.40068735,0.40068735 44.029243 0 0 0.39936,0.386 z"
       id="path1"
       transform="translate(-0.18882189)" /><path
       style="fill:#355d55;stroke:#355d55;stroke-width:0.683;stroke-linecap:square;stroke-opacity:1;paint-order:markers stroke fill;fill-opacity:1"
       d="m 14.304152,1052.5056 0.579196,-1.068 a 5.5206011,5.5206011 123.04412 0 1 0.479762,-0.7375 l 0.93003,-1.207 a 3.7517842,3.7517842 134.32356 0 1 0.612489,-0.6271 l 1.438742,-1.1638 a 3.5780744,3.5780744 148.06383 0 1 0.743413,-0.4633 l 0.949432,-0.4409 a 4.7654304,4.7654304 160.38626 0 1 0.827889,-0.295 l 0.61354,-0.1566 a 0.57236505,0.57236505 23.311338 0 1 0.64193,0.2766 0.29754895,0.29754895 134.383 0 1 -0.317646,0.3245 l -0.574608,0.2044 a 25.66928,25.66928 159.44191 0 0 -0.826314,0.3099 l -0.366514,0.1446 a 4.4112227,4.4112227 152.74377 0 0 -0.780746,0.4023 l -0.415744,0.2696 a 8.6238648,8.6238648 144.10106 0 0 -0.714055,0.5169 l -0.593646,0.4778 a 3.5644757,3.5644757 134.11358 0 0 -0.609739,0.6289 l -0.624376,0.8269 a 9.153091,9.153091 124.29521 0 0 -0.496756,0.7283 l -0.382112,0.6228 a 15.633229,15.633229 119.91777 0 0 -0.44005,0.7647 l -0.01904,0.035 a 0.43033712,0.43033712 164.02282 0 1 -0.592406,0.1696 0.39156582,0.39156582 83.427872 0 1 -0.06267,-0.5439 z"
       id="path3" /><path
       style="fill:#355d55;fill-opacity:1;stroke:#355d55;stroke-width:0.683;stroke-linecap:square;stroke-opacity:1;paint-order:markers stroke fill"
       d="m 20.97649,1057.3738 h -1.982036 l 1.985827,3.9657 6.006617,0.012 2.018647,-3.9853 h -1.992529 l -1.037454,2.9909 h -3.960509 z"
       id="path4" /><rect
       style="fill:#355d55;fill-opacity:1;stroke:#355d55;stroke-width:0.696509;stroke-linecap:square;stroke-opacity:1;paint-order:markers stroke fill"
       id="rect4"
       width="1.984375"
       height="11.504442"
       x="23.007812"
       y="1061.3309" /><rect
       style="display:inline;fill:#355d55;fill-opacity:1;stroke:#355d55;stroke-width:0.683;stroke-linecap:square;stroke-opacity:1;paint-order:markers stroke fill"
       id="rect5"
       width="12.087107"
       height="6.0546017"
       x="17.956448"
       y="1074.2587"
       rx="1" /><path
       style="display:inline;fill:#355d55;fill-opacity:1;stroke:#355d55;stroke-width:0.683;stroke-linecap:square;stroke-opacity:1;paint-order:markers stroke fill"
       d="m 20.000427,1080.2471 c 0.08839,0.1546 2.066079,2.1433 2.066079,2.1433 l 3.966426,-0.011 1.96664,-2.0771 z"
       id="path5" /><rect
       style="fill:#c46200;fill-opacity:1;stroke:none;stroke-width:0.683;stroke-linecap:square;stroke-opacity:0.905882;paint-order:markers stroke fill"
       id="rect6"
       width="4.5299029"
       height="1.0385631"
       x="21.735048"
       y="1080.3134"
       rx="1" /><g
       id="g8"
       transform="translate(-0.47768795)"><rect
         style="fill:#6384b2;fill-opacity:1;stroke:#6687b7;stroke-width:0.492107;stroke-linecap:square;stroke-opacity:1;paint-order:markers stroke fill"
         id="rect7"
         width="1.5078928"
         height="1.507893"
         x="20.201429"
         y="1076.5792" /><rect
         style="display:inline;fill:#6384b2;fill-opacity:1;stroke:#6687b7;stroke-width:0.492107;stroke-linecap:square;stroke-opacity:1;paint-order:markers stroke fill"
         id="rect7-8"
         width="1.5078928"
         height="1.507893"
         x="27.246054"
         y="1076.577" /><rect
         style="fill:#6384b2;fill-opacity:1;stroke:#6687b7;stroke-width:0.525273;stroke-linecap:square;stroke-opacity:1;paint-order:markers stroke fill"
         id="rect8"
         width="4.4747272"
         height="0.47472715"
         x="22.262636"
         y="1075.6249" /><rect
         style="display:inline;fill:#6384b2;fill-opacity:1;stroke:#6687b7;stroke-width:0.525273;stroke-linecap:square;stroke-opacity:1;paint-order:markers stroke fill"
         id="rect8-4"
         width="4.4747272"
         height="0.47472715"
         x="22.262636"
         y="1078.6248" /></g><rect
       style="fill:#355d55;fill-opacity:1;stroke:#355d55;stroke-width:0.551975;stroke-linecap:square;stroke-opacity:1;paint-order:markers stroke fill"
       id="rect9"
       width="3.4480245"
       height="0.44802466"
       x="808.09088"
       y="657.5498"
       transform="rotate(50.219204)" /><rect
       style="display:inline;fill:#355d55;fill-opacity:1;stroke:#355d55;stroke-width:0.551975;stroke-linecap:square;stroke-opacity:1;paint-order:markers stroke fill"
       id="rect9-7"
       width="3.4480245"
       height="0.44802466"
       x="777.55243"
       y="695.00958"
       transform="matrix(-0.63985216,0.76849803,0.76849803,0.63985216,0,0)" /><rect
       style="fill:#355d55;fill-opacity:1;stroke:#355d55;stroke-width:0.375011;stroke-linecap:square;stroke-dasharray:none;stroke-opacity:1;paint-order:markers stroke fill"
       id="rect10"
       width="0.62498856"
       height="4.6248431"
       x="23.687506"
       y="1037.2026" /></g></svg>
