<?xml version="1.0" encoding="UTF-8" standalone="no"?>
<!-- Created with Inkscape (http://www.inkscape.org/) -->

<svg
   width="16"
   height="16"
   id="svg2"
   version="1.1"
   xmlns:xlink="http://www.w3.org/1999/xlink"
   xmlns="http://www.w3.org/2000/svg"
   xmlns:svg="http://www.w3.org/2000/svg"
   xmlns:rdf="http://www.w3.org/1999/02/22-rdf-syntax-ns#"
   xmlns:cc="http://creativecommons.org/ns#"
   xmlns:dc="http://purl.org/dc/elements/1.1/">
  <defs
     id="defs4">
    <linearGradient
       y2="1043.8591"
       x2="15.523204"
       y1="1043.8591"
       x1="7.4779682"
       gradientUnits="userSpaceOnUse"
       id="linearGradient3268"
       xlink:href="#linearGradient3851-3" />
    <linearGradient
       id="linearGradient3851-3">
      <stop
         style="stop-color:#ffffff;stop-opacity:1;"
         offset="0"
         id="stop3853-2" />
      <stop
         id="stop3863-0"
         offset="0.5"
         style="stop-color:#ffffff;stop-opacity:0.82198954;" />
      <stop
         style="stop-color:#ffffff;stop-opacity:0;"
         offset="1"
         id="stop3855-4" />
    </linearGradient>
    <linearGradient
       y2="1043.8591"
       x2="15.523204"
       y1="1043.8591"
       x1="7.4779682"
       gradientUnits="userSpaceOnUse"
       id="linearGradient3268-1"
       xlink:href="#linearGradient3851-3-7" />
    <linearGradient
       id="linearGradient3851-3-7">
      <stop
         style="stop-color:#ffffff;stop-opacity:1;"
         offset="0"
         id="stop3853-2-2" />
      <stop
         id="stop3863-0-9"
         offset="0.5"
         style="stop-color:#ffffff;stop-opacity:0.82198954;" />
      <stop
         style="stop-color:#ffffff;stop-opacity:0;"
         offset="1"
         id="stop3855-4-0" />
    </linearGradient>
  </defs>
  <metadata
     id="metadata7">
    <rdf:RDF>
      <cc:Work
         rdf:about="">
        <dc:format>image/svg+xml</dc:format>
        <dc:type
           rdf:resource="http://purl.org/dc/dcmitype/StillImage" />
        <dc:title />
      </cc:Work>
    </rdf:RDF>
  </metadata>
  <g
     id="layer1"
     style="display:inline"
     transform="translate(0,-1036.3622)">
    <g
       transform="translate(7.4131858,13.6281)"
       style="fill:url(#linearGradient3268);fill-opacity:1;stroke:none;display:inline"
       id="g3878" />
    <g
       transform="translate(7.4131858,13.6281)"
       style="fill:url(#linearGradient3268-1);fill-opacity:1;stroke:none;display:inline"
       id="g3834">
      <g
         transform="translate(-14.400562,-10.632256)"
         style="fill:#ffffff;fill-opacity:1;stroke:#4f504f;stroke-opacity:1;display:inline"
         id="g3064">
        <path
           d="m 12.518002,1047.8569 -0.01105,-0.988 1.999787,0 0,-1.9997 1.016465,0 0,-1.965 -1.016465,0 0,-2.0328 -2.010835,0 0.01105,-1.0101 c -1.606355,0 -0.406381,0 -2.012736,0 l 0.01105,1.0101 -2.0108349,0 0,2.0328 -1.016465,0 0,1.965 1.016465,0 0,1.9997 1.9997869,0 -0.01105,0.988 c 1.613721,0 0.421111,0 2.034832,0 z"
           style="fill:#ffffff;fill-opacity:1;stroke:#4f504f;stroke-width:1;stroke-linecap:butt;stroke-linejoin:miter;stroke-miterlimit:4;stroke-opacity:1;stroke-dasharray:none;display:inline"
           id="path4413-2-5-3-1-2" />
        <path
           transform="translate(0.28125,1036.5184)"
           d="m 12.265625,7.34375 c 0,0.5609142 -0.454711,1.015625 -1.015625,1.015625 -0.560914,0 -1.015625,-0.4547108 -1.015625,-1.015625 0,-0.5609142 0.454711,-1.015625 1.015625,-1.015625 0.560914,0 1.015625,0.4547108 1.015625,1.015625 z"
           id="path4475"
           style="fill:#ffffff;fill-opacity:1;stroke:#4f504f;stroke-width:1;stroke-linejoin:round;stroke-miterlimit:4;stroke-opacity:1;stroke-dasharray:none" />
      </g>
      <g
         transform="translate(-7.4620771,-15.582003)"
         style="fill:#ffffff;fill-opacity:1;stroke:#4f504f;stroke-opacity:1;display:inline"
         id="g3064-8">
        <path
           d="m 12.518002,1047.8569 -0.01105,-0.988 1.999787,0 0,-1.9997 1.016465,0 0,-1.965 -1.016465,0 0,-2.0328 -2.010835,0 0.01105,-1.0101 c -1.606355,0 -0.406381,0 -2.012736,0 l 0.01105,1.0101 -2.0108349,0 0,2.0328 -1.016465,0 0,1.965 1.016465,0 0,1.9997 1.9997869,0 -0.01105,0.988 c 1.613721,0 0.421111,0 2.034832,0 z"
           style="fill:#ffffff;fill-opacity:1;stroke:#4f504f;stroke-width:1;stroke-linecap:butt;stroke-linejoin:miter;stroke-miterlimit:4;stroke-opacity:1;stroke-dasharray:none;display:inline"
           id="path4413-2-5-3-1-2-9" />
        <path
           transform="translate(0.28125,1036.5184)"
           d="m 12.265625,7.34375 c 0,0.5609142 -0.454711,1.015625 -1.015625,1.015625 -0.560914,0 -1.015625,-0.4547108 -1.015625,-1.015625 0,-0.5609142 0.454711,-1.015625 1.015625,-1.015625 0.560914,0 1.015625,0.4547108 1.015625,1.015625 z"
           id="path4475-2"
           style="fill:#ffffff;fill-opacity:1;stroke:#4f504f;stroke-width:1;stroke-linejoin:round;stroke-miterlimit:4;stroke-opacity:1;stroke-dasharray:none" />
      </g>
    </g>
  </g>
</svg>
