<?xml version="1.0" encoding="UTF-8" standalone="no"?>
<!-- Created with Inkscape (http://www.inkscape.org/) -->

<svg
   width="16"
   height="16"
   id="svg2"
   version="1.1"
   xmlns:xlink="http://www.w3.org/1999/xlink"
   xmlns="http://www.w3.org/2000/svg"
   xmlns:svg="http://www.w3.org/2000/svg"
   xmlns:rdf="http://www.w3.org/1999/02/22-rdf-syntax-ns#"
   xmlns:cc="http://creativecommons.org/ns#"
   xmlns:dc="http://purl.org/dc/elements/1.1/">
  <defs
     id="defs4">
    <linearGradient
       id="linearGradient3295">
      <stop
         id="stop3291"
         offset="0"
         style="stop-color:#c2c1c1;stop-opacity:1" />
      <stop
         id="stop3293"
         offset="1"
         style="stop-color:#b1b5bb;stop-opacity:1" />
    </linearGradient>
    <linearGradient
       id="linearGradient3289">
      <stop
         id="stop3285"
         offset="0"
         style="stop-color:#c2c1c1;stop-opacity:1" />
      <stop
         id="stop3287"
         offset="1"
         style="stop-color:#c2c1c1;stop-opacity:1" />
    </linearGradient>
    <linearGradient
       y2="1033.8717"
       x2="30.45603"
       y1="1028.9988"
       x1="30.45603"
       gradientTransform="matrix(0.69574445,0.09745746,0,0.45850309,-9.5103956,570.03807)"
       gradientUnits="userSpaceOnUse"
       id="linearGradient3174"
       xlink:href="#linearGradient3295" />
    <linearGradient
       id="linearGradient4852-7">
      <stop
         id="stop4854-4"
         offset="0"
         style="stop-color:#b5a1a2;stop-opacity:1" />
      <stop
         id="stop4856-0"
         offset="1"
         style="stop-color:#e4bebe;stop-opacity:1" />
    </linearGradient>
    <linearGradient
       id="linearGradient4844-4">
      <stop
         id="stop4846-8"
         offset="0"
         style="stop-color:#c2c1c1;stop-opacity:1" />
      <stop
         id="stop4848-8"
         offset="1"
         style="stop-color:#c2c1c1;stop-opacity:1" />
    </linearGradient>
    <linearGradient
       xlink:href="#linearGradient4852-7"
       id="linearGradient4047"
       gradientUnits="userSpaceOnUse"
       gradientTransform="matrix(0.49963553,0,0,0.49796697,0.18518926,524.81723)"
       x1="5.1118913"
       y1="1049.7977"
       x2="4.7528968"
       y2="1038.5814" />
    <linearGradient
       xlink:href="#linearGradient4844-4"
       id="linearGradient4049"
       gradientUnits="userSpaceOnUse"
       gradientTransform="matrix(0.49963553,0,0,0.49796697,0.18518926,524.81723)"
       x1="9.2758217"
       y1="1051.0936"
       x2="8.6566515"
       y2="1037.7" />
    <linearGradient
       y2="1033.8717"
       x2="30.45603"
       y1="1028.9988"
       x1="30.45603"
       gradientTransform="matrix(0.69574445,0.09745745,0,0.45850309,-7.5103956,574.03802)"
       gradientUnits="userSpaceOnUse"
       id="linearGradient3174-7"
       xlink:href="#linearGradient3289" />
  </defs>
  <metadata
     id="metadata7">
    <rdf:RDF>
      <cc:Work
         rdf:about="">
        <dc:format>image/svg+xml</dc:format>
        <dc:type
           rdf:resource="http://purl.org/dc/dcmitype/StillImage" />
        <dc:title />
      </cc:Work>
    </rdf:RDF>
  </metadata>
  <g
     id="layer1"
     style="display:inline"
     transform="translate(0,-1036.3622)">
    <path
       style="display:inline;fill:#cbced3;fill-opacity:1;stroke:url(#linearGradient3174-7);stroke-width:0.97756833px;stroke-linecap:butt;stroke-linejoin:miter;stroke-opacity:1"
       d="m 11.493097,1042.6401 c 0,0 0.803623,-0.6744 1.776433,-0.7302 0.972807,-0.055 2.241686,-0.029 2.241686,-0.029 v 9.3853 l -2.030207,-1.457 -0.930513,1.7915 c 0,0 -0.972807,-0.6132 -1.015103,-1.143 -0.0423,-0.5295 -0.0423,-7.817 -0.0423,-7.817 z"
       id="path5639-9" />
    <path
       style="display:inline;fill:#cbced3;fill-opacity:1;stroke:url(#linearGradient3174);stroke-width:0.97756833px;stroke-linecap:butt;stroke-linejoin:miter;stroke-opacity:1"
       d="m 9.4930968,1038.6401 c 0,0 0.8036232,-0.6744 1.7764332,-0.7302 0.972807,-0.055 2.241686,-0.029 2.241686,-0.029 v 9.3853 l -2.030207,-1.457 -0.930513,1.7915 c 0,0 -0.9728072,-0.6132 -1.0151032,-1.143 -0.0423,-0.5295 -0.0423,-7.817 -0.0423,-7.817 z"
       id="path5639" />
    <path
       style="display:inline;fill:url(#linearGradient4047);fill-opacity:1;stroke:url(#linearGradient4049);stroke-width:1;stroke-linecap:round;stroke-linejoin:miter;stroke-miterlimit:4;stroke-dasharray:none;stroke-dashoffset:0;stroke-opacity:1"
       d="m 6.8899433,1042.0333 c -0.233922,-0.2331 -0.610541,-0.2331 -0.844451,0 l -1.555264,1.5501 -1.555252,-1.5501 c -0.233886,-0.2331 -0.610541,-0.2331 -0.844451,0 l -0.429714,0.4284 c -0.233899,0.233 -0.233893,0.6084 1.8e-5,0.8415 l 1.555227,1.5501 -1.555229,1.5501 c -0.233935,0.2331 -0.233929,0.6085 -7e-6,0.8416 l 0.429737,0.4283 c 0.233897,0.2332 0.610517,0.2332 0.844452,0 l 1.555254,-1.55 1.566059,1.5608 c 0.233898,0.2331 0.610517,0.2331 0.844452,0 l 0.429714,-0.4283 c 0.23391,-0.2332 0.23156,-0.6062 -1.8e-5,-0.8416 l -1.566061,-1.5609 1.555254,-1.55 c 0.23392,-0.2332 0.233914,-0.6085 1.7e-5,-0.8416 z"
       id="rect4043" />
  </g>
</svg>
