<?xml version="1.0" encoding="UTF-8" standalone="no"?>
<!-- Created with Inkscape (http://www.inkscape.org/) -->

<svg
   width="16"
   height="16"
   viewBox="0 0 1.3617021 1.3617021"
   version="1.1"
   id="SVGRoot"
   sodipodi:docname="eclipse16_new2.svg"
   inkscape:export-xdpi="96"
   inkscape:export-ydpi="96"
   inkscape:version="1.3.2 (091e20e, 2023-11-25, custom)"
   inkscape:export-filename="eclipse16_new.png"
   xmlns:inkscape="http://www.inkscape.org/namespaces/inkscape"
   xmlns:sodipodi="http://sodipodi.sourceforge.net/DTD/sodipodi-0.dtd"
   xmlns="http://www.w3.org/2000/svg"
   xmlns:svg="http://www.w3.org/2000/svg"
   xmlns:rdf="http://www.w3.org/1999/02/22-rdf-syntax-ns#"
   xmlns:cc="http://creativecommons.org/ns#"
   xmlns:dc="http://purl.org/dc/elements/1.1/">
  <defs
     id="defs1978">
    <linearGradient
       id="SVGID_1_"
       gradientUnits="userSpaceOnUse"
       x1="131.3853"
       y1="358.5762"
       x2="131.3853"
       y2="432.21109"
       gradientTransform="matrix(0.01023297,0,0,-0.01804017,-0.60403912,8.1487865)">
      <stop
         offset="0.3033"
         style="stop-color:#473788"
         id="stop32" />
      <stop
         offset="0.872"
         style="stop-color:#2C2255"
         id="stop34" />
    </linearGradient>
    <linearGradient
       id="SVGID_2_"
       gradientUnits="userSpaceOnUse"
       x1="131.3853"
       y1="358.5752"
       x2="131.3853"
       y2="432.21011"
       gradientTransform="matrix(0.01023314,0,0,-0.01804323,-0.60406428,8.1576624)">
      <stop
         offset="0.3033"
         style="stop-color:#473788"
         id="stop39" />
      <stop
         offset="0.872"
         style="stop-color:#2C2255"
         id="stop41" />
    </linearGradient>
    <linearGradient
       id="SVGID_3_"
       gradientUnits="userSpaceOnUse"
       x1="131.3853"
       y1="358.57709"
       x2="131.3853"
       y2="432.2084"
       gradientTransform="matrix(0.01130076,0,0,-0.01197951,-0.73931565,5.6424167)">
      <stop
         offset="0.3033"
         style="stop-color:#473788"
         id="stop46" />
      <stop
         offset="0.8631"
         style="stop-color:#2C2255"
         id="stop48" />
    </linearGradient>
    <linearGradient
       id="linearGradient4675"
       gradientUnits="userSpaceOnUse"
       x1="131.3853"
       y1="358.5762"
       x2="131.3853"
       y2="432.21109"
       gradientTransform="matrix(1,0,0,-1,0,793)">
      <stop
         offset="0.3033"
         style="stop-color:#473788"
         id="stop4671" />
      <stop
         offset="0.872"
         style="stop-color:#2C2255"
         id="stop4673" />
    </linearGradient>
    <linearGradient
       id="linearGradient4682"
       gradientUnits="userSpaceOnUse"
       x1="131.3853"
       y1="358.5752"
       x2="131.3853"
       y2="432.21011"
       gradientTransform="matrix(1,0,0,-1,0,793)">
      <stop
         offset="0.3033"
         style="stop-color:#473788"
         id="stop4678" />
      <stop
         offset="0.872"
         style="stop-color:#2C2255"
         id="stop4680" />
    </linearGradient>
    <linearGradient
       id="linearGradient4689"
       gradientUnits="userSpaceOnUse"
       x1="131.3853"
       y1="358.57709"
       x2="131.3853"
       y2="432.2084"
       gradientTransform="matrix(1,0,0,-1,0,793)">
      <stop
         offset="0.3033"
         style="stop-color:#473788"
         id="stop4685" />
      <stop
         offset="0.8631"
         style="stop-color:#2C2255"
         id="stop4687" />
    </linearGradient>
  </defs>
  <sodipodi:namedview
     id="base"
     pagecolor="#ffffff"
     bordercolor="#666666"
     borderopacity="1.0"
     inkscape:pageopacity="0.0"
     inkscape:pageshadow="2"
     inkscape:zoom="64"
     inkscape:cx="6.1015625"
     inkscape:cy="6.4921875"
     inkscape:document-units="px"
     inkscape:current-layer="layer1"
     showgrid="false"
     inkscape:window-width="2560"
     inkscape:window-height="1351"
     inkscape:window-x="-9"
     inkscape:window-y="-9"
     inkscape:window-maximized="1"
     inkscape:grid-bbox="true"
     showguides="false"
     inkscape:pagecheckerboard="0"
     inkscape:showpageshadow="0"
     inkscape:deskcolor="#505050">
    <inkscape:grid
       type="xygrid"
       id="grid2674"
       originx="0"
       originy="0"
       spacingy="1"
       spacingx="1"
       units="px"
       visible="false" />
  </sodipodi:namedview>
  <metadata
     id="metadata1981">
    <rdf:RDF>
      <cc:Work
         rdf:about="">
        <dc:format>image/svg+xml</dc:format>
        <dc:type
           rdf:resource="http://purl.org/dc/dcmitype/StillImage" />
      </cc:Work>
    </rdf:RDF>
  </metadata>
  <g
     inkscape:label="Layer 1"
     inkscape:groupmode="layer"
     id="layer1">
    <path
       inkscape:connector-curvature="0"
       style="fill:#2c2255;stroke-width:0.133163"
       d="M 0.40346119,0.84984676 H 0.21424145 c 0.0250542,0.0911041 0.0715448,0.17275664 0.13960955,0.24492124 0.10850978,0.1150391 0.23898823,0.1724809 0.39157083,0.1724809 0.0305008,0 0.0600526,-0.00242 0.0887563,-0.00699 C 0.94910676,1.2418648 1.0497284,1.186783 1.1359419,1.0947681 1.2044471,1.022627 1.2512661,0.94095104 1.2765119,0.84984685 H 1.1997235 1.0874392 Z"
       id="path2" />
    <path
       d="m 0.31488625,0.52129465 h -0.0951883 c -0.003482,0.0346732 -0.005855,0.0700679 -0.006932,0.10636491 h 0.11313324 0.0567517 0.81917131 0.074774 c -0.00109,-0.0362968 -0.00345,-0.0716917 -0.00697,-0.10636491"
       id="path4"
       inkscape:connector-curvature="0"
       style="fill:#2c2255;stroke-width:0.160359" />
    <path
       d="m 0.21276595,0.73404254 c 0.001078,0.0363211 0.003439,0.071722 0.006932,0.10638298 h 0.0989612 0.0750099 0.80144015 0.074498 c 0.0035,-0.034661 0.0059,-0.0700619 0.00699,-0.10638298"
       id="path6"
       inkscape:connector-curvature="0"
       style="fill:#2c2255;stroke-width:0.160371" />
    <path
       inkscape:connector-curvature="0"
       style="fill:#2c2255;stroke-width:0.133163"
       d="M 1.2765345,0.51180881 C 1.2513112,0.42045308 1.2044808,0.33841738 1.1359418,0.26574966 1.0499544,0.17459763 0.94961507,0.11991109 0.83505943,0.1015106 0.80608483,0.0968525 0.77623933,0.0944056 0.74542233,0.0944056 c -0.1525826,0 -0.28307238,0.05712998 -0.39157084,0.17134289 -0.0680866,0.0726676 -0.11460096,0.1547034 -0.13964335,0.24605915"
       id="path10" />
    <path
       d="m 0.16022485,0.68085105 c 0,-0.30935886 0.21917824,-0.56640322 0.50430771,-0.61161389 -0.007074,-2.7553e-4 -0.0141825,-5.7502e-4 -0.0213245,-5.7502e-4 -0.31996972,0 -0.57937867,0.2740912 -0.57937867,0.61218891 0,0.33810975 0.25939765,0.61218895 0.57937867,0.61218895 0.007165,0 0.0142729,-2.875e-4 0.0213697,-5.63e-4 C 0.37940309,1.2472663 0.16022485,0.9902219 0.16022485,0.68085105 Z"
       id="path12"
       inkscape:connector-curvature="0"
       style="fill:#f7941e;stroke-width:0.133164" />
    <path
       d="m 1.0808509,0.62764148 c -0.00167,-0.0364592 -0.00516,-0.0720164 -0.010356,-0.1063649 H 0.41036599 c -0.005199,0.0343305 -0.008688,0.0698876 -0.010366,0.1063649 z"
       id="path37"
       inkscape:connector-curvature="0"
       style="fill:url(#SVGID_1_);stroke-width:0.155501" />
    <path
       d="M 1.080851,0.73404254 H 0.39999999 c 0.001678,0.0364654 0.005147,0.0720286 0.010356,0.10638298 H 1.0705052 c 0.0052,-0.0343544 0.00866,-0.0699175 0.010346,-0.10638298 z"
       id="path44"
       inkscape:connector-curvature="0"
       style="fill:url(#SVGID_2_);stroke-width:0.155516" />
    <path
       d="m 0.745446,1.080823 c 0.15139629,0 0.2818975,-0.0945544 0.3419949,-0.23097701 H 0.4034511 C 0.46354855,0.98626865 0.59404972,1.080823 0.745446,1.080823 Z"
       id="path51"
       inkscape:connector-curvature="0"
       style="fill:url(#SVGID_3_);stroke-width:0.133164" />
    <path
       d="M 0.31377957,0.73404262 H 0.36897247 1.122801 1.22183 1.297059 c 5.198e-4,-0.0169211 8.137e-4,-0.0339587 8.137e-4,-0.0511128 0,-0.0185529 -3.956e-4,-0.0369504 -0.00101,-0.0552702 H 1.2218182 1.1227897 0.36896118 0.30986951 0.19307616 c -6.1025e-4,0.0183004 -0.001006,0.0367174 -0.001006,0.0552702 0,0.0171541 2.9382e-4,0.0341918 8.1365e-4,0.0511128 z"
       id="path55"
       inkscape:connector-curvature="0"
       style="fill:#ffffff;stroke-width:0.169579" />
    <path
       d="M 0.41118835,0.41489361 H 0.22623728 c -0.006079,0.0346386 -0.010001,0.0701709 -0.0137663,0.10638298 H 0.30772888 0.38884048 1.1115598 1.213913 1.287069 C 1.283299,0.48508389 1.278429,0.44955169 1.272363,0.41489361"
       id="path57"
       inkscape:connector-curvature="0"
       style="fill:#ffffff;stroke-width:0.168624" />
    <path
       d="M 1.2039679,0.83807476 H 1.1029543 0.38970525 0.31348185 0.21276595 c 0.003617,0.0369924 0.007731,0.0732901 0.0136302,0.10873373 H 0.41173854 1.080921 1.1907788 1.2623258 c 0.00588,-0.0354237 0.010641,-0.0717215 0.01427,-0.10873373 z"
       id="path59"
       inkscape:connector-curvature="0"
       style="fill:#ffffff;stroke-width:0.169359" />
  </g>
</svg>
