<?xml version="1.0" encoding="UTF-8" standalone="no"?>
<!-- Created with Inkscape (http://www.inkscape.org/) -->

<svg
   width="16"
   height="16"
   viewBox="0 0 1.3617021 1.3617021"
   version="1.1"
   id="SVGRoot"
   sodipodi:docname="eclipse16_new.svg"
   inkscape:export-xdpi="96"
   inkscape:export-ydpi="96"
   inkscape:version="1.3.2 (091e20e, 2023-11-25, custom)"
   inkscape:export-filename="eclipse16_new.png"
   xmlns:inkscape="http://www.inkscape.org/namespaces/inkscape"
   xmlns:sodipodi="http://sodipodi.sourceforge.net/DTD/sodipodi-0.dtd"
   xmlns="http://www.w3.org/2000/svg"
   xmlns:svg="http://www.w3.org/2000/svg"
   xmlns:rdf="http://www.w3.org/1999/02/22-rdf-syntax-ns#"
   xmlns:cc="http://creativecommons.org/ns#"
   xmlns:dc="http://purl.org/dc/elements/1.1/">
  <defs
     id="defs1978">
    <linearGradient
       id="SVGID_1_"
       gradientUnits="userSpaceOnUse"
       x1="131.3853"
       y1="358.5762"
       x2="131.3853"
       y2="432.21109"
       gradientTransform="matrix(0.0110565,0,0,-0.01443215,-0.70798348,6.6552053)">
      <stop
         offset="0.3033"
         style="stop-color:#473788"
         id="stop32" />
      <stop
         offset="0.872"
         style="stop-color:#2C2255"
         id="stop34" />
    </linearGradient>
    <linearGradient
       id="SVGID_2_"
       gradientUnits="userSpaceOnUse"
       x1="131.3853"
       y1="358.5752"
       x2="131.3853"
       y2="432.21011"
       gradientTransform="matrix(0.01105612,0,0,-0.01443459,-0.70795157,6.6623016)">
      <stop
         offset="0.3033"
         style="stop-color:#473788"
         id="stop39" />
      <stop
         offset="0.872"
         style="stop-color:#2C2255"
         id="stop41" />
    </linearGradient>
    <linearGradient
       id="SVGID_3_"
       gradientUnits="userSpaceOnUse"
       x1="131.3853"
       y1="358.57709"
       x2="131.3853"
       y2="432.2084"
       gradientTransform="matrix(0.01130076,0,0,-0.01197951,-0.73931565,5.6424167)">
      <stop
         offset="0.3033"
         style="stop-color:#473788"
         id="stop46" />
      <stop
         offset="0.8631"
         style="stop-color:#2C2255"
         id="stop48" />
    </linearGradient>
    <linearGradient
       id="linearGradient4675"
       gradientUnits="userSpaceOnUse"
       x1="131.3853"
       y1="358.5762"
       x2="131.3853"
       y2="432.21109"
       gradientTransform="matrix(1,0,0,-1,0,793)">
      <stop
         offset="0.3033"
         style="stop-color:#473788"
         id="stop4671" />
      <stop
         offset="0.872"
         style="stop-color:#2C2255"
         id="stop4673" />
    </linearGradient>
    <linearGradient
       id="linearGradient4682"
       gradientUnits="userSpaceOnUse"
       x1="131.3853"
       y1="358.5752"
       x2="131.3853"
       y2="432.21011"
       gradientTransform="matrix(1,0,0,-1,0,793)">
      <stop
         offset="0.3033"
         style="stop-color:#473788"
         id="stop4678" />
      <stop
         offset="0.872"
         style="stop-color:#2C2255"
         id="stop4680" />
    </linearGradient>
    <linearGradient
       id="linearGradient4689"
       gradientUnits="userSpaceOnUse"
       x1="131.3853"
       y1="358.57709"
       x2="131.3853"
       y2="432.2084"
       gradientTransform="matrix(1,0,0,-1,0,793)">
      <stop
         offset="0.3033"
         style="stop-color:#473788"
         id="stop4685" />
      <stop
         offset="0.8631"
         style="stop-color:#2C2255"
         id="stop4687" />
    </linearGradient>
  </defs>
  <sodipodi:namedview
     id="base"
     pagecolor="#ffffff"
     bordercolor="#666666"
     borderopacity="1.0"
     inkscape:pageopacity="0.0"
     inkscape:pageshadow="2"
     inkscape:zoom="64"
     inkscape:cx="5.9609375"
     inkscape:cy="6.1796875"
     inkscape:document-units="px"
     inkscape:current-layer="layer1"
     showgrid="false"
     inkscape:window-width="2560"
     inkscape:window-height="1351"
     inkscape:window-x="-9"
     inkscape:window-y="-9"
     inkscape:window-maximized="1"
     inkscape:grid-bbox="true"
     showguides="false"
     inkscape:pagecheckerboard="0"
     inkscape:showpageshadow="0"
     inkscape:deskcolor="#505050">
    <inkscape:grid
       type="xygrid"
       id="grid2674"
       originx="0"
       originy="0"
       spacingy="1"
       spacingx="1"
       units="px"
       visible="false" />
  </sodipodi:namedview>
  <metadata
     id="metadata1981">
    <rdf:RDF>
      <cc:Work
         rdf:about="">
        <dc:format>image/svg+xml</dc:format>
        <dc:type
           rdf:resource="http://purl.org/dc/dcmitype/StillImage" />
      </cc:Work>
    </rdf:RDF>
  </metadata>
  <g
     inkscape:label="Layer 1"
     inkscape:groupmode="layer"
     id="layer1">
    <path
       inkscape:connector-curvature="0"
       style="fill:#2c2255;stroke-width:0.133163"
       d="M 0.40346119,0.84984676 H 0.21424145 c 0.0250542,0.0911041 0.0715448,0.17275664 0.13960955,0.24492124 0.10850978,0.1150391 0.23898823,0.1724809 0.39157083,0.1724809 0.0305008,0 0.0600526,-0.00242 0.0887563,-0.00699 C 0.94910676,1.2418648 1.0497284,1.186783 1.1359419,1.0947681 1.2044471,1.022627 1.2512661,0.94095104 1.2765119,0.84984685 H 1.1997235 1.0874392 Z"
       id="path2" />
    <path
       d="m 0.30800961,0.55320594 h -0.0967113 c -0.003538,0.0277386 -0.005949,0.0560544 -0.007043,0.085092 h 0.1149434 0.0576597 0.83227819 0.07597 c -0.00111,-0.0290375 -0.00351,-0.0573534 -0.00708,-0.085092"
       id="path4"
       inkscape:connector-curvature="0"
       style="fill:#2c2255;stroke-width:0.144573" />
    <path
       d="m 0.20425531,0.72340424 c 0.001095,0.0290569 0.003494,0.0573776 0.007043,0.0851064 h 0.10054431 0.0762098 0.81426078 0.07569 c 0.00356,-0.0277288 0.00599,-0.0560495 0.0071,-0.0851064"
       id="path6"
       inkscape:connector-curvature="0"
       style="fill:#2c2255;stroke-width:0.144583" />
    <path
       inkscape:connector-curvature="0"
       style="fill:#2c2255;stroke-width:0.133163"
       d="M 1.2765345,0.51180881 C 1.2513112,0.42045308 1.2044808,0.33841738 1.1359418,0.26574966 1.0499544,0.17459763 0.94961507,0.11991109 0.83505943,0.1015106 0.80608483,0.0968525 0.77623933,0.0944056 0.74542233,0.0944056 c -0.1525826,0 -0.28307238,0.05712998 -0.39157084,0.17134289 -0.0680866,0.0726676 -0.11460096,0.1547034 -0.13964335,0.24605915"
       id="path10" />
    <path
       d="m 0.16022485,0.68085105 c 0,-0.30935886 0.21917824,-0.56640322 0.50430771,-0.61161389 -0.007074,-2.7553e-4 -0.0141825,-5.7502e-4 -0.0213245,-5.7502e-4 -0.31996972,0 -0.57937867,0.2740912 -0.57937867,0.61218891 0,0.33810975 0.25939765,0.61218895 0.57937867,0.61218895 0.007165,0 0.0142729,-2.875e-4 0.0213697,-5.63e-4 C 0.37940309,1.2472663 0.16022485,0.9902219 0.16022485,0.68085105 Z"
       id="path12"
       inkscape:connector-curvature="0"
       style="fill:#f7941e;stroke-width:0.133164" />
    <path
       d="m 1.1125028,0.63828348 c -0.00181,-0.0291674 -0.00558,-0.0576132 -0.011189,-0.085092 H 0.38805869 c -0.005617,0.0274644 -0.009387,0.0559101 -0.0112003,0.085092 z"
       id="path37"
       inkscape:connector-curvature="0"
       style="fill:url(#SVGID_1_);stroke-width:0.144573" />
    <path
       d="M 1.1124709,0.72340424 H 0.37686337 c 0.001813,0.0291723 0.005561,0.0576229 0.0111888,0.0851064 H 1.1012931 c 0.00562,-0.0274835 0.00936,-0.055934 0.011178,-0.0851064 z"
       id="path44"
       inkscape:connector-curvature="0"
       style="fill:url(#SVGID_2_);stroke-width:0.144583" />
    <path
       d="m 0.745446,1.080823 c 0.15139629,0 0.2818975,-0.0945544 0.3419949,-0.23097701 H 0.4034511 C 0.46354855,0.98626865 0.59404972,1.080823 0.745446,1.080823 Z"
       id="path51"
       inkscape:connector-curvature="0"
       style="fill:url(#SVGID_3_);stroke-width:0.133164" />
    <path
       d="M 0.31377957,0.72340424 H 0.36897247 1.122801 1.22183 1.297059 c 5.198e-4,-0.0135369 8.137e-4,-0.0271669 8.137e-4,-0.0408902 0,-0.0148423 -3.956e-4,-0.0295603 -0.00101,-0.0442161 H 1.2218182 1.1227897 0.36896118 0.30986951 0.19307616 c -6.1025e-4,0.0146403 -0.001006,0.0293739 -0.001006,0.0442161 0,0.0137233 2.9382e-4,0.0273534 8.1365e-4,0.0408902 z"
       id="path55"
       inkscape:connector-curvature="0"
       style="fill:#ffffff;stroke-width:0.151676" />
    <path
       d="M 0.40124746,0.4680851 H 0.21419728 c -0.006148,0.0277109 -0.0101142,0.0561367 -0.0139225,0.0851064 h 0.096339 0.0820322 0.73092182 0.103515 0.073986 C 1.2832488,0.5242373 1.2783288,0.4958116 1.2721968,0.4680851"
       id="path57"
       inkscape:connector-curvature="0"
       style="fill:#ffffff;stroke-width:0.151676" />
    <path
       d="M 1.2160096,0.80851062 H 1.1124947 0.38158413 0.30347328 0.20026344 c 0.003707,0.0289542 0.007922,0.0573645 0.0139677,0.0851064 h 0.18993187 0.68575279 0.1125781 0.073319 c 0.00603,-0.0277263 0.010905,-0.0561367 0.014623,-0.0851064 z"
       id="path59"
       inkscape:connector-curvature="0"
       style="fill:#ffffff;stroke-width:0.151676" />
  </g>
</svg>
