<?xml version="1.0" encoding="UTF-8" standalone="no"?>
<!-- Created with Inkscape (http://www.inkscape.org/) -->

<svg
   width="32"
   height="32"
   viewBox="0 0 2.7234042 2.7234042"
   version="1.1"
   id="SVGRoot"
   sodipodi:docname="eclipse32.svg"
   inkscape:export-xdpi="96"
   inkscape:export-ydpi="96"
   inkscape:version="1.3.2 (091e20e, 2023-11-25, custom)"
   inkscape:export-filename="eclipse32.png"
   xmlns:inkscape="http://www.inkscape.org/namespaces/inkscape"
   xmlns:sodipodi="http://sodipodi.sourceforge.net/DTD/sodipodi-0.dtd"
   xmlns="http://www.w3.org/2000/svg"
   xmlns:svg="http://www.w3.org/2000/svg"
   xmlns:rdf="http://www.w3.org/1999/02/22-rdf-syntax-ns#"
   xmlns:cc="http://creativecommons.org/ns#"
   xmlns:dc="http://purl.org/dc/elements/1.1/">
  <defs
     id="defs1978">
    <linearGradient
       id="SVGID_1_"
       gradientUnits="userSpaceOnUse"
       x1="131.3853"
       y1="358.5762"
       x2="131.3853"
       y2="432.21109"
       gradientTransform="matrix(0.02211299,0,0,-0.02886428,-1.4031993,13.310403)">
      <stop
         offset="0.3033"
         style="stop-color:#473788"
         id="stop32" />
      <stop
         offset="0.872"
         style="stop-color:#2C2255"
         id="stop34" />
    </linearGradient>
    <linearGradient
       id="SVGID_2_"
       gradientUnits="userSpaceOnUse"
       x1="131.3853"
       y1="358.5752"
       x2="131.3853"
       y2="432.21011"
       gradientTransform="matrix(0.02211223,0,0,-0.02886914,-1.4031355,13.324595)">
      <stop
         offset="0.3033"
         style="stop-color:#473788"
         id="stop39" />
      <stop
         offset="0.872"
         style="stop-color:#2C2255"
         id="stop41" />
    </linearGradient>
    <linearGradient
       id="SVGID_3_"
       gradientUnits="userSpaceOnUse"
       x1="131.3853"
       y1="358.57709"
       x2="131.3853"
       y2="432.2084"
       gradientTransform="matrix(0.02260151,0,0,-0.02136521,-1.4658636,10.249574)">
      <stop
         offset="0.3033"
         style="stop-color:#473788"
         id="stop46" />
      <stop
         offset="0.8631"
         style="stop-color:#2C2255"
         id="stop48" />
    </linearGradient>
    <linearGradient
       id="linearGradient4675"
       gradientUnits="userSpaceOnUse"
       x1="131.3853"
       y1="358.5762"
       x2="131.3853"
       y2="432.21109"
       gradientTransform="matrix(1,0,0,-1,0,793)">
      <stop
         offset="0.3033"
         style="stop-color:#473788"
         id="stop4671" />
      <stop
         offset="0.872"
         style="stop-color:#2C2255"
         id="stop4673" />
    </linearGradient>
    <linearGradient
       id="linearGradient4682"
       gradientUnits="userSpaceOnUse"
       x1="131.3853"
       y1="358.5752"
       x2="131.3853"
       y2="432.21011"
       gradientTransform="matrix(1,0,0,-1,0,793)">
      <stop
         offset="0.3033"
         style="stop-color:#473788"
         id="stop4678" />
      <stop
         offset="0.872"
         style="stop-color:#2C2255"
         id="stop4680" />
    </linearGradient>
    <linearGradient
       id="linearGradient4689"
       gradientUnits="userSpaceOnUse"
       x1="131.3853"
       y1="358.57709"
       x2="131.3853"
       y2="432.2084"
       gradientTransform="matrix(1,0,0,-1,0,793)">
      <stop
         offset="0.3033"
         style="stop-color:#473788"
         id="stop4685" />
      <stop
         offset="0.8631"
         style="stop-color:#2C2255"
         id="stop4687" />
    </linearGradient>
  </defs>
  <sodipodi:namedview
     id="base"
     pagecolor="#ffffff"
     bordercolor="#666666"
     borderopacity="1.0"
     inkscape:pageopacity="0.0"
     inkscape:pageshadow="2"
     inkscape:zoom="11.313709"
     inkscape:cx="16.749591"
     inkscape:cy="11.181125"
     inkscape:document-units="px"
     inkscape:current-layer="layer1"
     showgrid="true"
     inkscape:window-width="1920"
     inkscape:window-height="991"
     inkscape:window-x="-9"
     inkscape:window-y="-9"
     inkscape:window-maximized="1"
     inkscape:grid-bbox="true"
     showguides="false"
     inkscape:pagecheckerboard="0"
     inkscape:showpageshadow="0"
     inkscape:deskcolor="#505050">
    <inkscape:grid
       type="xygrid"
       id="grid2674"
       originx="0"
       originy="0"
       spacingy="1"
       spacingx="1"
       units="px"
       visible="true" />
  </sodipodi:namedview>
  <metadata
     id="metadata1981">
    <rdf:RDF>
      <cc:Work
         rdf:about="">
        <dc:format>image/svg+xml</dc:format>
        <dc:type
           rdf:resource="http://purl.org/dc/dcmitype/StillImage" />
      </cc:Work>
    </rdf:RDF>
  </metadata>
  <g
     inkscape:label="Layer 1"
     inkscape:groupmode="layer"
     id="layer1">
    <path
       inkscape:connector-curvature="0"
       style="fill:#2c2255;stroke-width:0.133163"
       d="M 0.8290928,1.7021281 H 0.4562943 C 0.5056557,1.8646102 0.59725123,2.0102357 0.73135137,2.13894 0.94513605,2.3441095 1.2022032,2.4465559 1.5028196,2.4465559 c 0.060092,0 0.1183147,-0.0043 0.1748667,-0.01248 C 1.9041172,2.4012859 2.1023605,2.303046 2.2722174,2.1389402 2.4071856,2.0102763 2.4994281,1.8646106 2.5491671,1.7021282 H 2.3978798 2.1766583 Z"
       id="path2" />
    <path
       d="m 0.62878571,1.1063823 h -0.1934225 c -0.007076,0.055477 -0.011898,0.1121088 -0.014086,0.1701839 H 0.6511639 0.76648323 2.4310388 2.5829787 c -0.00222,-0.058075 -0.00702,-0.1147067 -0.01416,-0.1701839"
       id="path4"
       inkscape:connector-curvature="0"
       style="fill:#2c2255;stroke-width:0.144573" />
    <path
       d="m 0.42127722,1.4468076 c 0.00219,0.058114 0.006988,0.1147552 0.014086,0.1702125 H 0.63645172 0.78887124 2.417392 2.5687719 c 0.00712,-0.055458 0.01198,-0.1120989 0.0142,-0.1702125"
       id="path6"
       inkscape:connector-curvature="0"
       style="fill:#2c2255;stroke-width:0.144583" />
    <path
       inkscape:connector-curvature="0"
       style="fill:#2c2255;stroke-width:0.133163"
       d="M 2.5337307,0.99982932 C 2.4840461,0.83688047 2.3918008,0.69055553 2.2567941,0.56094 2.0874179,0.39835447 1.8897717,0.30081153 1.6641225,0.26799105 c -0.057074,-0.008308 -0.1158628,-0.012672 -0.1765653,-0.012672 -0.3005539,0 -0.55758996,0.10190115 -0.7713079,0.30561987 -0.13411553,0.12961533 -0.22573852,0.27594043 -0.27506647,0.4388893"
       id="path10" />
    <path
       d="M 0.76238233,0.93616972 H 0.38153906 c -0.012518,0.055422 -0.020593,0.11227328 -0.028347,0.17021248 H 0.54934317 0.71636468 2.2045571 2.4153188 2.5659567 c -0.00778,-0.057908 -0.0178,-0.11475968 -0.03028,-0.17021248"
       id="path57"
       inkscape:connector-curvature="0"
       style="fill:#ffffff;stroke-width:0.151676" />
    <path
       d="M 2.2377713,1.2765662 C 2.2341513,1.2182316 2.2266113,1.1613399 2.2153933,1.1063823 H 0.78888378 c -0.011234,0.054929 -0.018774,0.1118201 -0.0224006,0.1701839 z"
       id="path37"
       inkscape:connector-curvature="0"
       style="fill:url(#SVGID_1_);stroke-width:0.144573" />
    <path
       d="M 2.2377075,1.4468076 H 0.76649315 c 0.003626,0.058345 0.011122,0.1152458 0.0223776,0.1702125 H 2.2153519 c 0.01124,-0.054967 0.01872,-0.1118679 0.022356,-0.1702125 z"
       id="path44"
       inkscape:connector-curvature="0"
       style="fill:url(#SVGID_2_);stroke-width:0.144583" />
    <path
       d="m 1.503658,2.1140691 c 0.3027925,0 0.5637948,-0.1686359 0.6839895,-0.4119424 H 0.81966858 C 0.93986352,1.9454336 1.2008657,2.1140691 1.503658,2.1140691 Z"
       id="path51"
       inkscape:connector-curvature="0"
       style="fill:url(#SVGID_3_);stroke-width:0.133164" />
    <path
       d="M 0.59673863,1.4468074 H 0.70718236 2.2156299 2.4137918 2.5643277 c 0.00104,-0.027074 0.00163,-0.054334 0.00163,-0.08178 0,-0.029685 -7.916e-4,-0.059121 -0.00202,-0.088432 H 2.4137682 2.2156073 0.7071597 0.58891441 0.35520522 c -0.001221,0.029281 -0.002014,0.058748 -0.002014,0.088432 0,0.027447 5.8796e-4,0.054707 0.001628,0.08178 z"
       id="path55"
       inkscape:connector-curvature="0"
       style="fill:#ffffff;stroke-width:0.151676" />
    <path
       d="M 2.414891,1.6170203 H 2.2047829 0.72122572 0.56268112 0.35319216 c 0.007524,0.057908 0.01608,0.1147289 0.0283508,0.1702127 H 0.76705493 2.1589537 2.3874578 2.5362757 c 0.01224,-0.055453 0.022134,-0.1122734 0.02968,-0.1702127 z"
       id="path59"
       inkscape:connector-curvature="0"
       style="fill:#ffffff;stroke-width:0.151676" />
    <path
       d="m 0.33321635,1.3466565 c 0,-0.59449504 0.43835624,-1.08845737 1.00861495,-1.17533874 -0.014148,-5.295e-4 -0.028365,-0.001105 -0.042649,-0.001105 -0.63993915,0 -1.15875676,0.52672127 -1.15875676,1.17644374 0,0.649746 0.51879501,1.1764441 1.15875676,1.1764441 0.01433,0 0.028546,-5.524e-4 0.042739,-0.00108 C 0.77157259,2.4351371 0.33321635,1.9411748 0.33321635,1.3466565 Z"
       id="path12"
       inkscape:connector-curvature="0"
       style="fill:#f7941e;stroke-width:0.133164" />
  </g>
</svg>
