<?xml version="1.0" encoding="UTF-8" standalone="no"?>
<!-- Created with Inkscape (http://www.inkscape.org/) -->

<svg
   width="16"
   height="16"
   viewBox="0 0 1.3617021 1.3617021"
   version="1.1"
   id="SVGRoot"
   sodipodi:docname="eclipse16.svg"
   inkscape:export-xdpi="96"
   inkscape:export-ydpi="96"
   inkscape:version="1.3 (0e150ed, 2023-07-21)"
   inkscape:export-filename="eclipse16.png"
   xmlns:inkscape="http://www.inkscape.org/namespaces/inkscape"
   xmlns:sodipodi="http://sodipodi.sourceforge.net/DTD/sodipodi-0.dtd"
   xmlns="http://www.w3.org/2000/svg"
   xmlns:svg="http://www.w3.org/2000/svg"
   xmlns:rdf="http://www.w3.org/1999/02/22-rdf-syntax-ns#"
   xmlns:cc="http://creativecommons.org/ns#"
   xmlns:dc="http://purl.org/dc/elements/1.1/">
  <defs
     id="defs1978">
    <linearGradient
       id="SVGID_1_"
       gradientUnits="userSpaceOnUse"
       x1="131.3853"
       y1="358.5762"
       x2="131.3853"
       y2="432.21109"
       gradientTransform="matrix(0.0110565,0,0,-0.01443215,-0.70160043,6.6977577)">
      <stop
         offset="0.3033"
         style="stop-color:#473788"
         id="stop32" />
      <stop
         offset="0.872"
         style="stop-color:#2C2255"
         id="stop34" />
    </linearGradient>
    <linearGradient
       id="SVGID_2_"
       gradientUnits="userSpaceOnUse"
       x1="131.3853"
       y1="358.5752"
       x2="131.3853"
       y2="432.21011"
       gradientTransform="matrix(0.01105612,0,0,-0.01443458,-0.70156852,6.704854)">
      <stop
         offset="0.3033"
         style="stop-color:#473788"
         id="stop39" />
      <stop
         offset="0.872"
         style="stop-color:#2C2255"
         id="stop41" />
    </linearGradient>
    <linearGradient
       id="SVGID_3_"
       gradientUnits="userSpaceOnUse"
       x1="131.3853"
       y1="358.57709"
       x2="131.3853"
       y2="432.2084"
       gradientTransform="matrix(0.01130076,0,0,-0.01068261,-0.7329326,5.1673425)">
      <stop
         offset="0.3033"
         style="stop-color:#473788"
         id="stop46" />
      <stop
         offset="0.8631"
         style="stop-color:#2C2255"
         id="stop48" />
    </linearGradient>
  </defs>
  <sodipodi:namedview
     id="base"
     pagecolor="#828282"
     bordercolor="#666666"
     borderopacity="1.0"
     inkscape:pageopacity="0.0"
     inkscape:pageshadow="2"
     inkscape:zoom="49.995668"
     inkscape:cx="8.4407313"
     inkscape:cy="7.1806221"
     inkscape:document-units="px"
     inkscape:current-layer="layer1"
     showgrid="true"
     inkscape:window-width="1920"
     inkscape:window-height="1027"
     inkscape:window-x="0"
     inkscape:window-y="25"
     inkscape:window-maximized="1"
     inkscape:grid-bbox="true"
     showguides="false"
     inkscape:pagecheckerboard="0"
     inkscape:showpageshadow="0"
     inkscape:deskcolor="#505050">
    <inkscape:grid
       type="xygrid"
       id="grid2674"
       originx="0"
       originy="0"
       spacingy="1"
       spacingx="1"
       units="px"
       visible="true" />
  </sodipodi:namedview>
  <metadata
     id="metadata1981">
    <rdf:RDF>
      <cc:Work
         rdf:about="">
        <dc:format>image/svg+xml</dc:format>
        <dc:type
           rdf:resource="http://purl.org/dc/dcmitype/StillImage" />
      </cc:Work>
    </rdf:RDF>
  </metadata>
  <g
     inkscape:label="Layer 1"
     inkscape:groupmode="layer"
     id="layer1">
    <path
       d="m 0.31439266,0.59574465 h -0.0967113 c -0.003538,0.0277386 -0.005949,0.0560544 -0.007043,0.085092 h 0.1149434 0.0576597 0.83227824 0.07597 c -0.00111,-0.0290374 -0.00351,-0.0573534 -0.00708,-0.085092"
       id="path4"
       inkscape:connector-curvature="0"
       style="fill:#2c2255;stroke-width:0.144573" />
    <path
       d="m 0.21063836,0.7659574 c 0.001095,0.0290569 0.003494,0.0573776 0.007043,0.0851063 h 0.10054431 0.0762098 0.81426083 0.07569 c 0.00356,-0.0277288 0.00599,-0.0560495 0.0071,-0.0851063"
       id="path6"
       inkscape:connector-curvature="0"
       style="fill:#2c2255;stroke-width:0.144583" />
    <path
       inkscape:connector-curvature="0"
       style="fill:#2c2255;stroke-width:0.133163"
       d="M 0.41454626,0.89361769 H 0.22814691 c 0.0246807,0.0812411 0.0704785,0.15405391 0.13752861,0.21840611 0.1068924,0.1025848 0.23542602,0.153808 0.38573431,0.153808 0.0300462,0 0.0591574,-0.00215 0.0874334,-0.00624 C 0.95205875,1.2431968 1.0511805,1.1940768 1.136109,1.1120239 1.2035931,1.0476919 1.2497144,0.97485901 1.2745839,0.89361777 H 1.1989402 1.0883294 Z"
       id="path2" />
    <path
       inkscape:connector-curvature="0"
       style="fill:#2c2255;stroke-width:0.133163"
       d="M 1.2668657,0.54246809 C 1.2420234,0.46099363 1.1959007,0.38783112 1.1283973,0.32302332 1.0437092,0.24173051 0.94488598,0.19295901 0.83206131,0.17654876 c -0.0285368,-0.004154 -0.0579314,-0.006336 -0.0882827,-0.006336 -0.15027704,0 -0.2787951,0.0509506 -0.38565413,0.15281002 -0.0670578,0.0648077 -0.11286932,0.13797029 -0.13753331,0.21944478"
       id="path10" />
    <path
       d="M 0.41865313,0.51063829 H 0.2361419 c -0.005999,0.0277109 -0.009869,0.0561367 -0.0135847,0.0851063 h 0.0940013 0.0800416 0.7131853 0.1010032 0.07219 c -0.00373,-0.0289542 -0.00853,-0.0573799 -0.014511,-0.0851063"
       id="path57"
       inkscape:connector-curvature="0"
       style="fill:#ffffff;stroke-width:0.148492" />
    <path
       d="m 1.1188859,0.68083664 c -0.00181,-0.0291673 -0.00558,-0.0576132 -0.011189,-0.085092 H 0.39444174 c -0.005617,0.0274644 -0.009387,0.0559101 -0.0112003,0.085092 z"
       id="path37"
       inkscape:connector-curvature="0"
       style="fill:url(#SVGID_1_);stroke-width:0.144573" />
    <path
       d="M 1.118854,0.7659574 H 0.38324642 c 0.001813,0.0291723 0.005561,0.0576229 0.0111888,0.0851063 H 1.1076762 c 0.00562,-0.0274835 0.00936,-0.055934 0.011178,-0.0851063 z"
       id="path44"
       inkscape:connector-curvature="0"
       style="fill:url(#SVGID_2_);stroke-width:0.144583" />
    <path
       d="m 0.75182905,1.0995883 c 0.15139629,0 0.28189755,-0.084318 0.34199495,-0.2059713 H 0.40983415 c 0.0600975,0.1216535 0.19059862,0.2059713 0.3419949,0.2059713 z"
       id="path51"
       inkscape:connector-curvature="0"
       style="fill:url(#SVGID_3_);stroke-width:0.133164" />
    <path
       d="m 0.32109283,0.76595731 h 0.0539474 0.73681757 0.096794 0.073531 c 5.081e-4,-0.0135369 7.953e-4,-0.0271669 7.953e-4,-0.0408902 0,-0.0148423 -3.867e-4,-0.0295603 -9.867e-4,-0.044216 H 1.2086406 1.1118467 0.3750292 0.31727101 0.20311323 c -5.9648e-4,0.0146403 -9.8376e-4,0.0293739 -9.8376e-4,0.044216 0,0.0137233 2.8719e-4,0.0273534 7.9529e-4,0.0408902 z"
       id="path55"
       inkscape:connector-curvature="0"
       style="fill:#ffffff;stroke-width:0.149916" />
    <path
       d="m 1.2019969,0.85106376 h -0.098427 -0.69498572 -0.0742716 -0.098137 c 0.003524,0.0289542 0.007533,0.0573645 0.0132811,0.0851064 h 0.18059658 0.65204764 0.1070448 0.069715 c 0.00573,-0.0277263 0.010369,-0.0561367 0.013904,-0.0851064 z"
       id="path59"
       inkscape:connector-curvature="0"
       style="fill:#ffffff;stroke-width:0.146814" />
    <path
       d="m 0.1666079,0.71588183 c 0,-0.29724773 0.21917824,-0.54422903 0.50430771,-0.58766974 -0.007074,-2.6475e-4 -0.0141825,-5.5252e-4 -0.0213245,-5.5252e-4 -0.31996972,0 -0.57937867,0.26336078 -0.57937867,0.58822226 0,0.32487317 0.25939765,0.58822237 0.57937867,0.58822237 0.007165,0 0.0142729,-2.762e-4 0.0213697,-5.409e-4 C 0.38578614,1.2601224 0.1666079,1.0131411 0.1666079,0.71588183 Z"
       id="path12"
       inkscape:connector-curvature="0"
       style="fill:#f7941e;stroke-width:0.133164" />
    <ellipse
       style="fill:none;fill-rule:evenodd;stroke:#000000;stroke-width:0.0362633;stroke-linecap:square;stroke-miterlimit:3;stroke-opacity:0.921569"
       id="path1"
       cx="0.74907404"
       cy="0.71443456"
       rx="0.54395574"
       ry="0.54395568" />
  </g>
</svg>
