<?xml version="1.0" encoding="UTF-8" standalone="no"?>
<!-- Created with Inkscape (http://www.inkscape.org/) -->

<svg
   width="32"
   height="32"
   viewBox="0 0 2.7234042 2.7234042"
   version="1.1"
   id="SVGRoot"
   sodipodi:docname="eclipse32.svg"
   inkscape:export-xdpi="192"
   inkscape:export-ydpi="192"
   inkscape:version="1.3.2 (091e20e, 2023-11-25, custom)"
   xmlns:inkscape="http://www.inkscape.org/namespaces/inkscape"
   xmlns:sodipodi="http://sodipodi.sourceforge.net/DTD/sodipodi-0.dtd"
   xmlns="http://www.w3.org/2000/svg"
   xmlns:svg="http://www.w3.org/2000/svg"
   xmlns:rdf="http://www.w3.org/1999/02/22-rdf-syntax-ns#"
   xmlns:cc="http://creativecommons.org/ns#"
   xmlns:dc="http://purl.org/dc/elements/1.1/">
  <defs
     id="defs1978">
    <linearGradient
       id="SVGID_1_"
       gradientUnits="userSpaceOnUse"
       x1="131.3853"
       y1="358.5762"
       x2="131.3853"
       y2="432.21109"
       gradientTransform="matrix(0.02260151,0,0,-0.023959,-1.5424596,11.216164)">
      <stop
         offset="0.3033"
         style="stop-color:#473788"
         id="stop32" />
      <stop
         offset="0.872"
         style="stop-color:#2C2255"
         id="stop34" />
    </linearGradient>
    <linearGradient
       id="SVGID_2_"
       gradientUnits="userSpaceOnUse"
       x1="131.3853"
       y1="358.5752"
       x2="131.3853"
       y2="432.21011"
       gradientTransform="matrix(0.02260151,0,0,-0.023959,-1.5424596,11.216164)">
      <stop
         offset="0.3033"
         style="stop-color:#473788"
         id="stop39" />
      <stop
         offset="0.872"
         style="stop-color:#2C2255"
         id="stop41" />
    </linearGradient>
    <linearGradient
       id="SVGID_3_"
       gradientUnits="userSpaceOnUse"
       x1="131.3853"
       y1="358.57709"
       x2="131.3853"
       y2="432.2084"
       gradientTransform="matrix(0.02260151,0,0,-0.023959,-1.5424596,11.216164)">
      <stop
         offset="0.3033"
         style="stop-color:#473788"
         id="stop46" />
      <stop
         offset="0.8631"
         style="stop-color:#2C2255"
         id="stop48" />
    </linearGradient>
    <linearGradient
       id="linearGradient4675"
       gradientUnits="userSpaceOnUse"
       x1="131.3853"
       y1="358.5762"
       x2="131.3853"
       y2="432.21109"
       gradientTransform="matrix(1,0,0,-1,0,793)">
      <stop
         offset="0.3033"
         style="stop-color:#473788"
         id="stop4671" />
      <stop
         offset="0.872"
         style="stop-color:#2C2255"
         id="stop4673" />
    </linearGradient>
    <linearGradient
       id="linearGradient4682"
       gradientUnits="userSpaceOnUse"
       x1="131.3853"
       y1="358.5752"
       x2="131.3853"
       y2="432.21011"
       gradientTransform="matrix(1,0,0,-1,0,793)">
      <stop
         offset="0.3033"
         style="stop-color:#473788"
         id="stop4678" />
      <stop
         offset="0.872"
         style="stop-color:#2C2255"
         id="stop4680" />
    </linearGradient>
    <linearGradient
       id="linearGradient4689"
       gradientUnits="userSpaceOnUse"
       x1="131.3853"
       y1="358.57709"
       x2="131.3853"
       y2="432.2084"
       gradientTransform="matrix(1,0,0,-1,0,793)">
      <stop
         offset="0.3033"
         style="stop-color:#473788"
         id="stop4685" />
      <stop
         offset="0.8631"
         style="stop-color:#2C2255"
         id="stop4687" />
    </linearGradient>
  </defs>
  <sodipodi:namedview
     id="base"
     pagecolor="#ffffff"
     bordercolor="#666666"
     borderopacity="1.0"
     inkscape:pageopacity="0.0"
     inkscape:pageshadow="2"
     inkscape:zoom="16"
     inkscape:cx="28.90625"
     inkscape:cy="20.46875"
     inkscape:document-units="px"
     inkscape:current-layer="layer1"
     showgrid="false"
     inkscape:window-width="2560"
     inkscape:window-height="1351"
     inkscape:window-x="-9"
     inkscape:window-y="-9"
     inkscape:window-maximized="1"
     inkscape:grid-bbox="true"
     showguides="false"
     inkscape:pagecheckerboard="0"
     inkscape:showpageshadow="0"
     inkscape:deskcolor="#505050">
    <inkscape:grid
       type="xygrid"
       id="grid2674"
       originx="0"
       originy="0"
       spacingy="1"
       spacingx="1"
       units="px"
       visible="false" />
  </sodipodi:namedview>
  <metadata
     id="metadata1981">
    <rdf:RDF>
      <cc:Work
         rdf:about="">
        <dc:format>image/svg+xml</dc:format>
        <dc:type
           rdf:resource="http://purl.org/dc/dcmitype/StillImage" />
      </cc:Work>
    </rdf:RDF>
  </metadata>
  <g
     inkscape:label="Layer 1"
     inkscape:groupmode="layer"
     id="layer1">
    <g
       id="g1"
       transform="translate(0.0638289,0.06866286)">
      <path
         inkscape:connector-curvature="0"
         style="fill:#2c2255;stroke-width:0.266326"
         d="M 0.74309256,1.6310304 H 0.36465332 c 0.0501084,0.1822081 0.14308951,0.3455131 0.27921892,0.4898422 0.21701942,0.230078 0.47797616,0.3449615 0.78314116,0.3449615 0.061002,0 0.1201051,-0.00484 0.1775125,-0.01398 C 1.834383,2.415066 2.0356262,2.3049024 2.2080531,2.1208728 2.3450634,1.9765907 2.4387013,1.8132388 2.4891929,1.6310306 H 2.3356162 2.1110477 Z"
         id="path2" />
      <path
         d="M 0.53441529,1.0861532 H 0.33671982 c -0.007232,0.046049 -0.01216,0.093057 -0.014398,0.1412623 H 0.55728708 0.675154 2.3764823 2.5317782 c -0.00226,-0.048206 -0.00718,-0.095213 -0.01448,-0.1412623"
         id="path4"
         inkscape:connector-curvature="0"
         style="fill:#2c2255;stroke-width:0.266328" />
      <path
         d="m 0.32232277,1.358591 c 0.002238,0.04823 0.007142,0.095237 0.014398,0.1412623 h 0.20553809 0.1557921 1.66455584 0.1547299 c 0.00728,-0.046025 0.01224,-0.093033 0.01452,-0.1412623"
         id="path6"
         inkscape:connector-curvature="0"
         style="fill:#2c2255;stroke-width:0.266328" />
      <path
         inkscape:connector-curvature="0"
         style="fill:#2c2255;stroke-width:0.266326"
         d="M 2.4892381,0.95495492 C 2.4387915,0.77224357 2.3451308,0.60817228 2.2080529,0.46283693 2.0360782,0.28053299 1.8353996,0.17115998 1.6062885,0.13435902 c -0.057949,-0.009316 -0.1176401,-0.01421 -0.1792741,-0.01421 -0.305165,0 -0.56614439,0.11425988 -0.78314118,0.34268556 C 0.50770011,0.6081697 0.41467145,0.77224119 0.3645867,0.95495258"
         id="path10" />
      <path
         d="m 0.25662019,1.2930392 c 0,-0.61871734 0.4383562,-1.13280574 1.00861481,-1.22322702 -0.014148,-5.5106e-4 -0.028365,-0.00115 -0.042649,-0.00115 -0.63993904,0 -1.15875661,0.54818205 -1.15875661,1.22437702 0,0.6762191 0.51879497,1.2243771 1.15875661,1.2243771 0.01433,0 0.028546,-5.75e-4 0.042739,-0.00113 C 0.69497639,2.425869 0.25662019,1.9117805 0.25662019,1.2930392 Z"
         id="path12"
         inkscape:connector-curvature="0"
         style="fill:#f7941e;stroke-width:0.266328" />
      <path
         d="m 2.1789461,1.2273915 c -0.0037,-0.048421 -0.0114,-0.095644 -0.022872,-0.1412623 H 0.69805019 c -0.011482,0.045594 -0.019188,0.092817 -0.0228954,0.1412623 z"
         id="path37"
         inkscape:connector-curvature="0"
         style="fill:url(#SVGID_1_);stroke-width:0.266328" />
      <path
         d="M 2.1789461,1.358591 H 0.67517746 c 0.003706,0.048421 0.011368,0.095644 0.0228728,0.1412623 H 2.1560959 c 0.01148,-0.045618 0.01914,-0.092841 0.02285,-0.1412623 z"
         id="path44"
         inkscape:connector-curvature="0"
         style="fill:url(#SVGID_2_);stroke-width:0.266328" />
      <path
         d="m 1.4270617,2.0929826 c 0.3027924,0 0.5637947,-0.1891087 0.6839894,-0.4619537 H 0.74307238 C 0.8632672,1.903874 1.1242694,2.0929826 1.4270617,2.0929826 Z"
         id="path51"
         inkscape:connector-curvature="0"
         style="fill:url(#SVGID_3_);stroke-width:0.266328" />
      <path
         d="M 0.56372943,1.358591 H 0.67411516 2.1817713 2.3798291 2.530287 c 0.00104,-0.020868 0.00163,-0.04188 0.00163,-0.063036 0,-0.022881 -7.912e-4,-0.04557 -0.00202,-0.068163 H 2.3798055 2.1817487 0.67409258 0.55590932 0.32232277 c -0.00122,0.022569 -0.002012,0.045283 -0.002012,0.068163 0,0.021156 5.8764e-4,0.042168 0.001627,0.063036 z"
         id="path55"
         inkscape:connector-curvature="0"
         style="fill:#ffffff;stroke-width:0.266328" />
      <path
         d="M 0.7386651,0.95495366 H 0.36456498 C 0.35226899,0.99767263 0.34433659,1.0414936 0.33672,1.0861532 H 0.52939788 0.69346217 2.1553049 2.3623348 2.5103067 c -0.00764,-0.044636 -0.01748,-0.0884566 -0.029744,-0.13119954"
         id="path57"
         inkscape:connector-curvature="0"
         style="fill:#ffffff;stroke-width:0.266328" />
      <path
         d="M 2.3681883,1.4998294 H 2.1611587 0.69933847 0.54311687 0.33669732 c 0.007414,0.044635 0.015844,0.088433 0.0279354,0.1311995 H 0.7444962 2.1160009 2.341157 2.4877949 c 0.01206,-0.042743 0.02181,-0.08654 0.029246,-0.1311995 z"
         id="path59"
         inkscape:connector-curvature="0"
         style="fill:#ffffff;stroke-width:0.266328" />
    </g>
  </g>
</svg>
