<?xml version="1.0" encoding="UTF-8" standalone="no"?>
<!-- Created with Inkscape (http://www.inkscape.org/) -->

<svg
   width="32"
   height="32"
   viewBox="0 0 2.7234042 2.7234042"
   version="1.1"
   id="SVGRoot"
   sodipodi:docname="eclipse32_new2.svg"
   inkscape:export-xdpi="96"
   inkscape:export-ydpi="96"
   inkscape:version="1.3.2 (091e20e, 2023-11-25, custom)"
   inkscape:export-filename="eclipse16_new.png"
   xmlns:inkscape="http://www.inkscape.org/namespaces/inkscape"
   xmlns:sodipodi="http://sodipodi.sourceforge.net/DTD/sodipodi-0.dtd"
   xmlns="http://www.w3.org/2000/svg"
   xmlns:svg="http://www.w3.org/2000/svg"
   xmlns:rdf="http://www.w3.org/1999/02/22-rdf-syntax-ns#"
   xmlns:cc="http://creativecommons.org/ns#"
   xmlns:dc="http://purl.org/dc/elements/1.1/">
  <defs
     id="defs1978">
    <linearGradient
       id="SVGID_1_"
       gradientUnits="userSpaceOnUse"
       x1="131.3853"
       y1="358.5762"
       x2="131.3853"
       y2="432.21109"
       gradientTransform="matrix(0.02046593,0,0,-0.03608032,-1.2719068,16.2289)">
      <stop
         offset="0.3033"
         style="stop-color:#473788"
         id="stop32" />
      <stop
         offset="0.872"
         style="stop-color:#2C2255"
         id="stop34" />
    </linearGradient>
    <linearGradient
       id="SVGID_2_"
       gradientUnits="userSpaceOnUse"
       x1="131.3853"
       y1="358.5752"
       x2="131.3853"
       y2="432.21011"
       gradientTransform="matrix(0.02046627,0,0,-0.03608644,-1.2719571,16.246652)">
      <stop
         offset="0.3033"
         style="stop-color:#473788"
         id="stop39" />
      <stop
         offset="0.872"
         style="stop-color:#2C2255"
         id="stop41" />
    </linearGradient>
    <linearGradient
       id="SVGID_3_"
       gradientUnits="userSpaceOnUse"
       x1="131.3853"
       y1="358.57709"
       x2="131.3853"
       y2="432.2084"
       gradientTransform="matrix(0.02260151,0,0,-0.023959,-1.5424596,11.216164)">
      <stop
         offset="0.3033"
         style="stop-color:#473788"
         id="stop46" />
      <stop
         offset="0.8631"
         style="stop-color:#2C2255"
         id="stop48" />
    </linearGradient>
    <linearGradient
       id="linearGradient4675"
       gradientUnits="userSpaceOnUse"
       x1="131.3853"
       y1="358.5762"
       x2="131.3853"
       y2="432.21109"
       gradientTransform="matrix(1,0,0,-1,0,793)">
      <stop
         offset="0.3033"
         style="stop-color:#473788"
         id="stop4671" />
      <stop
         offset="0.872"
         style="stop-color:#2C2255"
         id="stop4673" />
    </linearGradient>
    <linearGradient
       id="linearGradient4682"
       gradientUnits="userSpaceOnUse"
       x1="131.3853"
       y1="358.5752"
       x2="131.3853"
       y2="432.21011"
       gradientTransform="matrix(1,0,0,-1,0,793)">
      <stop
         offset="0.3033"
         style="stop-color:#473788"
         id="stop4678" />
      <stop
         offset="0.872"
         style="stop-color:#2C2255"
         id="stop4680" />
    </linearGradient>
    <linearGradient
       id="linearGradient4689"
       gradientUnits="userSpaceOnUse"
       x1="131.3853"
       y1="358.57709"
       x2="131.3853"
       y2="432.2084"
       gradientTransform="matrix(1,0,0,-1,0,793)">
      <stop
         offset="0.3033"
         style="stop-color:#473788"
         id="stop4685" />
      <stop
         offset="0.8631"
         style="stop-color:#2C2255"
         id="stop4687" />
    </linearGradient>
  </defs>
  <sodipodi:namedview
     id="base"
     pagecolor="#ffffff"
     bordercolor="#666666"
     borderopacity="1.0"
     inkscape:pageopacity="0.0"
     inkscape:pageshadow="2"
     inkscape:zoom="22.627417"
     inkscape:cx="6.2976698"
     inkscape:cy="10.363534"
     inkscape:document-units="px"
     inkscape:current-layer="layer1"
     showgrid="false"
     inkscape:window-width="2560"
     inkscape:window-height="1351"
     inkscape:window-x="-9"
     inkscape:window-y="-9"
     inkscape:window-maximized="1"
     inkscape:grid-bbox="true"
     showguides="false"
     inkscape:pagecheckerboard="0"
     inkscape:showpageshadow="0"
     inkscape:deskcolor="#505050">
    <inkscape:grid
       type="xygrid"
       id="grid2674"
       originx="0"
       originy="0"
       spacingy="1"
       spacingx="1"
       units="px"
       visible="false" />
  </sodipodi:namedview>
  <metadata
     id="metadata1981">
    <rdf:RDF>
      <cc:Work
         rdf:about="">
        <dc:format>image/svg+xml</dc:format>
        <dc:type
           rdf:resource="http://purl.org/dc/dcmitype/StillImage" />
      </cc:Work>
    </rdf:RDF>
  </metadata>
  <g
     inkscape:label="Layer 1"
     inkscape:groupmode="layer"
     id="layer1">
    <g
       id="g1"
       transform="translate(0.0638289,0.06866286)">
      <path
         inkscape:connector-curvature="0"
         style="fill:#2c2255;stroke-width:0.266326"
         d="M 0.74309256,1.6310304 H 0.36465332 c 0.0501084,0.1822081 0.14308951,0.3455131 0.27921892,0.4898422 0.21701942,0.230078 0.47797616,0.3449615 0.78314116,0.3449615 0.061002,0 0.1201051,-0.00484 0.1775125,-0.01398 C 1.834383,2.415066 2.0356262,2.3049024 2.2080531,2.1208728 2.3450634,1.9765907 2.4387013,1.8132388 2.4891929,1.6310306 H 2.3356162 2.1110477 Z"
         id="path2" />
      <path
         d="M 0.56594279,0.97392659 H 0.37556631 c -0.006964,0.0693463 -0.01171,0.14013571 -0.013864,0.21272971 H 0.58796866 0.70147199 2.3398136 2.4893615 c -0.00218,-0.072594 -0.0069,-0.1433833 -0.01394,-0.21272971"
         id="path4"
         inkscape:connector-curvature="0"
         style="fill:#2c2255;stroke-width:0.320718" />
      <path
         d="m 0.36170232,1.3994221 c 0.002156,0.072642 0.006878,0.1434439 0.013864,0.2127658 H 0.5734886 0.7235083 2.3263876 2.4753835 c 0.007,-0.069322 0.0118,-0.1401237 0.01398,-0.2127658"
         id="path6"
         inkscape:connector-curvature="0"
         style="fill:#2c2255;stroke-width:0.320742" />
      <path
         inkscape:connector-curvature="0"
         style="fill:#2c2255;stroke-width:0.266326"
         d="M 2.4892381,0.95495492 C 2.4387915,0.77224357 2.3451308,0.60817228 2.2080529,0.46283693 2.0360782,0.28053299 1.8353996,0.17115998 1.6062885,0.13435902 c -0.057949,-0.009316 -0.1176401,-0.01421 -0.1792741,-0.01421 -0.305165,0 -0.56614439,0.11425988 -0.78314118,0.34268556 C 0.50770011,0.6081697 0.41467145,0.77224119 0.3645867,0.95495258"
         id="path10" />
      <path
         d="m 0.25662019,1.2930392 c 0,-0.61871734 0.4383562,-1.13280574 1.00861481,-1.22322702 -0.014148,-5.5106e-4 -0.028365,-0.00115 -0.042649,-0.00115 -0.63993904,0 -1.15875661,0.54818205 -1.15875661,1.22437702 0,0.6762191 0.51879497,1.2243771 1.15875661,1.2243771 0.01433,0 0.028546,-5.75e-4 0.042739,-0.00113 C 0.69497639,2.425869 0.25662019,1.9117805 0.25662019,1.2930392 Z"
         id="path12"
         inkscape:connector-curvature="0"
         style="fill:#f7941e;stroke-width:0.266328" />
      <path
         d="M 2.0978711,1.1866201 C 2.0945311,1.1137018 2.0875511,1.0425874 2.0771591,0.97389045 H 0.75690215 c -0.010398,0.068661 -0.017376,0.13977515 -0.020732,0.21272965 z"
         id="path37"
         inkscape:connector-curvature="0"
         style="fill:url(#SVGID_1_);stroke-width:0.311002" />
      <path
         d="M 2.0978713,1.3994221 H 0.73617016 c 0.003356,0.072931 0.010294,0.1440571 0.020712,0.2127658 H 2.0771797 c 0.0104,-0.068709 0.01732,-0.1398349 0.020692,-0.2127658 z"
         id="path44"
         inkscape:connector-curvature="0"
         style="fill:url(#SVGID_2_);stroke-width:0.311032" />
      <path
         d="m 1.4270617,2.0929826 c 0.3027924,0 0.5637947,-0.1891087 0.6839894,-0.4619537 H 0.74307238 C 0.8632672,1.903874 1.1242694,2.0929826 1.4270617,2.0929826 Z"
         id="path51"
         inkscape:connector-curvature="0"
         style="fill:url(#SVGID_3_);stroke-width:0.266328" />
      <path
         d="M 0.56372943,1.3994223 H 0.67411516 2.1817713 2.3798291 2.530287 c 0.00104,-0.033842 0.00163,-0.067917 0.00163,-0.1022256 0,-0.037106 -7.912e-4,-0.073901 -0.00202,-0.1105403 H 2.3798055 2.1817487 0.67409258 0.55590932 0.32232277 c -0.00122,0.036601 -0.002012,0.073435 -0.002012,0.1105403 0,0.034308 5.8764e-4,0.068384 0.001627,0.1022256 z"
         id="path55"
         inkscape:connector-curvature="0"
         style="fill:#ffffff;stroke-width:0.339158" />
      <path
         d="M 0.75854687,0.76112464 H 0.38864496 c -0.012158,0.0692772 -0.020002,0.14034171 -0.0275326,0.21276583 h 0.19051568 0.1622231 1.44543776 0.2047063 0.1463119 c -0.00754,-0.0723854 -0.01728,-0.14344971 -0.029412,-0.21276583"
         id="path57"
         inkscape:connector-curvature="0"
         style="fill:#ffffff;stroke-width:0.337248" />
      <path
         d="M 2.344105,1.6074864 H 2.1420779 0.7155807 0.56313399 0.36170232 c 0.007234,0.073985 0.015462,0.1465801 0.0272604,0.2174673 H 0.75964725 2.0980113 2.3177268 2.4608207 c 0.01176,-0.070847 0.021282,-0.1434429 0.02854,-0.2174673 z"
         id="path59"
         inkscape:connector-curvature="0"
         style="fill:#ffffff;stroke-width:0.338718" />
    </g>
  </g>
</svg>
