<?xml version="1.0" encoding="UTF-8" standalone="no"?>
<!-- Created with Inkscape (http://www.inkscape.org/) -->

<svg
   width="32"
   height="32"
   viewBox="0 0 2.7234042 2.7234042"
   version="1.1"
   id="SVGRoot"
   sodipodi:docname="eclipse32_new.svg"
   inkscape:export-xdpi="96"
   inkscape:export-ydpi="96"
   inkscape:version="1.3.2 (091e20e, 2023-11-25, custom)"
   inkscape:export-filename="eclipse16_new.png"
   xmlns:inkscape="http://www.inkscape.org/namespaces/inkscape"
   xmlns:sodipodi="http://sodipodi.sourceforge.net/DTD/sodipodi-0.dtd"
   xmlns="http://www.w3.org/2000/svg"
   xmlns:svg="http://www.w3.org/2000/svg"
   xmlns:rdf="http://www.w3.org/1999/02/22-rdf-syntax-ns#"
   xmlns:cc="http://creativecommons.org/ns#"
   xmlns:dc="http://purl.org/dc/elements/1.1/">
  <defs
     id="defs1978">
    <linearGradient
       id="SVGID_1_"
       gradientUnits="userSpaceOnUse"
       x1="131.3853"
       y1="358.5762"
       x2="131.3853"
       y2="432.21109"
       gradientTransform="matrix(0.02211299,0,0,-0.02886428,-1.4797953,13.24174)">
      <stop
         offset="0.3033"
         style="stop-color:#473788"
         id="stop32" />
      <stop
         offset="0.872"
         style="stop-color:#2C2255"
         id="stop34" />
    </linearGradient>
    <linearGradient
       id="SVGID_2_"
       gradientUnits="userSpaceOnUse"
       x1="131.3853"
       y1="358.5752"
       x2="131.3853"
       y2="432.21011"
       gradientTransform="matrix(0.02211223,0,0,-0.02886916,-1.4797315,13.255932)">
      <stop
         offset="0.3033"
         style="stop-color:#473788"
         id="stop39" />
      <stop
         offset="0.872"
         style="stop-color:#2C2255"
         id="stop41" />
    </linearGradient>
    <linearGradient
       id="SVGID_3_"
       gradientUnits="userSpaceOnUse"
       x1="131.3853"
       y1="358.57709"
       x2="131.3853"
       y2="432.2084"
       gradientTransform="matrix(0.02260151,0,0,-0.023959,-1.5424596,11.216164)">
      <stop
         offset="0.3033"
         style="stop-color:#473788"
         id="stop46" />
      <stop
         offset="0.8631"
         style="stop-color:#2C2255"
         id="stop48" />
    </linearGradient>
    <linearGradient
       id="linearGradient4675"
       gradientUnits="userSpaceOnUse"
       x1="131.3853"
       y1="358.5762"
       x2="131.3853"
       y2="432.21109"
       gradientTransform="matrix(1,0,0,-1,0,793)">
      <stop
         offset="0.3033"
         style="stop-color:#473788"
         id="stop4671" />
      <stop
         offset="0.872"
         style="stop-color:#2C2255"
         id="stop4673" />
    </linearGradient>
    <linearGradient
       id="linearGradient4682"
       gradientUnits="userSpaceOnUse"
       x1="131.3853"
       y1="358.5752"
       x2="131.3853"
       y2="432.21011"
       gradientTransform="matrix(1,0,0,-1,0,793)">
      <stop
         offset="0.3033"
         style="stop-color:#473788"
         id="stop4678" />
      <stop
         offset="0.872"
         style="stop-color:#2C2255"
         id="stop4680" />
    </linearGradient>
    <linearGradient
       id="linearGradient4689"
       gradientUnits="userSpaceOnUse"
       x1="131.3853"
       y1="358.57709"
       x2="131.3853"
       y2="432.2084"
       gradientTransform="matrix(1,0,0,-1,0,793)">
      <stop
         offset="0.3033"
         style="stop-color:#473788"
         id="stop4685" />
      <stop
         offset="0.8631"
         style="stop-color:#2C2255"
         id="stop4687" />
    </linearGradient>
  </defs>
  <sodipodi:namedview
     id="base"
     pagecolor="#ffffff"
     bordercolor="#666666"
     borderopacity="1.0"
     inkscape:pageopacity="0.0"
     inkscape:pageshadow="2"
     inkscape:zoom="16"
     inkscape:cx="11.65625"
     inkscape:cy="7.03125"
     inkscape:document-units="px"
     inkscape:current-layer="layer1"
     showgrid="false"
     inkscape:window-width="2560"
     inkscape:window-height="1351"
     inkscape:window-x="-9"
     inkscape:window-y="-9"
     inkscape:window-maximized="1"
     inkscape:grid-bbox="true"
     showguides="false"
     inkscape:pagecheckerboard="0"
     inkscape:showpageshadow="0"
     inkscape:deskcolor="#505050">
    <inkscape:grid
       type="xygrid"
       id="grid2674"
       originx="0"
       originy="0"
       spacingy="1"
       spacingx="1"
       units="px"
       visible="false" />
  </sodipodi:namedview>
  <metadata
     id="metadata1981">
    <rdf:RDF>
      <cc:Work
         rdf:about="">
        <dc:format>image/svg+xml</dc:format>
        <dc:type
           rdf:resource="http://purl.org/dc/dcmitype/StillImage" />
      </cc:Work>
    </rdf:RDF>
  </metadata>
  <g
     inkscape:label="Layer 1"
     inkscape:groupmode="layer"
     id="layer1">
    <g
       id="g1"
       transform="translate(0.0638289,0.06866286)">
      <path
         inkscape:connector-curvature="0"
         style="fill:#2c2255;stroke-width:0.266326"
         d="M 0.74309256,1.6310304 H 0.36465332 c 0.0501084,0.1822081 0.14308951,0.3455131 0.27921892,0.4898422 0.21701942,0.230078 0.47797616,0.3449615 0.78314116,0.3449615 0.061002,0 0.1201051,-0.00484 0.1775125,-0.01398 C 1.834383,2.415066 2.0356262,2.3049024 2.2080531,2.1208728 2.3450634,1.9765907 2.4387013,1.8132388 2.4891929,1.6310306 H 2.3356162 2.1110477 Z"
         id="path2" />
      <path
         d="M 0.55218952,1.0377491 H 0.35876704 c -0.007076,0.055477 -0.011898,0.1121088 -0.014086,0.1701839 H 0.57456771 0.68988703 2.3544424 2.5063823 c -0.00222,-0.058075 -0.00702,-0.1147067 -0.01416,-0.1701839"
         id="path4"
         inkscape:connector-curvature="0"
         style="fill:#2c2255;stroke-width:0.289146" />
      <path
         d="m 0.34468105,1.3781455 c 0.00219,0.058114 0.006988,0.1147551 0.014086,0.1702127 h 0.2010885 0.1524195 1.62852055 0.1513799 c 0.00712,-0.055458 0.01198,-0.1120989 0.0142,-0.1702127"
         id="path6"
         inkscape:connector-curvature="0"
         style="fill:#2c2255;stroke-width:0.289166" />
      <path
         inkscape:connector-curvature="0"
         style="fill:#2c2255;stroke-width:0.266326"
         d="M 2.4892381,0.95495492 C 2.4387915,0.77224357 2.3451308,0.60817228 2.2080529,0.46283693 2.0360782,0.28053299 1.8353996,0.17115998 1.6062885,0.13435902 c -0.057949,-0.009316 -0.1176401,-0.01421 -0.1792741,-0.01421 -0.305165,0 -0.56614439,0.11425988 -0.78314118,0.34268556 C 0.50770011,0.6081697 0.41467145,0.77224119 0.3645867,0.95495258"
         id="path10" />
      <path
         d="m 0.25662019,1.2930392 c 0,-0.61871734 0.4383562,-1.13280574 1.00861481,-1.22322702 -0.014148,-5.5106e-4 -0.028365,-0.00115 -0.042649,-0.00115 -0.63993904,0 -1.15875661,0.54818205 -1.15875661,1.22437702 0,0.6762191 0.51879497,1.2243771 1.15875661,1.2243771 0.01433,0 0.028546,-5.75e-4 0.042739,-0.00113 C 0.69497639,2.425869 0.25662019,1.9117805 0.25662019,1.2930392 Z"
         id="path12"
         inkscape:connector-curvature="0"
         style="fill:#f7941e;stroke-width:0.266328" />
      <path
         d="M 2.1611749,1.2079041 C 2.1575549,1.1495693 2.1500149,1.0926778 2.1387969,1.0377202 H 0.71228758 c -0.011234,0.054929 -0.018774,0.1118201 -0.0224006,0.1701839 z"
         id="path37"
         inkscape:connector-curvature="0"
         style="fill:url(#SVGID_1_);stroke-width:0.289146" />
      <path
         d="M 2.1611111,1.3781455 H 0.68989695 c 0.003626,0.058345 0.011122,0.1152457 0.0223776,0.1702127 H 2.1387555 c 0.01124,-0.054967 0.01872,-0.1118679 0.022356,-0.1702127 z"
         id="path44"
         inkscape:connector-curvature="0"
         style="fill:url(#SVGID_2_);stroke-width:0.289166" />
      <path
         d="m 1.4270617,2.0929826 c 0.3027924,0 0.5637947,-0.1891087 0.6839894,-0.4619537 H 0.74307238 C 0.8632672,1.903874 1.1242694,2.0929826 1.4270617,2.0929826 Z"
         id="path51"
         inkscape:connector-curvature="0"
         style="fill:url(#SVGID_3_);stroke-width:0.266328" />
      <path
         d="M 0.56372943,1.3781455 H 0.67411516 2.1817713 2.3798291 2.530287 c 0.00104,-0.027074 0.00163,-0.054334 0.00163,-0.08178 0,-0.029685 -7.912e-4,-0.059121 -0.00202,-0.088432 H 2.3798055 2.1817487 0.67409258 0.55590932 0.32232277 c -0.00122,0.029281 -0.002012,0.058748 -0.002012,0.088432 0,0.027446 5.8764e-4,0.054707 0.001627,0.08178 z"
         id="path55"
         inkscape:connector-curvature="0"
         style="fill:#ffffff;stroke-width:0.303352" />
      <path
         d="M 0.7386651,0.86750755 H 0.36456498 C 0.35226899,0.92292932 0.34433659,0.97978088 0.33672,1.0377202 H 0.52939788 0.69346217 2.1553049 2.3623348 2.5103067 C 2.5026667,0.9798119 2.4928267,0.92296052 2.4805627,0.86750755"
         id="path57"
         inkscape:connector-curvature="0"
         style="fill:#ffffff;stroke-width:0.303352" />
      <path
         d="M 2.3681883,1.5483582 H 2.1611587 0.69933847 0.54311687 0.33669732 c 0.007414,0.057908 0.015844,0.1147289 0.0279354,0.1702127 H 0.7444962 2.1160009 2.341157 2.4877949 c 0.01206,-0.055453 0.02181,-0.1122734 0.029246,-0.1702127 z"
         id="path59"
         inkscape:connector-curvature="0"
         style="fill:#ffffff;stroke-width:0.303352" />
    </g>
  </g>
</svg>
