<?xml version="1.0" encoding="UTF-8" standalone="no"?>
<!-- Created with Inkscape (http://www.inkscape.org/) -->

<svg
   width="16"
   height="16"
   id="svg2"
   version="1.1"
   xml:space="preserve"
   xmlns:xlink="http://www.w3.org/1999/xlink"
   xmlns="http://www.w3.org/2000/svg"
   xmlns:svg="http://www.w3.org/2000/svg"
   xmlns:rdf="http://www.w3.org/1999/02/22-rdf-syntax-ns#"
   xmlns:cc="http://creativecommons.org/ns#"
   xmlns:dc="http://purl.org/dc/elements/1.1/"><defs
     id="defs4"><linearGradient
       xlink:href="#linearGradient10798-1-9-3-7-1-15-1-7-6-1"
       id="linearGradient8163-2"
       gradientUnits="userSpaceOnUse"
       x1="388.63736"
       y1="478.18777"
       x2="388.63736"
       y2="457.95499"
       gradientTransform="matrix(0.66159777,0,0,0.66159776,-240.06252,747.98229)" /><linearGradient
       id="linearGradient10798-1-9-3-7-1-15-1-7-6-1"><stop
         style="stop-color:#4f9e55;stop-opacity:1"
         offset="0"
         id="stop10800-5-2-1-8-2-8-1-7-3-7" /><stop
         id="stop10806-6-8-5-3-2-95-0-5-4-8"
         offset="0.5"
         style="stop-color:#3c8d49;stop-opacity:1;" /><stop
         style="stop-color:#a4e173;stop-opacity:1;"
         offset="1"
         id="stop10802-1-5-3-0-2-0-9-8-4-3" /></linearGradient></defs><metadata
     id="metadata7"><rdf:RDF><cc:Work
         rdf:about=""><dc:format>image/svg+xml</dc:format><dc:type
           rdf:resource="http://purl.org/dc/dcmitype/StillImage" /></cc:Work></rdf:RDF></metadata><g
     id="layer1"
     style="display:inline"
     transform="translate(0,-1036.3622)"><g
       id="g4"><path
         id="rect4"
         style="fill:#00c701;stroke-linecap:round;paint-order:markers stroke fill"
         d="M 5 1045.3622 L 5 1046.3622 L 5 1047.3622 L 5 1048.3622 L 5 1049.3622 L 5 1050.3622 L 6 1050.3622 L 7 1050.3622 L 8 1050.3622 L 9 1050.3622 L 10 1050.3622 L 10 1049.3622 L 10 1048.3622 L 10 1047.3622 L 10 1046.3622 L 10 1045.3622 L 9 1045.3622 L 8 1045.3622 L 7 1045.3622 L 6 1045.3622 L 5 1045.3622 z " /><path
         id="rect4-8-0-8"
         style="display:inline;fill:#ab0100;stroke-linecap:round;paint-order:markers stroke fill"
         d="M 11 1045.3622 L 11 1046.3622 L 11 1047.3622 L 11 1048.3622 L 11 1049.3622 L 11 1050.3622 L 12 1050.3622 L 13 1050.3622 L 14 1050.3622 L 15 1050.3622 L 15 1049.3622 L 15 1048.3622 L 15 1047.3622 L 15 1046.3622 L 15 1045.3622 L 14 1045.3622 L 13 1045.3622 L 12 1045.3622 L 11 1045.3622 z " /><path
         id="rect4-8-0-8-1"
         style="display:inline;stroke-linecap:round;paint-order:markers stroke fill"
         d="M 4 1044.3622 L 4 1045.3622 L 4 1046.3622 L 4 1047.3622 L 4 1048.3622 L 4 1049.3622 L 4 1050.3622 L 4 1051.3622 L 5 1051.3622 L 6 1051.3622 L 7 1051.3622 L 8 1051.3622 L 9 1051.3622 L 10 1051.3622 L 11 1051.3622 L 12 1051.3622 L 13 1051.3622 L 14 1051.3622 L 15 1051.3622 L 16 1051.3622 L 16 1050.3622 L 16 1049.3622 L 16 1048.3622 L 16 1047.3622 L 16 1046.3622 L 16 1045.3622 L 16 1044.3622 L 15 1044.3622 L 14 1044.3622 L 13 1044.3622 L 12 1044.3622 L 11 1044.3622 L 10 1044.3622 L 9 1044.3622 L 8 1044.3622 L 7 1044.3622 L 6 1044.3622 L 5 1044.3622 L 4 1044.3622 z M 5 1045.3622 L 6 1045.3622 L 7 1045.3622 L 8 1045.3622 L 9 1045.3622 L 10 1045.3622 L 10 1046.3622 L 10 1047.3622 L 10 1048.3622 L 10 1049.3622 L 10 1050.3622 L 9 1050.3622 L 8 1050.3622 L 7 1050.3622 L 6 1050.3622 L 5 1050.3622 L 5 1049.3622 L 5 1048.3622 L 5 1047.3622 L 5 1046.3622 L 5 1045.3622 z M 11 1045.3622 L 12 1045.3622 L 13 1045.3622 L 14 1045.3622 L 15 1045.3622 L 15 1046.3622 L 15 1047.3622 L 15 1048.3622 L 15 1049.3622 L 15 1050.3622 L 14 1050.3622 L 13 1050.3622 L 12 1050.3622 L 11 1050.3622 L 11 1049.3622 L 11 1048.3622 L 11 1047.3622 L 11 1046.3622 L 11 1045.3622 z " /></g><g
       style="display:inline;stroke-width:1.47078"
       id="g8159"
       transform="matrix(0.67991911,0,0,0.67990824,-6.118328,322.42764)"><path
         id="path10796-2-6-0"
         style="display:inline;fill:url(#linearGradient8163-2);stroke:#14733c;stroke-width:1.38407;stroke-linecap:round;stroke-linejoin:round"
         d="m 23.749594,1057.767 a 7.0294762,7.0294762 0 0 1 -7.029476,7.0294 7.0294762,7.0294762 0 0 1 -7.0294766,-7.0294 7.0294762,7.0294762 0 0 1 7.0294766,-7.0295 7.0294762,7.0294762 0 0 1 7.029476,7.0295 z" /><path
         id="path8117"
         d="m 14.220116,1052.2669 6,5.567 -5.938144,5.433 z"
         style="display:inline;fill:#ffffff;fill-opacity:1;stroke:none;stroke-width:1.51574" /></g></g></svg>
