<?xml version="1.0" encoding="UTF-8" standalone="no"?>
<!-- Created with Inkscape (http://www.inkscape.org/) -->

<svg
   width="16"
   height="16"
   id="svg2"
   version="1.1"
   xml:space="preserve"
   xmlns="http://www.w3.org/2000/svg"
   xmlns:svg="http://www.w3.org/2000/svg"
   xmlns:rdf="http://www.w3.org/1999/02/22-rdf-syntax-ns#"
   xmlns:cc="http://creativecommons.org/ns#"
   xmlns:dc="http://purl.org/dc/elements/1.1/"><defs
     id="defs4" /><metadata
     id="metadata7"><rdf:RDF><cc:Work
         rdf:about=""><dc:format>image/svg+xml</dc:format><dc:type
           rdf:resource="http://purl.org/dc/dcmitype/StillImage" /></cc:Work></rdf:RDF></metadata><g
     id="layer1"
     style="display:inline"
     transform="translate(0,-1036.3622)"><path
       id="path4"
       style="fill:#efaf00;stroke-width:0.991263;stroke-linecap:round;paint-order:markers stroke fill"
       transform="matrix(1.0163827,0,0,1.001301,0.5083019,1037.7478)"
       d="M 12.25,14.578125 C 12.138976,14.659058 7.518963,12.028284 7.3815719,12.028502 7.2441808,12.02872 2.6325475,14.674156 2.5212675,14.593576 2.4099875,14.512997 3.4843396,9.3061488 3.4416759,9.1755496 3.3990122,9.0449503 -0.54202014,5.4765111 -0.4997715,5.345777 -0.45752285,5.2150429 4.8264767,4.627808 4.9375001,4.546875 c 0.1110235,-0.080933 2.2869649,-4.93178582 2.424356,-4.93200403 0.137391,-2.1821e-4 2.3287302,4.84369843 2.4400102,4.92427833 0.11128,0.08058 5.3971177,0.6510272 5.4397817,0.7816264 0.04266,0.1305993 -3.887014,3.7115393 -3.929262,3.8422734 -0.04225,0.1307341 1.048637,5.3341429 0.937614,5.4150759 z" /></g></svg>
