<?xml version="1.0" encoding="UTF-8" standalone="no"?>
<!-- Created with Inkscape (http://www.inkscape.org/) -->

<svg
   width="16"
   height="16"
   viewBox="0 0 1.3617021 1.3617021"
   version="1.1"
   id="SVGRoot"
   xml:space="preserve"
   xmlns="http://www.w3.org/2000/svg"
   xmlns:svg="http://www.w3.org/2000/svg"
   xmlns:rdf="http://www.w3.org/1999/02/22-rdf-syntax-ns#"
   xmlns:cc="http://creativecommons.org/ns#"
   xmlns:dc="http://purl.org/dc/elements/1.1/"><defs
     id="defs1978"><filter
       style="color-interpolation-filters:sRGB"
       id="filter7"
       x="-0.35577991"
       y="-0.35844312"
       width="1.7115598"
       height="1.7168862"><feGaussianBlur
         stdDeviation="0.03 0.026"
         id="feGaussianBlur7" /></filter><filter
       style="color-interpolation-filters:sRGB"
       id="filter7-4"
       x="-1.0460525"
       y="-0.52700641"
       width="3.092105"
       height="2.0540128"><feGaussianBlur
         stdDeviation="0.05 0.033"
         id="feGaussianBlur7-2" /></filter><filter
       style="color-interpolation-filters:sRGB"
       id="filter8"
       x="-0.78268909"
       y="-0.77413422"
       width="2.5653782"
       height="2.5482684"><feGaussianBlur
         stdDeviation="0.031 0.04"
         id="feGaussianBlur8" /></filter><filter
       style="color-interpolation-filters:sRGB"
       id="filter8-6"
       x="-0.78268909"
       y="-0.77413422"
       width="2.5653782"
       height="2.5482684"><feGaussianBlur
         stdDeviation="0.031 0.04"
         id="feGaussianBlur8-5" /></filter><filter
       style="color-interpolation-filters:sRGB"
       id="filter8-0"
       x="-0.78268909"
       y="-0.77413422"
       width="2.5653782"
       height="2.5482684"><feGaussianBlur
         stdDeviation="0.031 0.04"
         id="feGaussianBlur8-3" /></filter><filter
       style="color-interpolation-filters:sRGB"
       id="filter8-5"
       x="-0.78268909"
       y="-0.77413422"
       width="2.5653782"
       height="2.5482684"><feGaussianBlur
         stdDeviation="0.031 0.04"
         id="feGaussianBlur8-6" /></filter><filter
       style="color-interpolation-filters:sRGB"
       id="filter8-6-7"
       x="-0.78268909"
       y="-0.77413422"
       width="2.5653782"
       height="2.5482684"><feGaussianBlur
         stdDeviation="0.031 0.04"
         id="feGaussianBlur8-5-5" /></filter><filter
       style="color-interpolation-filters:sRGB"
       id="filter8-0-4"
       x="-0.78268909"
       y="-0.77413422"
       width="2.5653782"
       height="2.5482684"><feGaussianBlur
         stdDeviation="0.031 0.04"
         id="feGaussianBlur8-3-2" /></filter><filter
       style="color-interpolation-filters:sRGB"
       id="filter8-5-3"
       x="-0.78268909"
       y="-0.77413422"
       width="2.5653782"
       height="2.5482684"><feGaussianBlur
         stdDeviation="0.031 0.04"
         id="feGaussianBlur8-6-2" /></filter><filter
       style="color-interpolation-filters:sRGB"
       id="filter7-3"
       x="-0.35577991"
       y="-0.35844312"
       width="1.7115598"
       height="1.7168862"><feGaussianBlur
         stdDeviation="0.03 0.026"
         id="feGaussianBlur7-3" /></filter><filter
       style="color-interpolation-filters:sRGB"
       id="filter7-4-6"
       x="-1.0460525"
       y="-0.52700641"
       width="3.092105"
       height="2.0540128"><feGaussianBlur
         stdDeviation="0.05 0.033"
         id="feGaussianBlur7-2-6" /></filter><filter
       style="color-interpolation-filters:sRGB"
       id="filter8-2"
       x="-0.78268909"
       y="-0.7741361"
       width="2.5653782"
       height="2.5482722"><feGaussianBlur
         stdDeviation="0.031 0.04"
         id="feGaussianBlur8-2" /></filter></defs><metadata
     id="metadata1981"><rdf:RDF><cc:Work
         rdf:about=""><dc:format>image/svg+xml</dc:format><dc:type
           rdf:resource="http://purl.org/dc/dcmitype/StillImage" /></cc:Work></rdf:RDF></metadata><g
     id="layer1"><path
       style="display:inline;fill:#3f5f5f;fill-opacity:0.937255;stroke-width:0.0851064;stroke-linecap:square;paint-order:markers stroke fill"
       d="M 0.19414891,0.40558509 0.19348403,0.2167553 0.29355048,0.06648936 0.39029258,0.01795213 h 0.32446806 l 0.14494682,0.0618351 0.125,0.06781914 0.16534984,0.13827832 -0.051654,0.0671737 -0.1675532,-0.13563823 -0.12232664,-0.0520703 -0.10903782,-0.0525462 -0.27174812,0.001962 -0.0651572,0.0303097 -0.058725,0.0769997 -0.004654,0.18085078 z"
       id="path1"
       transform="translate(-0.00132979,-0.01595745)" /><path
       style="mix-blend-mode:normal;fill:#185023;fill-opacity:1;stroke-width:0.0851064;stroke-linecap:square;paint-order:markers stroke fill;filter:url(#filter8-6)"
       d="m 0.44107951,0.00525181 -0.0846467,0.0470542 -0.009309,0.0338509 0.0457994,0.0431044 0.0492575,-0.06778 z"
       id="path8-4" /><path
       style="mix-blend-mode:normal;fill:#185023;fill-opacity:1;stroke-width:0.0851064;stroke-linecap:square;paint-order:markers stroke fill;filter:url(#filter8-0)"
       d="m 0.76410037,0.01089362 -0.0846467,0.0470542 -0.009309,0.0338509 0.0457994,0.0431044 0.0492575,-0.06778 z"
       id="path8-0"
       transform="matrix(0.41037711,-0.75712034,0.73266536,0.39712193,0.35846278,0.57603012)" /><path
       style="mix-blend-mode:normal;fill:#185023;fill-opacity:1;stroke-width:0.0851064;stroke-linecap:square;paint-order:markers stroke fill;filter:url(#filter8-5)"
       d="m 0.98556864,0.09223879 -0.0846467,0.0470542 -0.009309,0.0338509 0.0457994,0.0431044 0.0492575,-0.06778 z"
       id="path8-3"
       transform="matrix(0.17360805,-0.80409813,0.83786767,0.18089904,0.62899749,0.88526406)" /><path
       style="fill:#486848;stroke-width:0.0854404;stroke-linecap:square;paint-order:markers stroke fill;fill-opacity:1"
       d="M 0.85106381,0.55917206 1.3617021,0.05119681 V 0.5618351 Z"
       id="path6" /><path
       style="mix-blend-mode:normal;fill:#ffffff;fill-opacity:0.997351;stroke-width:0.0851064;stroke-linecap:square;paint-order:markers stroke fill;filter:url(#filter7)"
       d="m 1.3155692,0.34182806 -0.089417,0.0963524 -0.081862,0.0777338 0.1364013,-0.00251 0.065971,0.002172 -0.00843,-0.10478841 z"
       id="path7"
       transform="matrix(1.3956937,0,0,1.6220166,-0.5488995,-0.33500703)" /><path
       style="mix-blend-mode:normal;fill:#0ff60f;fill-opacity:1;stroke-width:0.0851064;stroke-linecap:square;paint-order:markers stroke fill;filter:url(#filter7-4)"
       d="m 1.3088997,0.41561328 -0.082747,0.0225672 -0.00564,0.0564181 0.028638,0.0712975 0.086079,-0.0675363 -0.011284,-0.0564181 z"
       id="path7-2"
       transform="matrix(0.77894405,0.6208102,-1.6457354,1.7344453,0.92890841,-1.2323492)" /><path
       style="mix-blend-mode:normal;fill:#185023;fill-opacity:1;stroke-width:0.0851064;stroke-linecap:square;paint-order:markers stroke fill;filter:url(#filter8)"
       d="m 0.29903546,0.13724488 -0.0846467,0.0470542 -0.009309,0.0338509 0.0457994,0.0431044 0.0492575,-0.06778 z"
       id="path8" /><path
       style="display:inline;fill:#3f5f5f;fill-opacity:0.937255;stroke-width:0.0851064;stroke-linecap:square;paint-order:markers stroke fill"
       d="M 0.19414891,0.40558509 0.19348403,0.2167553 0.29355048,0.06648936 0.39029258,0.01795213 h 0.32446806 l 0.14494682,0.0618351 0.125,0.06781914 0.16534984,0.13827832 -0.051654,0.0671737 -0.1675532,-0.13563823 -0.12232664,-0.0520703 -0.10903782,-0.0525462 -0.27174812,0.001962 -0.0651572,0.0303097 -0.058725,0.0769997 -0.004654,0.18085078 z"
       id="path1-2"
       transform="rotate(-177.56228,0.74229391,0.63916762)" /><path
       style="mix-blend-mode:normal;fill:#185023;fill-opacity:1;stroke-width:0.0851064;stroke-linecap:square;paint-order:markers stroke fill;filter:url(#filter8-6-7)"
       d="m 0.05508061,0.86465615 -0.0846467,0.0470542 -0.009309,0.0338509 0.0457994,0.0431044 0.0492575,-0.06778 z"
       id="path8-4-8"
       transform="rotate(-177.56228,0.53965683,1.0567706)" /><path
       style="mix-blend-mode:normal;fill:#185023;fill-opacity:1;stroke-width:0.0851064;stroke-linecap:square;paint-order:markers stroke fill;filter:url(#filter8-0-4)"
       d="m 0.76410037,0.01089362 -0.0846467,0.0470542 -0.009309,0.0338509 0.0457994,0.0431044 0.0492575,-0.06778 z"
       id="path8-0-7"
       transform="matrix(-0.44220867,0.73898043,-0.71511137,-0.42792533,1.1224424,0.70257402)" /><path
       style="mix-blend-mode:normal;fill:#185023;fill-opacity:1;stroke-width:0.0851064;stroke-linecap:square;paint-order:markers stroke fill;filter:url(#filter8-5-3)"
       d="m 0.98556864,0.09223879 -0.0846467,0.0470542 -0.009309,0.0338509 0.0457994,0.0431044 0.0492575,-0.06778 z"
       id="path8-3-9"
       transform="matrix(-0.20765201,0.79598631,-0.82941518,-0.21637273,0.86530525,0.38211319)" /><path
       style="fill:#486848;fill-opacity:1;stroke-width:0.0854404;stroke-linecap:square;paint-order:markers stroke fill"
       d="M 0.62957008,0.69846485 0.09778795,1.1842612 0.11950716,0.67408505 Z"
       id="path6-8" /><path
       style="mix-blend-mode:normal;fill:#ffffff;fill-opacity:0.997351;stroke-width:0.0851064;stroke-linecap:square;paint-order:markers stroke fill;filter:url(#filter7-3)"
       d="m 1.3155692,0.34182806 -0.089417,0.0963524 -0.081862,0.0777338 0.1364013,-0.00251 0.065971,0.002172 -0.00843,-0.10478841 z"
       id="path7-1"
       transform="matrix(-1.3944307,-0.05936366,0.06898995,-1.6205487,1.990234,1.65138)" /><path
       style="mix-blend-mode:normal;fill:#0ff60f;fill-opacity:1;stroke-width:0.0851064;stroke-linecap:square;paint-order:markers stroke fill;filter:url(#filter7-4-6)"
       d="m 1.3088997,0.41561328 -0.082747,0.0225672 -0.00564,0.0564181 0.028638,0.0712975 0.086079,-0.0675363 -0.011284,-0.0564181 z"
       id="path7-2-7"
       transform="matrix(-0.75183394,-0.65337957,1.718018,-1.6628769,0.47559635,2.4850538)" /><path
       style="mix-blend-mode:normal;fill:#185023;fill-opacity:1;stroke-width:0.0851064;stroke-linecap:square;paint-order:markers stroke fill;filter:url(#filter8-2)"
       d="m -0.08696344,0.99664922 -0.0846467,0.0470542 -0.009309,0.033851 0.0457994,0.043104 0.0492575,-0.06778 z"
       id="path8-7"
       transform="rotate(-177.56228,0.53965683,1.0567706)" /></g></svg>
