<?xml version="1.0" encoding="UTF-8" standalone="no"?>
<!-- Created with Inkscape (http://www.inkscape.org/) -->

<svg
   width="16"
   height="16"
   id="svg2"
   version="1.1"
   xml:space="preserve"
   xmlns:xlink="http://www.w3.org/1999/xlink"
   xmlns="http://www.w3.org/2000/svg"
   xmlns:svg="http://www.w3.org/2000/svg"
   xmlns:rdf="http://www.w3.org/1999/02/22-rdf-syntax-ns#"
   xmlns:cc="http://creativecommons.org/ns#"
   xmlns:dc="http://purl.org/dc/elements/1.1/"><defs
     id="defs4"><linearGradient
       xlink:href="#linearGradient4894-6"
       id="linearGradient4900-1"
       x1="7.9987183"
       y1="1042.2307"
       x2="9.9874563"
       y2="1040.3303"
       gradientUnits="userSpaceOnUse"
       gradientTransform="matrix(0.91933286,0,0,0.91933286,2.9881068,82.98521)" /><linearGradient
       id="linearGradient4894-6"><stop
         style="stop-color:#e0c88f;stop-opacity:1"
         offset="0"
         id="stop4896-8" /><stop
         style="stop-color:#d5b269;stop-opacity:1"
         offset="1"
         id="stop4898-5" /></linearGradient><linearGradient
       y2="1051.8378"
       x2="9.8946028"
       y1="1039.153"
       x1="9.8946028"
       gradientUnits="userSpaceOnUse"
       id="linearGradient4101"
       xlink:href="#linearGradient4994-6"
       gradientTransform="matrix(0.9651462,0,0,0.9651462,-1.5483922,35.838554)" /><linearGradient
       id="linearGradient4994-6"><stop
         style="stop-color:#f9fafc;stop-opacity:1;"
         offset="0"
         id="stop4996-1" /><stop
         style="stop-color:#dce7f7;stop-opacity:1"
         offset="1"
         id="stop4998-89" /></linearGradient></defs><metadata
     id="metadata7"><rdf:RDF><cc:Work
         rdf:about=""><dc:format>image/svg+xml</dc:format><dc:type
           rdf:resource="http://purl.org/dc/dcmitype/StillImage" /></cc:Work></rdf:RDF></metadata><g
     id="layer1"
     style="display:inline"
     transform="translate(0,-1036.3622)"><path
       style="display:inline;fill:url(#linearGradient4101);fill-opacity:1;stroke:none;stroke-width:0.965146"
       d="m 3.0937506,1037.8089 h 7.4288944 l 2.955333,3.6257 v 9.6076 H 3.0937506 Z"
       id="rect4001-3" /><path
       style="display:inline;fill:url(#linearGradient4900-1);fill-opacity:1;stroke:none;stroke-width:0.919333"
       d="m 10.321277,1037.6568 v 3.5957 h 3.656626 z"
       id="path4884" /><path
       style="display:inline;fill:none;stroke:#5e5e5e;stroke-width:0.919333;stroke-linecap:butt;stroke-linejoin:miter;stroke-miterlimit:4;stroke-dashoffset:0;stroke-opacity:0.984314"
       d="m 3.4165454,1038.0262 h 7.0762616 l 3.044883,3.0235 v 9.8115 H 3.4165454 Z"
       id="rect4001" /><path
       d="m 6.2815245,1042.5449 h 4.4178105 l 0.122389,1.6754 H 10.5677 c -0.166895,-1.2239 -0.619392,-1.4296 -1.3262421,-1.4296 -0.1423517,0 -0.2405253,0.025 -0.2945208,0.074 -0.051541,0.049 -0.077311,0.1312 -0.077311,0.2457 v 4.4016 c 0,0.089 0.02577,0.1551 0.077311,0.1973 0.051541,0.042 0.1362161,0.063 0.2540242,0.063 h 0.5485449 v 0.2793 H 7.2203093 v -0.2793 h 0.6258566 c 0.083448,0 0.1472604,-0.021 0.1914385,-0.063 0.044178,-0.042 0.066267,-0.098 0.066267,-0.1676 v -4.4648 c 0,-0.094 -0.028225,-0.1651 -0.084674,-0.2122 -0.056449,-0.049 -0.1472599,-0.074 -0.2724316,-0.074 -0.3558793,0 -0.6528543,0.1701 -0.8909252,0.5102 -0.1963472,0.2805 -0.3218467,0.3162 -0.4077486,0.9194 H 6.1793412 Z"
       id="text1"
       style="-inkscape-font-specification:Century;stroke:#000000;stroke-width:0.7;stroke-linecap:square;stroke-opacity:1;paint-order:markers stroke fill;stroke-dasharray:none"
       aria-label="T" /></g></svg>
