<?xml version="1.0" encoding="UTF-8" standalone="no"?>
<!-- Created with Inkscape (http://www.inkscape.org/) -->

<svg
   width="16"
   height="16"
   viewBox="0 0 1.3617021 1.3617021"
   version="1.1"
   id="SVGRoot"
   xml:space="preserve"
   xmlns="http://www.w3.org/2000/svg"
   xmlns:svg="http://www.w3.org/2000/svg"
   xmlns:rdf="http://www.w3.org/1999/02/22-rdf-syntax-ns#"
   xmlns:cc="http://creativecommons.org/ns#"
   xmlns:dc="http://purl.org/dc/elements/1.1/"><defs
     id="defs1978" /><metadata
     id="metadata1981"><rdf:RDF><cc:Work
         rdf:about=""><dc:format>image/svg+xml</dc:format><dc:type
           rdf:resource="http://purl.org/dc/dcmitype/StillImage" /></cc:Work></rdf:RDF></metadata><g
     id="layer1"><path
       d="m 3.3678384,3.386551 q 0,-0.1692704 0.034505,-0.2721348 0.035156,-0.1035153 0.1035154,-0.1595048 0.06901,-0.055989 0.1731767,-0.055989 0.076823,0 0.1347652,0.03125 0.057943,0.030599 0.095703,0.089193 0.03776,0.057942 0.059245,0.1419267 0.021484,0.083333 0.021484,0.2252599 0,0.1679683 -0.034505,0.2714837 -0.034505,0.1028643 -0.1035154,0.1595048 -0.068359,0.055989 -0.1731766,0.055989 -0.1380205,0 -0.2167964,-0.098958 Q 3.3678384,3.6554305 3.3678384,3.386551 Z m 0.1204424,0 q 0,0.2350254 0.054687,0.3131502 0.055338,0.077474 0.1360674,0.077474 0.080729,0 0.1354163,-0.078125 0.055338,-0.078125 0.055338,-0.3124992 0,-0.2356765 -0.055338,-0.3131503 -0.054687,-0.077474 -0.1367184,-0.077474 -0.080729,0 -0.128906,0.068359 -0.060547,0.087239 -0.060547,0.3222649 z"
       id="text1"
       style="-inkscape-font-specification:Arial;stroke-linecap:square;paint-order:markers stroke fill"
       transform="matrix(1.0255522,0,0,1.0478856,-3.1134686,-2.8675258)"
       aria-label="0" /></g></svg>
