<?xml version="1.0" encoding="UTF-8" standalone="no"?>
<svg
   version="1.1"
   id="svg2"
   height="66"
   width="75"
   xml:space="preserve"
   xmlns:xlink="http://www.w3.org/1999/xlink"
   xmlns="http://www.w3.org/2000/svg"
   xmlns:svg="http://www.w3.org/2000/svg"
   xmlns:rdf="http://www.w3.org/1999/02/22-rdf-syntax-ns#"
   xmlns:cc="http://creativecommons.org/ns#"
   xmlns:dc="http://purl.org/dc/elements/1.1/"><defs
     id="defs4"><linearGradient
       id="linearGradient13"><stop
         style="stop-color:#316994;stop-opacity:1;"
         offset="0"
         id="stop13" /><stop
         style="stop-color:#6a96b4;stop-opacity:1;"
         offset="1"
         id="stop14" /></linearGradient><linearGradient
       id="linearGradient5"><stop
         style="stop-color:#50728f;stop-opacity:1;"
         offset="0"
         id="stop5" /><stop
         style="stop-color:#ffffff;stop-opacity:1;"
         offset="1"
         id="stop6" /></linearGradient><linearGradient
       gradientTransform="translate(-88.220116,-999.2669)"
       gradientUnits="userSpaceOnUse"
       y2="1032.2668"
       x2="163.22012"
       y1="1032.2668"
       x1="88.220116"
       id="linearGradient4978"
       xlink:href="#linearGradient4972-7" /><linearGradient
       id="linearGradient4972-7"><stop
         id="stop4974-8"
         offset="0"
         style="stop-color:#b8ccf1;stop-opacity:0.10196079" /><stop
         id="stop4976-1"
         offset="1"
         style="stop-color:#6e97e2;stop-opacity:0.10196079" /></linearGradient><linearGradient
       gradientTransform="translate(-88.220117,-999.2669)"
       gradientUnits="userSpaceOnUse"
       y2="1032.2668"
       x2="163.22012"
       y1="1032.1835"
       x1="118.38584"
       id="linearGradient4970"
       xlink:href="#linearGradient4964-3" /><linearGradient
       id="linearGradient4964-3"><stop
         id="stop4966-1"
         offset="0"
         style="stop-color:#ffffff;stop-opacity:0.349" /><stop
         id="stop4968-1"
         offset="1"
         style="stop-color:#91ade6;stop-opacity:1" /></linearGradient><linearGradient
       gradientTransform="translate(-88.220116,-999.2669)"
       gradientUnits="userSpaceOnUse"
       y2="1042.7972"
       x2="163.22012"
       y1="1042.7972"
       x1="88.220116"
       id="linearGradient4962"
       xlink:href="#linearGradient4956-2" /><linearGradient
       id="linearGradient4956-2"><stop
         id="stop4958-5"
         offset="0"
         style="stop-color:#fcfdfe;stop-opacity:0.25641027" /><stop
         id="stop4960-6"
         offset="1"
         style="stop-color:#98aae7;stop-opacity:0.40392157" /></linearGradient><linearGradient
       xlink:href="#linearGradient5"
       id="linearGradient6"
       x1="64.660667"
       y1="1025.7971"
       x2="49.821011"
       y2="1004.6473"
       gradientUnits="userSpaceOnUse"
       gradientTransform="matrix(0.98963612,0,0,0.98963626,-2.7188095,4.1693825)" /><filter
       style="color-interpolation-filters:sRGB"
       id="filter8"
       x="-0.018702264"
       y="-0.018702255"
       width="1.0374045"
       height="1.0374045"><feGaussianBlur
         stdDeviation="0.28774822"
         id="feGaussianBlur8" /></filter><filter
       style="color-interpolation-filters:sRGB"
       id="filter9"
       x="-0.08617876"
       y="-0.096740665"
       width="1.1723575"
       height="1.1934813"><feGaussianBlur
         stdDeviation="1.114 1.187"
         id="feGaussianBlur9" /></filter><filter
       style="color-interpolation-filters:sRGB"
       id="filter10"
       x="-0.10036506"
       y="-0.082706837"
       width="1.2007301"
       height="1.1654137"><feGaussianBlur
         stdDeviation="0.967 0.668"
         id="feGaussianBlur10" /></filter><filter
       style="color-interpolation-filters:sRGB"
       id="filter11"
       x="-0.18047531"
       y="-0.18048954"
       width="1.3609506"
       height="1.3609791"><feGaussianBlur
         stdDeviation="1.8849448"
         id="feGaussianBlur11" /></filter><filter
       style="color-interpolation-filters:sRGB"
       id="filter12"
       x="-0.0072460587"
       y="-0.0072460511"
       width="1.0144921"
       height="1.0144921"><feGaussianBlur
         stdDeviation="0.11472926"
         id="feGaussianBlur12" /></filter><linearGradient
       xlink:href="#linearGradient13"
       id="linearGradient14"
       x1="53.0625"
       y1="1020.0652"
       x2="53.0625"
       y2="1018.4871"
       gradientUnits="userSpaceOnUse"
       gradientTransform="matrix(1,0,0,0.80877947,-9.0312496,194.66291)" /><filter
       style="color-interpolation-filters:sRGB"
       id="filter14"
       x="-0.13423002"
       y="-4.7119854"
       width="1.26846"
       height="10.423971"><feGaussianBlur
         stdDeviation="0.34431399"
         id="feGaussianBlur14" /></filter><filter
       style="color-interpolation-filters:sRGB"
       id="filter15"
       x="-1.0832732"
       y="-0.57220452"
       width="3.1665464"
       height="2.144409"><feGaussianBlur
         stdDeviation="0.6 1.048"
         id="feGaussianBlur15" /></filter><filter
       style="color-interpolation-filters:sRGB"
       id="filter845"
       x="-1.2059633"
       y="-0.18754793"
       width="3.4119267"
       height="1.3750959"><feGaussianBlur
         stdDeviation="0.322 0.316"
         id="feGaussianBlur845" /></filter><filter
       style="color-interpolation-filters:sRGB"
       id="filter845-8"
       x="-1.2059633"
       y="-0.18754793"
       width="3.4119267"
       height="1.3750959"><feGaussianBlur
         stdDeviation="0.322 0.316"
         id="feGaussianBlur845-8" /></filter><filter
       style="color-interpolation-filters:sRGB"
       id="filter846"
       x="-1.7884711"
       y="-0.11645578"
       width="4.5769423"
       height="1.2329116"><feGaussianBlur
         stdDeviation="1.482 0.193"
         id="feGaussianBlur846" /></filter><filter
       style="color-interpolation-filters:sRGB"
       id="filter847"
       x="-1.909754"
       y="-0.16322422"
       width="4.8195081"
       height="1.3264484"><feGaussianBlur
         stdDeviation="0.422 0.266"
         id="feGaussianBlur847" /></filter><filter
       style="color-interpolation-filters:sRGB"
       id="filter847-1"
       x="-1.909754"
       y="-0.16322422"
       width="4.8195081"
       height="1.3264484"><feGaussianBlur
         stdDeviation="0.422 0.266"
         id="feGaussianBlur847-6" /></filter><filter
       style="color-interpolation-filters:sRGB"
       id="filter847-1-7"
       x="-1.909754"
       y="-0.16322422"
       width="4.8195081"
       height="1.3264484"><feGaussianBlur
         stdDeviation="0.422 0.266"
         id="feGaussianBlur847-6-6" /></filter><filter
       style="color-interpolation-filters:sRGB"
       id="filter848"
       x="-1.4313458"
       y="-0.15863011"
       width="3.8626916"
       height="1.3172602"><feGaussianBlur
         stdDeviation="0.369 0.222"
         id="feGaussianBlur848" /></filter><filter
       style="color-interpolation-filters:sRGB"
       id="filter850"
       x="-0.01936985"
       y="-1.6002109"
       width="1.0387397"
       height="4.2004219"><feGaussianBlur
         stdDeviation="0.331 0.442"
         id="feGaussianBlur850" /></filter><filter
       style="color-interpolation-filters:sRGB"
       id="filter850-6"
       x="-0.01936985"
       y="-1.6002109"
       width="1.0387397"
       height="4.2004219"><feGaussianBlur
         stdDeviation="0.331 0.442"
         id="feGaussianBlur850-1" /></filter><filter
       style="color-interpolation-filters:sRGB"
       id="filter851"
       x="-0.033463358"
       y="-1.0012556"
       width="1.0669267"
       height="3.0025111"><feGaussianBlur
         stdDeviation="0.3872773"
         id="feGaussianBlur851" /></filter><filter
       style="color-interpolation-filters:sRGB"
       id="filter851-1"
       x="-0.22828653"
       y="-1.0005386"
       width="1.4565731"
       height="3.0010772"><feGaussianBlur
         stdDeviation="2.642 0.387"
         id="feGaussianBlur851-2" /></filter><filter
       style="color-interpolation-filters:sRGB"
       id="filter852"
       x="-0.036968738"
       y="-4.1272408"
       width="1.0739375"
       height="9.2544817"><feGaussianBlur
         stdDeviation="0.145 0.342"
         id="feGaussianBlur852" /></filter><filter
       style="color-interpolation-filters:sRGB"
       id="filter854"
       x="-1.8513342"
       y="-0.036062447"
       width="4.7026683"
       height="1.0721249"><feGaussianBlur
         stdDeviation="0.375 0.085"
         id="feGaussianBlur854" /></filter><filter
       style="color-interpolation-filters:sRGB"
       id="filter854-2"
       x="-1.8513342"
       y="-0.036062447"
       width="4.7026683"
       height="1.0721249"><feGaussianBlur
         stdDeviation="0.375 0.085"
         id="feGaussianBlur854-1" /></filter><filter
       style="color-interpolation-filters:sRGB"
       id="filter855"
       x="-0.81833358"
       y="-0.059060402"
       width="2.6366672"
       height="1.1181208"><feGaussianBlur
         stdDeviation="0.375 0.154"
         id="feGaussianBlur855" /></filter><filter
       style="color-interpolation-filters:sRGB"
       id="filter856"
       x="-0.065593247"
       y="-0.68808603"
       width="1.1311865"
       height="2.3761721"><feGaussianBlur
         stdDeviation="0.11423303"
         id="feGaussianBlur856" /></filter></defs><metadata
     id="metadata7"><rdf:RDF><cc:Work
         rdf:about=""><dc:format>image/svg+xml</dc:format><dc:type
           rdf:resource="http://purl.org/dc/dcmitype/StillImage" /></cc:Work></rdf:RDF></metadata><g
     transform="translate(0,-986.3622)"
     style="display:inline"
     id="layer1"><path
       style="display:inline;fill:url(#linearGradient4978);fill-opacity:1;stroke:none"
       d="M 75,0 V 66 H 1e-6 C 1e-6,41.2048 50.00969,0 75,0 Z"
       id="rect4113-1"
       transform="translate(0,986.3622)" /><path
       style="display:none;opacity:0.404;fill:url(#linearGradient4962);fill-opacity:1;stroke:none"
       d="M 75,21.0607 V 66 H 1e-6 C 10.625001,47.804 43.509694,25.4357 75,21.0607 Z"
       id="rect4113-1-0"
       transform="translate(0,986.3622)" /><path
       style="display:inline;opacity:0.184;fill:url(#linearGradient4970);fill-opacity:1;stroke:none"
       d="M 75,4.0000001e-7 V 66 H 30.000003 C 30.000003,46.1545 47.70944,9.2500004 75,4e-7 Z"
       id="rect4113-1-7"
       transform="translate(0,986.3622)" /><g
       id="g854"
       style="display:inline"
       transform="translate(0.28124998)"><rect
         style="display:inline;fill:#d9ce77;fill-opacity:0.992157;stroke:none;stroke-width:0.296139;stroke-linecap:square;stroke-dasharray:none;stroke-opacity:0.862745;paint-order:markers stroke fill"
         id="rect853"
         width="41.1842"
         height="3.9700181"
         x="3.5842845"
         y="1041.5824" /><rect
         style="mix-blend-mode:normal;fill:#565021;fill-opacity:0.945098;stroke:none;stroke-width:0.25;stroke-linecap:square;stroke-dasharray:none;stroke-opacity:0.862745;paint-order:markers stroke fill;filter:url(#filter850)"
         id="rect850"
         width="41.012192"
         height="0.66291261"
         x="4.0216699"
         y="1049.6482"
         transform="matrix(1.012429,0,0,0.95534273,-0.61462671,42.48779)" /><rect
         style="display:inline;mix-blend-mode:normal;fill:#433e1a;fill-opacity:0.945098;stroke:none;stroke-width:0.25;stroke-linecap:square;stroke-dasharray:none;stroke-opacity:0.862745;paint-order:markers stroke fill;filter:url(#filter850-6)"
         id="rect850-9"
         width="41.012192"
         height="0.66291261"
         x="4.0216699"
         y="1049.6482"
         transform="matrix(1.0207452,0,0,0.89831272,-0.59237527,98.70227)" /><path
         id="rect851"
         style="fill:#ffffff;fill-opacity:0.945098;stroke-width:0.25;stroke-linecap:square;stroke-opacity:0.862745;paint-order:markers stroke fill;filter:url(#filter851)"
         transform="matrix(1.0020345,0,0,1.0265154,-0.04968102,-32.392447)"
         d="m 3.7565048,1048.0573 27.0021802,0.1914 0.77344,0.3683 -0.742185,0.2178 -27.0334302,0.1508 z" /><path
         id="rect851-6"
         style="display:inline;fill:#ffffff;fill-opacity:0.945098;stroke-width:0.25;stroke-linecap:square;stroke-opacity:0.862745;paint-order:markers stroke fill;filter:url(#filter851-1)"
         transform="matrix(0.14727217,0,0,1.0265154,40.471964,-32.33023)"
         d="m 3.7565048,1048.0573 27.0021802,0.1914 0.77344,0.3683 -0.742185,0.2178 -27.0334302,0.1508 z" /><rect
         style="mix-blend-mode:normal;fill:#ffffff;fill-opacity:0.945098;stroke:none;stroke-width:0.25;stroke-linecap:square;stroke-dasharray:none;stroke-opacity:0.862745;paint-order:markers stroke fill;filter:url(#filter852)"
         id="rect852"
         width="9.4133587"
         height="0.19887379"
         x="31.355766"
         y="1048.3666"
         transform="matrix(1.0874544,0,0,0.98753959,-3.2076259,8.5885173)" /></g><g
       id="g855"
       transform="matrix(0.98423691,0,0,1.18169,-7.1763079,-189.89552)"
       style="display:inline"><rect
         style="display:inline;fill:#b19d35;fill-opacity:0.984314;stroke-width:0.957543;stroke-linecap:square;stroke-opacity:0.968627;paint-order:markers stroke fill"
         id="rect2"
         width="4.1260052"
         height="5.6874995"
         x="30.354183"
         y="1037.5045" /><rect
         style="mix-blend-mode:normal;fill:#6b621e;fill-opacity:0.992157;stroke:none;stroke-width:0.25;stroke-linecap:square;stroke-dasharray:none;stroke-opacity:0.862745;paint-order:markers stroke fill;filter:url(#filter854)"
         id="rect854"
         width="0.4861359"
         height="5.6568542"
         x="31.819805"
         y="1035.705"
         transform="matrix(0.96213721,0,0,1.0437114,-0.38830148,-43.627956)" /><rect
         style="display:inline;mix-blend-mode:normal;fill:#6b621e;fill-opacity:0.992157;stroke:none;stroke-width:0.25;stroke-linecap:square;stroke-dasharray:none;stroke-opacity:0.862745;paint-order:markers stroke fill;filter:url(#filter854-2)"
         id="rect854-5"
         width="0.4861359"
         height="5.6568542"
         x="31.819805"
         y="1035.705"
         transform="matrix(1.0493485,0,0,1.0437114,0.65399983,-43.523663)" /><rect
         style="display:inline;fill:#ac9a36;fill-opacity:1;stroke:none;stroke-width:0.25;stroke-linecap:square;stroke-dasharray:none;stroke-opacity:0.862745;paint-order:markers stroke fill;filter:url(#filter856)"
         id="rect856"
         width="4.1796875"
         height="0.3984375"
         x="22.570312"
         y="1042.8544"
         transform="matrix(1.0363525,0,0,1,6.8691659,0.09375)" /><path
         id="rect855"
         style="fill:#ffffff;fill-opacity:0.984314;stroke-width:0.25;stroke-linecap:square;stroke-opacity:0.862745;paint-order:markers stroke fill;filter:url(#filter855)"
         transform="matrix(0.91689006,0,0,1.0174549,1.204277,-16.260109)"
         d="m 33.741226,1035.6887 0.486311,0.03 -0.03409,2.8797 0.366388,3.2483 -1.099796,0.1 0.26414,-3.3327 z" /></g><g
       id="g11"
       transform="translate(-32.709049,6.5398177)"
       style="display:inline"><path
         style="color:#000000;display:inline;mix-blend-mode:normal;fill:#4d7496;fill-opacity:1;stroke-linecap:square;-inkscape-stroke:none;paint-order:markers stroke fill;filter:url(#filter12)"
         d="m 57.556217,992.69906 c -10.487038,0 -19,8.51304 -19,19.00004 0,10.4871 8.512962,19 19,19 10.487038,0 19,-8.5129 19,-19 0,-10.487 -8.512962,-19.00004 -19,-19.00004 z m 0,1.0742 c 9.906498,0 17.925781,8.01934 17.925781,17.92584 0,9.9065 -8.019283,17.9258 -17.925781,17.9258 -9.906498,0 -17.925781,-8.0193 -17.925781,-17.9258 0,-9.9065 8.019283,-17.92584 17.925781,-17.92584 z"
         id="path6" /><path
         id="path7"
         style="color:#000000;fill:url(#linearGradient6);fill-opacity:0.772185;stroke-linecap:square;-inkscape-stroke:none;paint-order:markers stroke fill"
         d="m 57.556217,993.23616 a 18.4629,18.4629 0 0 0 -18.462891,18.46294 18.4629,18.4629 0 0 0 18.462891,18.4629 18.4629,18.4629 0 0 0 18.462891,-18.4629 18.4629,18.4629 0 0 0 -18.462891,-18.46294 z m 0,6.4629 a 12,12 0 0 1 12,12.00004 12,12 0 0 1 -12,12 12,12 0 0 1 -12,-12 12,12 0 0 1 12,-12.00004 z" /><path
         id="path7-2"
         style="color:#000000;display:inline;mix-blend-mode:normal;fill:#b2d0eb;fill-opacity:0.329801;stroke-linecap:square;-inkscape-stroke:none;paint-order:markers stroke fill;filter:url(#filter8)"
         d="m 37.262735,1000.974 a 18.4629,18.4629 0 0 0 -18.462891,18.4629 18.4629,18.4629 0 0 0 18.462891,18.4629 18.4629,18.4629 0 0 0 18.462891,-18.4629 18.4629,18.4629 0 0 0 -18.462891,-18.4629 z m 0,6.4629 a 12,12 0 0 1 12,12 12,12 0 0 1 -12,12 12,12 0 0 1 -12,-12 12,12 0 0 1 12,-12 z"
         transform="matrix(0.96395337,0,0,0.96394578,21.636678,29.017166)" /><path
         style="mix-blend-mode:normal;fill:#ffffff;fill-opacity:1;stroke:none;stroke-linecap:square;stroke-opacity:0.862745;paint-order:markers stroke fill;filter:url(#filter9)"
         d="m 44.824602,1027.2549 a 14.488414,14.488414 53.794143 0 1 -2.211677,-3.0212 14.501542,14.501542 68.496413 0 1 -2.075391,-5.2677 22.472991,22.472991 86.827305 0 1 -0.252563,-4.5564 10.923433,10.923433 106.50759 0 1 1.516229,-5.1162 17.709129,17.709129 128.81851 0 1 3.363438,-4.1805 19.029017,19.029017 145.56077 0 1 4.581082,-3.1414 13.4416,13.4416 166.11148 0 1 5.136496,-1.2701 l 0.735563,-0.053 a 18.231485,18.231485 5.4226387 0 1 6.042601,0.5736 l 0.116734,0.031 a 16.407477,16.407477 25.629379 0 1 5.454857,2.617 8.6505038,8.6505038 55.964061 0 1 3.084643,4.567 l 0.595274,1.9973 a 8.9979496,8.9979496 81.09734 0 1 0.372851,2.3802 0.12553744,0.12553744 24.66329 0 1 -0.221863,-0.1019 3.3303468,3.3303468 40.814534 0 0 -1.562884,-1.3497 9.1665198,9.1665198 45.486304 0 0 -4.129984,-5.6391 10.878357,10.878357 23.203198 0 0 -3.668722,-1.5726 19.693054,19.693054 9.2891178 0 0 -4.897595,-0.8011 14.57918,14.57918 171.77864 0 0 -5.595286,0.8084 c -1.461322,0.4926 -3.498389,1.9746 -4.554349,3.3066 -0.531417,0.6704 -1.85425,2.2644 -2.952037,3.5623 -0.215119,0.2544 -0.597324,1.8227 -0.853656,3.5031 a 11.454097,11.454097 83.295654 0 0 0.432187,3.6767 16.321641,16.321641 69.334977 0 0 1.771008,4.6955 18.530766,18.530766 52.899378 0 0 2.747082,3.6322 9.2700134,9.2700134 61.608005 0 1 1.033533,1.9121 4.2070035,4.2070035 45.77919 0 0 1.310623,1.3468 0.15845103,0.15845103 138.57663 0 1 -0.237013,0.2091 l -0.591832,-0.3106 a 2.4597289,2.4597289 16.563945 0 0 -0.909908,-0.2706 6.7345622,6.7345622 31.185567 0 1 -3.579441,-2.1666 z"
         id="path8"
         transform="translate(0.61871841,-5.0381356)" /><path
         style="mix-blend-mode:normal;fill:#96afc5;fill-opacity:1;stroke:none;stroke-linecap:square;stroke-opacity:0.862745;paint-order:markers stroke fill;filter:url(#filter10)"
         d="m 49.815862,1028.4606 2.751388,1.2632 a 2.6927282,2.6927282 13.88601 0 0 0.977506,0.2417 l 3.042364,0.1653 a 4.4969453,4.4969453 176.60805 0 0 1.016633,-0.06 l 2.790933,-0.4867 a 5.7704515,5.7704515 165.03084 0 0 0.986343,-0.2638 l 2.307449,-0.8418 a 2.1509721,2.1509721 146.55363 0 0 0.831979,-0.5496 l 2.613524,-2.7878 a 4.2740946,4.2740946 126.31418 0 0 0.602706,-0.8201 l 0.931937,-1.6487 a 3.4310749,3.4310749 110.98098 0 0 0.362986,-0.9466 l 0.463412,-2.0928 a 5.9270001,5.9270001 97.543399 0 0 0.13406,-1.0124 l 0.207919,-4.5763 a 4.1049867,4.1049867 99.717869 0 1 0.171685,-1.0025 l 0.277677,-0.9178 a 0.27843727,0.27843727 168.3197 0 1 0.47919,-0.099 l 0.547795,0.6483 a 1.6846379,1.6846379 66.725962 0 1 0.387477,0.9009 l 0.146377,1.3146 a 4.9254772,4.9254772 89.587247 0 1 0.0073,1.0195 l -0.16643,1.7198 a 7.1482275,7.1482275 99.628499 0 1 -0.171003,1.008 l -0.706903,2.8933 a 4.6326398,4.6326398 110.04231 0 1 -0.349155,0.9571 l -0.936428,1.8902 a 3.2791382,3.2791382 125.23825 0 1 -0.584314,0.8271 l -0.612886,0.632 a 29.085514,29.085514 133.1118 0 0 -0.700407,0.7482 l -0.970057,1.0734 a 3.9719332,3.9719332 139.45466 0 1 -0.772492,0.6609 l -1.506628,0.9856 a 3.7584187,3.7584187 154.57205 0 1 -0.917224,0.4361 l -2.978691,0.9485 a 6.2510238,6.2510238 167.02416 0 1 -0.995495,0.2294 l -2.322358,0.3383 a 5.1716691,5.1716691 177.37065 0 1 -1.018939,0.047 l -1.893239,-0.1002 a 4.3387728,4.3387728 9.7667689 0 1 -1.003179,-0.1727 l -4.20456,-1.2457 a 0.40543473,0.40543473 68.156448 0 1 -0.236616,-0.5903 l 0.287789,-0.5023 a 0.56074574,0.56074574 162.23581 0 1 0.720531,-0.2308 z"
         id="path9"
         transform="matrix(1.0112551,0,0,1,-0.40389139,-5.5381356)" /><path
         style="color:#000000;fill:#214051;fill-opacity:0.862745;stroke-linecap:square;-inkscape-stroke:none;paint-order:markers stroke fill;filter:url(#filter11)"
         d="m 57.541016,999.10937 c -6.914357,0 -12.533203,5.61693 -12.533204,12.53123 0,6.9144 5.618847,12.5332 12.533204,12.5332 6.914357,0 12.533203,-5.6188 12.533203,-12.5332 0,-6.9143 -5.618846,-12.53123 -12.533203,-12.53123 z m 0,1.19923 c 6.265824,0 11.332031,5.0662 11.332031,11.332 0,6.2658 -5.066207,11.3321 -11.332031,11.3321 -6.265825,0 -11.332032,-5.0663 -11.332032,-11.3321 0,-6.2658 5.066207,-11.332 11.332032,-11.332 z"
         id="path10" /></g><g
       id="g850"
       style="display:inline"
       transform="translate(0.02209709,-0.41984463)"><rect
         style="display:inline;mix-blend-mode:normal;fill:#000000;fill-opacity:0.837086;stroke:none;stroke-width:0.168232;stroke-linecap:square;stroke-dasharray:none;stroke-opacity:0.862745;paint-order:markers stroke fill;filter:url(#filter847-1-7)"
         id="rect846-3-8"
         width="0.53033006"
         height="3.9111843"
         x="10.385631"
         y="991.88647"
         transform="matrix(0,0.71555268,1.4741982,0,-1440.2742,989.02204)" /><rect
         style="display:inline;fill:#4e7b9e;fill-opacity:1;stroke-width:0.954336;stroke-linecap:square;stroke-opacity:0.968627;paint-order:markers stroke fill"
         id="rect3"
         width="6.6322718"
         height="3.7763605"
         x="21.580597"
         y="996.38562" /><rect
         style="display:inline;mix-blend-mode:normal;fill:#03090f;fill-opacity:0.811765;stroke:none;stroke-width:0.168232;stroke-linecap:square;stroke-dasharray:none;stroke-opacity:0.862745;paint-order:markers stroke fill;filter:url(#filter847)"
         id="rect846"
         width="0.53033006"
         height="3.9111843"
         x="10.385631"
         y="991.88647"
         transform="matrix(0.96469412,0,0,1.0124497,11.465069,-7.9385686)" /><rect
         style="display:inline;mix-blend-mode:normal;fill:#03090f;fill-opacity:0.811765;stroke:none;stroke-width:0.168232;stroke-linecap:square;stroke-dasharray:none;stroke-opacity:0.862745;paint-order:markers stroke fill;filter:url(#filter847-1)"
         id="rect846-3"
         width="0.53033006"
         height="3.9111843"
         x="10.385631"
         y="991.88647"
         transform="matrix(-0.96469412,0,0,1.0124497,38.308585,-7.9363808)" /><rect
         style="mix-blend-mode:normal;fill:#ffffff;fill-opacity:0.837086;stroke:none;stroke-width:0.25;stroke-linecap:square;stroke-dasharray:none;stroke-opacity:0.862745;paint-order:markers stroke fill;filter:url(#filter848)"
         id="rect847"
         width="0.61871839"
         height="3.358757"
         x="23.312426"
         y="996.68152" /></g><g
       id="g846"
       transform="matrix(0.96906967,0,0,0.68938595,2.1314267,314.03969)"
       style="display:inline"><rect
         style="display:inline;fill:#5a87aa;fill-opacity:1;stroke-linecap:square;stroke-opacity:0.968627;paint-order:markers stroke fill"
         id="rect4"
         width="11.749999"
         height="4.125"
         x="17.567482"
         y="985.7608" /><rect
         style="mix-blend-mode:normal;fill:#276594;fill-opacity:1;stroke:none;stroke-width:0.25;stroke-linecap:square;stroke-dasharray:none;stroke-opacity:0.862745;paint-order:markers stroke fill;filter:url(#filter845)"
         id="rect844"
         width="0.6408155"
         height="4.0437665"
         x="18.252193"
         y="987.97528"
         transform="matrix(1.7572472,0,0,1,-14.881645,-2.2097086)" /><rect
         style="display:inline;mix-blend-mode:normal;fill:#276594;fill-opacity:1;stroke:none;stroke-width:0.25;stroke-linecap:square;stroke-dasharray:none;stroke-opacity:0.862745;paint-order:markers stroke fill;filter:url(#filter845-8)"
         id="rect844-9"
         width="0.6408155"
         height="4.0437665"
         x="18.252193"
         y="987.97528"
         transform="matrix(-1.7572472,0,0,1,61.523901,-2.2190711)" /><rect
         style="mix-blend-mode:normal;fill:#ffffff;fill-opacity:1;stroke:none;stroke-width:0.25;stroke-linecap:square;stroke-dasharray:none;stroke-opacity:0.862745;paint-order:markers stroke fill;filter:url(#filter846)"
         id="rect845"
         width="1.9887377"
         height="3.9774754"
         x="21.279495"
         y="987.95319"
         transform="matrix(0.94416457,0,0,1,0.61390392,-2.1213203)" /></g><g
       id="g849"
       transform="translate(-33.25,10.65625)"
       style="display:inline"><ellipse
         style="fill:#ffffff;fill-opacity:0.837086;stroke:none;stroke-width:0.283665;stroke-linecap:square;stroke-dasharray:none;stroke-opacity:0.862745;paint-order:markers stroke fill"
         id="path848"
         cx="58.13868"
         cy="1007.6949"
         rx="12.020814"
         ry="11.998717" /><circle
         style="fill:#326180;fill-opacity:1;stroke:none;stroke-width:0.25;stroke-linecap:square;stroke-dasharray:none;stroke-opacity:0.862745;paint-order:markers stroke fill"
         id="path849"
         cx="62.917709"
         cy="1015.7682"
         r="1.6793785" /><circle
         style="display:inline;fill:#326180;fill-opacity:1;stroke:none;stroke-width:0.25;stroke-linecap:square;stroke-dasharray:none;stroke-opacity:0.862745;paint-order:markers stroke fill"
         id="path849-8"
         cx="53.57618"
         cy="1015.8048"
         r="1.6793785" /><circle
         style="display:inline;fill:#326180;fill-opacity:1;stroke:none;stroke-width:0.25;stroke-linecap:square;stroke-dasharray:none;stroke-opacity:0.862745;paint-order:markers stroke fill"
         id="path849-1"
         cx="63.466343"
         cy="999.47089"
         r="1.6793785" /><circle
         style="display:inline;fill:#326180;fill-opacity:1;stroke:none;stroke-width:0.25;stroke-linecap:square;stroke-dasharray:none;stroke-opacity:0.862745;paint-order:markers stroke fill"
         id="path849-9"
         cx="49.807873"
         cy="1003.3307"
         r="1.6793785" /><circle
         style="display:inline;fill:#326180;fill-opacity:1;stroke:none;stroke-width:0.25;stroke-linecap:square;stroke-dasharray:none;stroke-opacity:0.862745;paint-order:markers stroke fill"
         id="path849-91"
         cx="50.01368"
         cy="1012.2574"
         r="1.6793785" /><circle
         style="display:inline;fill:#326180;fill-opacity:1;stroke:none;stroke-width:0.25;stroke-linecap:square;stroke-dasharray:none;stroke-opacity:0.862745;paint-order:markers stroke fill"
         id="path849-14"
         cx="53.057873"
         cy="999.56549"
         r="1.6793785" /><circle
         style="display:inline;fill:#326180;fill-opacity:1;stroke:none;stroke-width:0.25;stroke-linecap:square;stroke-dasharray:none;stroke-opacity:0.862745;paint-order:markers stroke fill"
         id="path849-5"
         cx="66.414566"
         cy="1003.4191"
         r="1.6793785" /><circle
         style="display:inline;fill:#326180;fill-opacity:1;stroke:none;stroke-width:0.25;stroke-linecap:square;stroke-dasharray:none;stroke-opacity:0.862745;paint-order:markers stroke fill"
         id="path849-95"
         cx="66.20118"
         cy="1012.1949"
         r="1.6793785" /><circle
         style="display:inline;fill:#326180;fill-opacity:1;stroke:none;stroke-width:0.25;stroke-linecap:square;stroke-dasharray:none;stroke-opacity:0.862745;paint-order:markers stroke fill"
         id="path849-7"
         cx="58.201057"
         cy="1017.2574"
         r="1.6793785" /><circle
         style="display:inline;fill:#326180;fill-opacity:1;stroke:none;stroke-width:0.25;stroke-linecap:square;stroke-dasharray:none;stroke-opacity:0.862745;paint-order:markers stroke fill"
         id="path849-55"
         cx="48.88868"
         cy="1007.6949"
         r="1.6793785" /><circle
         style="display:inline;fill:#326180;fill-opacity:1;stroke:none;stroke-width:0.25;stroke-linecap:square;stroke-dasharray:none;stroke-opacity:0.862745;paint-order:markers stroke fill"
         id="path849-3"
         cx="58.20118"
         cy="998.19495"
         r="1.6793785" /><circle
         style="display:inline;fill:#326180;fill-opacity:1;stroke:none;stroke-width:0.25;stroke-linecap:square;stroke-dasharray:none;stroke-opacity:0.862745;paint-order:markers stroke fill"
         id="path849-2"
         cx="67.63868"
         cy="1007.6953"
         r="1.6793785" /><path
         id="rect849"
         style="fill:#1a3141;stroke-width:0.213857;stroke-linecap:square;stroke-opacity:0.862745;paint-order:markers stroke fill"
         d="m 57.659016,995.81976 h 0.959327 l -0.01563,11.88824 h -0.928077 z" /><path
         id="rect849-4"
         style="display:inline;fill:#1a3141;stroke-width:0.183438;stroke-linecap:square;stroke-opacity:0.862745;paint-order:markers stroke fill"
         transform="rotate(-31.147087)"
         d="m -471.86765,892.26191 0.8185,0.48166 0.0176,8.41112 h -0.82205 z" /></g><g
       id="g15"
       transform="matrix(0.9877674,0,0,1.2213844,1.0779517,-225.26998)"
       style="display:inline"><path
         id="rect5"
         style="display:inline;fill:url(#linearGradient14);stroke-width:0.899322;stroke-linecap:square;stroke-opacity:0.968627;paint-order:markers stroke fill"
         d="m 42.84375,1016.423 h 2.625 c 1.073375,0 1.852694,0.8314 1.9375,1.5669 0.05104,0.4426 0.10653,0.7076 0,1.3143 -0.10653,0.6069 -0.864125,1.567 -1.9375,1.567 h -2.625 c -1.073375,0 -1.9375,-0.6989 -1.9375,-1.567 v -1.3143 c 0,-0.868 0.864125,-1.5669 1.9375,-1.5669 z" /><rect
         style="mix-blend-mode:normal;fill:#ffffff;fill-opacity:1;stroke:none;stroke-linecap:square;stroke-opacity:0.862745;paint-order:markers stroke fill;filter:url(#filter14)"
         id="rect14"
         width="6.15625"
         height="0.17537269"
         x="49.968746"
         y="1017.2059"
         ry="0.087686345"
         transform="matrix(0.9439746,0,0,0.57910908,-6.1842772,428.71441)" /><path
         style="mix-blend-mode:normal;fill:#ffffff;fill-opacity:1;stroke:none;stroke-width:0.25;stroke-linecap:square;stroke-dasharray:none;stroke-opacity:0.862745;paint-order:markers stroke fill;filter:url(#filter15)"
         d="m 55.390623,1015.9247 -0.15625,0.6562 c -0.231799,0.4559 -0.204175,0.5577 -0.256912,1.0449 -0.302472,0.6869 0.444997,1.9538 0.580617,2.5065 -0.06187,0.9109 0.339222,-1.7871 0.416765,-1.7239 0.116901,-0.4311 0.05008,-0.3585 0.154108,-0.7937 0.248291,-0.5102 0.0028,-0.3045 -0.138143,-0.6832 z"
         id="path15"
         transform="matrix(0.67330981,0,0,0.53284431,9.2400624,475.89784)" /></g></g></svg>
