<?xml version="1.0" encoding="UTF-8" standalone="no"?>
<svg
   version="1.1"
   id="svg2"
   height="66"
   width="75"
   xml:space="preserve"
   xmlns:xlink="http://www.w3.org/1999/xlink"
   xmlns="http://www.w3.org/2000/svg"
   xmlns:svg="http://www.w3.org/2000/svg"
   xmlns:rdf="http://www.w3.org/1999/02/22-rdf-syntax-ns#"
   xmlns:cc="http://creativecommons.org/ns#"
   xmlns:dc="http://purl.org/dc/elements/1.1/"><defs
     id="defs4"><linearGradient
       gradientTransform="translate(-88.220116,-999.2669)"
       gradientUnits="userSpaceOnUse"
       y2="1032.2668"
       x2="163.22012"
       y1="1032.2668"
       x1="88.220116"
       id="linearGradient4978"
       xlink:href="#linearGradient4972-7" /><linearGradient
       id="linearGradient4972-7"><stop
         id="stop4974-8"
         offset="0"
         style="stop-color:#b8ccf1;stop-opacity:0.10196079" /><stop
         id="stop4976-1"
         offset="1"
         style="stop-color:#6e97e2;stop-opacity:0.10196079" /></linearGradient><linearGradient
       gradientTransform="translate(-88.220117,-999.2669)"
       gradientUnits="userSpaceOnUse"
       y2="1032.2668"
       x2="163.22012"
       y1="1032.1835"
       x1="118.38584"
       id="linearGradient4970"
       xlink:href="#linearGradient4964-3" /><linearGradient
       id="linearGradient4964-3"><stop
         id="stop4966-1"
         offset="0"
         style="stop-color:#ffffff;stop-opacity:0.349" /><stop
         id="stop4968-1"
         offset="1"
         style="stop-color:#91ade6;stop-opacity:1" /></linearGradient><linearGradient
       gradientTransform="translate(-88.220116,-999.2669)"
       gradientUnits="userSpaceOnUse"
       y2="1042.7972"
       x2="163.22012"
       y1="1042.7972"
       x1="88.220116"
       id="linearGradient4962"
       xlink:href="#linearGradient4956-2" /><linearGradient
       id="linearGradient4956-2"><stop
         id="stop4958-5"
         offset="0"
         style="stop-color:#fcfdfe;stop-opacity:0.25641027" /><stop
         id="stop4960-6"
         offset="1"
         style="stop-color:#98aae7;stop-opacity:0.40392157" /></linearGradient><filter
       style="color-interpolation-filters:sRGB"
       id="filter4564"
       x="-0.29001302"
       width="1.580026"
       y="-0.27644033"
       height="1.5528807"><feGaussianBlur
         stdDeviation="4.6687431"
         id="feGaussianBlur4566" /></filter><linearGradient
       xlink:href="#linearGradient5373"
       id="linearGradient5379"
       x1="18.4132"
       y1="1003.4459"
       x2="29.930859"
       y2="1039.3618"
       gradientUnits="userSpaceOnUse"
       gradientTransform="matrix(0.73328163,0,0,0.73328163,34.775441,280.5084)" /><linearGradient
       id="linearGradient5373"><stop
         style="stop-color:#4fab47;stop-opacity:1;"
         offset="0"
         id="stop5375" /><stop
         style="stop-color:#82b989;stop-opacity:1;"
         offset="1"
         id="stop5377" /></linearGradient><filter
       style="color-interpolation-filters:sRGB"
       id="filter5535"
       x="-0.48403505"
       width="1.9680701"
       y="-0.56926084"
       height="2.1385217"><feGaussianBlur
         stdDeviation="5.2543488"
         id="feGaussianBlur5537" /></filter><filter
       style="color-interpolation-filters:sRGB"
       id="filter5221"
       x="-0.10833312"
       width="1.2166662"
       y="-0.070208004"
       height="1.140416"><feGaussianBlur
         stdDeviation="0.8812897"
         id="feGaussianBlur5223" /></filter><filter
       style="color-interpolation-filters:sRGB"
       id="filter5047"
       x="-0.061442132"
       width="1.1228843"
       y="-0.049128299"
       height="1.0982566"><feGaussianBlur
         stdDeviation="0.44094492"
         id="feGaussianBlur5049" /></filter></defs><metadata
     id="metadata7"><rdf:RDF><cc:Work
         rdf:about=""><dc:format>image/svg+xml</dc:format><dc:type
           rdf:resource="http://purl.org/dc/dcmitype/StillImage" /></cc:Work></rdf:RDF></metadata><g
     transform="translate(0,-986.3622)"
     style="display:inline"
     id="layer1"><path
       style="display:inline;fill:url(#linearGradient4978);fill-opacity:1;stroke:none"
       d="M 75,0 75,66 1e-6,66 C 1e-6,41.2048 50.00969,0 75,0 Z"
       id="rect4113-1"
       transform="translate(0,986.3622)" /><path
       style="display:inline;opacity:0.40400002;fill:url(#linearGradient4962);fill-opacity:1;stroke:none"
       d="M 75,21.0607 75,66 1e-6,66 C 10.625001,47.804 43.509694,25.4357 75,21.0607 Z"
       id="rect4113-1-0"
       transform="translate(0,986.3622)" /><path
       style="display:inline;opacity:0.18399999;fill:url(#linearGradient4970);fill-opacity:1;stroke:none"
       d="M 75,4.0000001e-7 75,66 30.000003,66 C 30.000003,46.1545 47.70944,9.2500004 75,4e-7 Z"
       id="rect4113-1-7"
       transform="translate(0,986.3622)" /><g
       id="g3"
       style="display:inline"
       transform="matrix(1.376142,0,0,1.3957719,-46.955164,-415.07372)"><path
         style="display:inline;fill:#cacaca;fill-opacity:0.75;stroke:none;filter:url(#filter4564)"
         d="m 70.915077,1056.8109 0.111675,-8.8823 3.105049,-7.3241 -0.853835,-9.8298 -3.628811,-4.2736 -7.044157,-3.7395 -8.324916,-1.496 -10.352776,3.3122 c 0,0 -8.431645,10.3638 -8.431645,11.005 0,0.6409 1.603013,15.6773 2.136644,15.8907 0.533652,0.2127 2.842142,5.1527 2.842142,5.1527 l 4.035946,2.4381 5.88002,2.2296 5.718897,0.5048 6.170536,-0.7089 c 0,0 4.375919,-2.3799 5.016298,-2.3799 0.640376,0 2.948866,-1.7874 2.948866,-1.7874 z"
         id="path3007-0"
         transform="matrix(0.73328163,0,0,-0.07419951,13.579861,1121.4423)" /><ellipse
         cy="1029.0879"
         cx="52.683666"
         style="font-style:normal;font-weight:normal;font-size:medium;line-height:125%;font-family:Sans;letter-spacing:0px;word-spacing:0px;display:inline;fill:url(#linearGradient5379);fill-opacity:1;stroke:none;stroke-width:1.09992;stroke-linecap:round;stroke-linejoin:round;stroke-miterlimit:4;stroke-dasharray:none;stroke-dashoffset:0;stroke-opacity:1"
         id="path10796-2-6-2"
         rx="14.610767"
         ry="14.663307" /><path
         style="display:inline;fill:#ffffff;fill-opacity:1;stroke:none;stroke-width:1.5;stroke-linecap:round;stroke-linejoin:miter;stroke-miterlimit:4;stroke-dasharray:none;stroke-dashoffset:0;stroke-opacity:1;filter:url(#filter5535)"
         d="m 71.264734,1018.9726 a 19.925179,19.996828 0 0 0 -16.566406,8.9062 13.02639,11.919721 0 0 0 -0.08789,1.3262 13.02639,11.919721 0 0 0 13.027344,11.9199 13.02639,11.919721 0 0 0 13.025391,-11.9199 13.02639,11.919721 0 0 0 -5.744141,-9.8789 19.925179,19.996828 0 0 0 -3.654298,-0.3535 z"
         id="path5381-3"
         transform="matrix(-0.69511499,0.23348898,-0.23348898,-0.69511499,339.33081,1725.6209)" /><path
         style="display:inline;fill:#4e7d6d;fill-opacity:1;fill-rule:evenodd;stroke:none;stroke-width:1px;stroke-linecap:butt;stroke-linejoin:miter;stroke-opacity:1;filter:url(#filter5221)"
         d="m 69.880959,1056.7348 c 13.138983,1.3446 26.215947,-13.2506 15.6794,-30.04 4.270131,11.66 -2.596726,28.1272 -15.6794,30.04 z"
         id="path4955"
         transform="matrix(0.73041538,0.06477126,-0.06477126,0.73041538,69.292829,266.61004)" /><path
         style="display:inline;fill:#7ebe66;fill-opacity:1;fill-rule:evenodd;stroke:none;stroke-width:1px;stroke-linecap:butt;stroke-linejoin:miter;stroke-opacity:1;filter:url(#filter5047)"
         d="m 42.016424,1063.8653 c 10.35108,-1.0571 18.719697,-7.243 16.998227,-21.5409 -1.492,9.5512 -7.513167,18.0332 -16.998227,21.5409 z"
         id="path4955-4"
         transform="matrix(0.40377958,0.61209802,-0.61209802,0.40377958,677.09121,582.6025)" /><ellipse
         cy="1029.0879"
         cx="52.683666"
         style="font-style:normal;font-weight:normal;font-size:medium;line-height:125%;font-family:Sans;letter-spacing:0px;word-spacing:0px;display:inline;fill:none;fill-opacity:1;stroke:#657a32;stroke-width:0.916602;stroke-linecap:round;stroke-linejoin:round;stroke-miterlimit:4;stroke-dasharray:none;stroke-dashoffset:0;stroke-opacity:1"
         id="path10796-2-6-2-2"
         rx="14.610767"
         ry="14.663307" /><path
         style="fill:#f8f8f8;fill-opacity:1;stroke:#7eb582;stroke-width:2;stroke-linecap:square;stroke-opacity:1;paint-order:markers stroke fill"
         d="m 49.611136,1023.2359 v 12.4186 l 8.927223,-6.2314 z"
         id="path2" /></g></g></svg>
