<?xml version="1.0" encoding="UTF-8" standalone="no"?>
<!-- Created with Inkscape (http://www.inkscape.org/) -->

<svg
   width="16"
   height="16"
   id="svg2"
   version="1.1"
   inkscape:version="1.3.2 (091e20e, 2023-11-25, custom)"
   sodipodi:docname="unit.svg"
   xml:space="preserve"
   inkscape:export-filename="application_lightning@2x.png"
   inkscape:export-xdpi="192"
   inkscape:export-ydpi="192"
   xmlns:inkscape="http://www.inkscape.org/namespaces/inkscape"
   xmlns:sodipodi="http://sodipodi.sourceforge.net/DTD/sodipodi-0.dtd"
   xmlns:xlink="http://www.w3.org/1999/xlink"
   xmlns="http://www.w3.org/2000/svg"
   xmlns:svg="http://www.w3.org/2000/svg"
   xmlns:rdf="http://www.w3.org/1999/02/22-rdf-syntax-ns#"
   xmlns:cc="http://creativecommons.org/ns#"
   xmlns:dc="http://purl.org/dc/elements/1.1/"><defs
     id="defs4"><inkscape:path-effect
       effect="fillet_chamfer"
       id="path-effect2"
       is_visible="true"
       lpeversion="1"
       nodesatellites_param="F,0,1,1,0,0.15075266,0,1 @ F,0,1,1,0,0.15075266,0,1 @ F,0,1,1,0,0.15075266,0,1 @ F,0,1,1,0,0.15075266,0,1 @ F,0,1,1,0,0.15075266,0,1 @ F,0,1,1,0,0.15075266,0,1 @ F,0,1,1,0,0.15075266,0,1 @ F,0,1,1,0,0.15075266,0,1 @ F,0,1,1,0,0.15075266,0,1 @ F,0,1,1,0,0.15075266,0,1 @ F,0,1,1,0,0.15075266,0,1 @ F,0,1,1,0,0.15075266,0,1 @ F,0,1,1,0,0.15075266,0,1 @ F,0,1,1,0,0.15075266,0,1 @ F,0,1,1,0,0.15075266,0,1 @ F,0,1,1,0,0.15075266,0,1 @ F,0,1,1,0,0.15075266,0,1 @ F,0,1,1,0,0.15075266,0,1 @ F,0,1,1,0,0.15075266,0,1 @ F,0,1,1,0,0.15075266,0,1 @ F,0,1,1,0,0.15075266,0,1 @ F,0,1,1,0,0.15075266,0,1 @ F,0,1,1,0,0.15075266,0,1 @ F,0,1,1,0,0.15075266,0,1 @ F,0,1,1,0,0.15075266,0,1 @ F,0,1,1,0,0.15075266,0,1 @ F,0,1,1,0,0.15075266,0,1 @ F,0,1,1,0,0.15075266,0,1 @ F,0,1,1,0,0.15075266,0,1 @ F,0,1,1,0,0.15075266,0,1 @ F,0,1,1,0,0.15075266,0,1 @ F,0,1,1,0,0.15075266,0,1 @ F,0,1,1,0,0.15075266,0,1 @ F,0,1,1,0,0.15075266,0,1 @ F,0,1,1,0,0.15075266,0,1 @ F,0,1,1,0,0.15075266,0,1 @ F,0,1,1,0,0.15075266,0,1 @ F,0,1,1,0,0.15075266,0,1 @ F,0,1,1,0,0.15075266,0,1 @ F,0,1,1,0,0.15075266,0,1 @ F,0,1,1,0,0.15075266,0,1 @ F,0,1,1,0,0.15075266,0,1 @ F,0,1,1,0,0.15075266,0,1 @ F,0,1,1,0,0.15075266,0,1 @ F,0,1,1,0,0.15075266,0,1 @ F,0,1,1,0,0.15075266,0,1 @ F,0,1,1,0,0.15075266,0,1 @ F,0,1,1,0,0.15075266,0,1 @ F,0,1,1,0,0.15075266,0,1 @ F,0,1,1,0,0.15075266,0,1 @ F,0,1,1,0,0.15075266,0,1 @ F,0,1,1,0,0.15075266,0,1 @ F,0,1,1,0,0.15075266,0,1 @ F,0,1,1,0,0.15075266,0,1 @ F,0,1,1,0,0.15075266,0,1 @ F,0,1,1,0,0.15075266,0,1"
       radius="0"
       unit="px"
       method="auto"
       mode="F"
       chamfer_steps="1"
       flexible="false"
       use_knot_distance="true"
       apply_no_radius="true"
       apply_with_radius="true"
       only_selected="false"
       hide_knots="false" /><inkscape:path-effect
       effect="fillet_chamfer"
       id="path-effect1"
       is_visible="true"
       lpeversion="1"
       nodesatellites_param="F,0,0,1,0,0.61868548,0,1 @ F,0,1,1,0,0.55344433,0,1 @ F,0,0,1,0,0.61868548,0,1 @ F,0,0,1,0,0.61868548,0,1 @ F,0,0,1,0,0.61868548,0,1 @ F,0,0,1,0,0.61868548,0,1 @ F,0,0,1,0,0.61868548,0,1 @ F,0,0,1,0,0.61868548,0,1 @ F,0,0,1,0,0.61868548,0,1 @ F,0,0,1,0,0.61868548,0,1 @ F,0,0,1,0,0.61868548,0,1 @ F,0,0,1,0,0.61868548,0,1 @ F,0,0,1,0,0.61868548,0,1 @ F,0,0,1,0,0.61868548,0,1 @ F,0,0,1,0,0.61868548,0,1 @ F,0,0,1,0,0.61868548,0,1 @ F,0,0,1,0,0.61868548,0,1 @ F,0,0,1,0,0.61868548,0,1 @ F,0,0,1,0,0.61868548,0,1 @ F,0,0,1,0,0.61868548,0,1 @ F,0,0,1,0,0.61868548,0,1 @ F,0,0,1,0,0.61868548,0,1 @ F,0,0,1,0,0.61868548,0,1 @ F,0,0,1,0,0.61868548,0,1 @ F,0,0,1,0,0.61868548,0,1 @ F,0,0,1,0,0.61868548,0,1 @ F,0,0,1,0,0.61868548,0,1 @ F,0,0,1,0,0.61868548,0,1 @ F,0,0,1,0,0.61868548,0,1"
       radius="0"
       unit="px"
       method="auto"
       mode="F"
       chamfer_steps="1"
       flexible="false"
       use_knot_distance="true"
       apply_no_radius="true"
       apply_with_radius="true"
       only_selected="false"
       hide_knots="false" /><linearGradient
       id="linearGradient3866"><stop
         id="stop3868"
         offset="0"
         style="stop-color:#717188;stop-opacity:1" /><stop
         id="stop3870"
         offset="1"
         style="stop-color:#6b6b6b;stop-opacity:1;" /></linearGradient><linearGradient
       id="linearGradient3860"><stop
         id="stop3862"
         offset="0"
         style="stop-color:#424242;stop-opacity:1" /><stop
         id="stop3864"
         offset="1"
         style="stop-color:#6b6b6b;stop-opacity:1;" /></linearGradient><linearGradient
       id="linearGradient3852"><stop
         id="stop3854"
         offset="0"
         style="stop-color:#ffffff;stop-opacity:1;" /><stop
         style="stop-color:#dddddd;stop-opacity:1;"
         offset="0.66561043"
         id="stop3856" /><stop
         id="stop3858"
         offset="1"
         style="stop-color:#464646;stop-opacity:1;" /></linearGradient><linearGradient
       id="linearGradient3844"><stop
         id="stop3846"
         offset="0"
         style="stop-color:#ffffff;stop-opacity:1;" /><stop
         style="stop-color:#dddddd;stop-opacity:1;"
         offset="0.61245775"
         id="stop3848" /><stop
         id="stop3850"
         offset="1"
         style="stop-color:#464646;stop-opacity:1;" /></linearGradient><linearGradient
       id="linearGradient5328-5"><stop
         style="stop-color:#ffffff;stop-opacity:1;"
         offset="0"
         id="stop5330-9" /><stop
         id="stop3842"
         offset="0.5"
         style="stop-color:#dddddd;stop-opacity:1;" /><stop
         style="stop-color:#464646;stop-opacity:1;"
         offset="1"
         id="stop5332-8" /></linearGradient><linearGradient
       id="linearGradient5209-0"><stop
         style="stop-color:#4c4c4c;stop-opacity:1"
         offset="0"
         id="stop5211-9" /><stop
         style="stop-color:#6b6b6b;stop-opacity:1;"
         offset="1"
         id="stop5213-4" /></linearGradient><linearGradient
       y2="6.9843998"
       x2="10.007812"
       y1="5"
       x1="10"
       gradientTransform="translate(-15.015625,1046.6356)"
       gradientUnits="userSpaceOnUse"
       id="linearGradient6323-7"
       xlink:href="#linearGradient5068-6-9"
       inkscape:collect="always" /><linearGradient
       id="linearGradient5068-6-9"
       inkscape:collect="always"><stop
         id="stop5070-8-0"
         offset="0"
         style="stop-color:#ffffff;stop-opacity:1;" /><stop
         id="stop5072-3-6"
         offset="1"
         style="stop-color:#ffffff;stop-opacity:0;" /></linearGradient><linearGradient
       gradientTransform="translate(-15.015625,10.2734)"
       gradientUnits="userSpaceOnUse"
       y2="1045.3466"
       x2="12"
       y1="1043.3622"
       x1="12"
       id="linearGradient5084-3-3"
       xlink:href="#linearGradient5068-6-9"
       inkscape:collect="always" /><linearGradient
       gradientTransform="translate(-15.015625,10.2734)"
       gradientUnits="userSpaceOnUse"
       y2="1043.3466"
       x2="15.007812"
       y1="1043.3622"
       x1="13"
       id="linearGradient5086-8-0"
       xlink:href="#linearGradient5068-6-9"
       inkscape:collect="always" /><linearGradient
       gradientTransform="translate(-15.015625,10.2734)"
       gradientUnits="userSpaceOnUse"
       y2="1042.3622"
       x2="10.007812"
       y1="1042.3622"
       x1="12"
       id="linearGradient5082-1-0"
       xlink:href="#linearGradient5068-6-9"
       inkscape:collect="always" /><linearGradient
       gradientTransform="translate(-15.015625,10.2734)"
       gradientUnits="userSpaceOnUse"
       y2="1041.3466"
       x2="8.0078125"
       y1="1041.3622"
       x1="10"
       id="linearGradient5078-8-2"
       xlink:href="#linearGradient5068-6-9"
       inkscape:collect="always" /><linearGradient
       gradientTransform="translate(-15.015625,10.2734)"
       gradientUnits="userSpaceOnUse"
       y2="1038.3466"
       x2="10.007812"
       y1="1040.3622"
       x1="10"
       id="linearGradient5076-5-2"
       xlink:href="#linearGradient5068-6-9"
       inkscape:collect="always" /><linearGradient
       gradientTransform="translate(-15.015625,10.2734)"
       gradientUnits="userSpaceOnUse"
       y2="1038.3466"
       x2="10.007812"
       y1="1038.3622"
       x1="12"
       id="linearGradient5074-2-1"
       xlink:href="#linearGradient5068-6-9"
       inkscape:collect="always" /><linearGradient
       gradientTransform="translate(-15.015625,10.2734)"
       gradientUnits="userSpaceOnUse"
       y2="1043.3466"
       x2="14"
       y1="1041.3622"
       x1="14"
       id="linearGradient5088-1-4"
       xlink:href="#linearGradient5068-6-9"
       inkscape:collect="always" /><radialGradient
       inkscape:collect="always"
       xlink:href="#linearGradient4528-9-5-7-9"
       id="radialGradient3091-1-9-6"
       gradientUnits="userSpaceOnUse"
       gradientTransform="matrix(1.8508179,-8.813921e-6,8.4531434e-6,1.7750589,644.24981,572.63612)"
       cx="-757.20496"
       cy="-738.83777"
       fx="-757.20496"
       fy="-738.83777"
       r="3.4803574" /><linearGradient
       id="linearGradient4528-9-5-7-9"><stop
         style="stop-color:#e0c576;stop-opacity:1;"
         offset="0"
         id="stop4530-0-5-0-5" /><stop
         style="stop-color:#9e7916;stop-opacity:1"
         offset="1"
         id="stop4532-7-9-3-3" /></linearGradient><linearGradient
       inkscape:collect="always"
       xlink:href="#linearGradient6281-8-0-1-6-6-4-2"
       id="linearGradient3093-5-2-7"
       gradientUnits="userSpaceOnUse"
       gradientTransform="matrix(2.3199889,0,0,2.3199889,10.199693,1043.1852)"
       x1="0.9375"
       y1="4.8437853"
       x2="0.9375"
       y2="7.549418" /><linearGradient
       id="linearGradient6281-8-0-1-6-6-4-2"><stop
         id="stop6283-0-2-2-1-2-0-1"
         offset="0"
         style="stop-color:#f7f9fb;stop-opacity:1" /><stop
         id="stop6285-5-0-9-7-6-9-9"
         offset="1"
         style="stop-color:#ffd680;stop-opacity:1" /></linearGradient><radialGradient
       inkscape:collect="always"
       xlink:href="#linearGradient3844-6"
       id="radialGradient5366-0-9"
       gradientUnits="userSpaceOnUse"
       gradientTransform="matrix(0.3089145,0.02433326,-0.0270668,0.33136796,5.4628028,1.7171329)"
       cx="7.7379637"
       cy="2.4332652"
       fx="7.7379637"
       fy="2.4332652"
       r="2.3503494" /><linearGradient
       id="linearGradient3844-6"><stop
         id="stop3846-3"
         offset="0"
         style="stop-color:#ffffff;stop-opacity:1;" /><stop
         style="stop-color:#dddddd;stop-opacity:1;"
         offset="0.61245775"
         id="stop3848-7" /><stop
         id="stop3850-1"
         offset="1"
         style="stop-color:#464646;stop-opacity:1;" /></linearGradient><linearGradient
       inkscape:collect="always"
       xlink:href="#linearGradient3860-2"
       id="linearGradient5368-1-5"
       gradientUnits="userSpaceOnUse"
       x1="7.8304267"
       y1="5.5753322"
       x2="7.8018494"
       y2="1.9306878" /><linearGradient
       id="linearGradient3860-2"><stop
         id="stop3862-3"
         offset="0"
         style="stop-color:#424242;stop-opacity:1" /><stop
         id="stop3864-4"
         offset="1"
         style="stop-color:#6b6b6b;stop-opacity:1;" /></linearGradient><radialGradient
       inkscape:collect="always"
       xlink:href="#linearGradient3844-0"
       id="radialGradient5366-0-5"
       gradientUnits="userSpaceOnUse"
       gradientTransform="matrix(0.3089145,0.02433326,-0.0270668,0.33136796,5.4628028,1.7171329)"
       cx="7.7379637"
       cy="2.4332652"
       fx="7.7379637"
       fy="2.4332652"
       r="2.3503494" /><linearGradient
       id="linearGradient3844-0"><stop
         id="stop3846-36"
         offset="0"
         style="stop-color:#ffffff;stop-opacity:1;" /><stop
         style="stop-color:#dddddd;stop-opacity:1;"
         offset="0.61245775"
         id="stop3848-6" /><stop
         id="stop3850-5"
         offset="1"
         style="stop-color:#464646;stop-opacity:1;" /></linearGradient><linearGradient
       inkscape:collect="always"
       xlink:href="#linearGradient3860-0"
       id="linearGradient5368-1-0"
       gradientUnits="userSpaceOnUse"
       x1="7.8304267"
       y1="5.5753322"
       x2="7.8018494"
       y2="1.9306878" /><linearGradient
       id="linearGradient3860-0"><stop
         id="stop3862-6"
         offset="0"
         style="stop-color:#424242;stop-opacity:1" /><stop
         id="stop3864-0"
         offset="1"
         style="stop-color:#6b6b6b;stop-opacity:1;" /></linearGradient><radialGradient
       inkscape:collect="always"
       xlink:href="#linearGradient3844-8"
       id="radialGradient5366-0-7"
       gradientUnits="userSpaceOnUse"
       gradientTransform="matrix(0.3089145,0.02433326,-0.0270668,0.33136796,5.4628028,1.7171329)"
       cx="7.7379637"
       cy="2.4332652"
       fx="7.7379637"
       fy="2.4332652"
       r="2.3503494" /><linearGradient
       id="linearGradient3844-8"><stop
         id="stop3846-1"
         offset="0"
         style="stop-color:#ffffff;stop-opacity:1;" /><stop
         style="stop-color:#dddddd;stop-opacity:1;"
         offset="0.61245775"
         id="stop3848-4" /><stop
         id="stop3850-19"
         offset="1"
         style="stop-color:#464646;stop-opacity:1;" /></linearGradient><linearGradient
       inkscape:collect="always"
       xlink:href="#linearGradient3860-4"
       id="linearGradient5368-1-8"
       gradientUnits="userSpaceOnUse"
       x1="7.8304267"
       y1="5.5753322"
       x2="7.8018494"
       y2="1.9306878" /><linearGradient
       id="linearGradient3860-4"><stop
         id="stop3862-30"
         offset="0"
         style="stop-color:#424242;stop-opacity:1" /><stop
         id="stop3864-9"
         offset="1"
         style="stop-color:#6b6b6b;stop-opacity:1;" /></linearGradient><radialGradient
       inkscape:collect="always"
       xlink:href="#linearGradient3844-3"
       id="radialGradient5366-0-8"
       gradientUnits="userSpaceOnUse"
       gradientTransform="matrix(0.3089145,0.02433326,-0.0270668,0.33136796,5.4628028,1.7171329)"
       cx="7.7379637"
       cy="2.4332652"
       fx="7.7379637"
       fy="2.4332652"
       r="2.3503494" /><linearGradient
       id="linearGradient3844-3"><stop
         id="stop3846-7"
         offset="0"
         style="stop-color:#ffffff;stop-opacity:1;" /><stop
         style="stop-color:#dddddd;stop-opacity:1;"
         offset="0.61245775"
         id="stop3848-3" /><stop
         id="stop3850-3"
         offset="1"
         style="stop-color:#464646;stop-opacity:1;" /></linearGradient><linearGradient
       inkscape:collect="always"
       xlink:href="#linearGradient3860-9"
       id="linearGradient5368-1-7"
       gradientUnits="userSpaceOnUse"
       x1="7.8304267"
       y1="5.5753322"
       x2="7.8018494"
       y2="1.9306878" /><linearGradient
       id="linearGradient3860-9"><stop
         id="stop3862-5"
         offset="0"
         style="stop-color:#424242;stop-opacity:1" /><stop
         id="stop3864-2"
         offset="1"
         style="stop-color:#6b6b6b;stop-opacity:1;" /></linearGradient><radialGradient
       inkscape:collect="always"
       xlink:href="#linearGradient3852-6"
       id="radialGradient5374-4-8"
       gradientUnits="userSpaceOnUse"
       gradientTransform="matrix(0.35882709,-0.01458857,0.01251176,0.40537334,4.9838699,2.1071585)"
       cx="7.7274323"
       cy="2.8622203"
       fx="7.7274323"
       fy="2.8622203"
       r="2.3503494" /><linearGradient
       id="linearGradient3852-6"><stop
         id="stop3854-9"
         offset="0"
         style="stop-color:#ffffff;stop-opacity:1;" /><stop
         style="stop-color:#dddddd;stop-opacity:1;"
         offset="0.66561043"
         id="stop3856-8" /><stop
         id="stop3858-2"
         offset="1"
         style="stop-color:#464646;stop-opacity:1;" /></linearGradient><linearGradient
       inkscape:collect="always"
       xlink:href="#linearGradient3866-8"
       id="linearGradient5376-4-1"
       gradientUnits="userSpaceOnUse"
       x1="7.8451643"
       y1="5.6525216"
       x2="7.8451643"
       y2="1.0179684" /><linearGradient
       id="linearGradient3866-8"><stop
         id="stop3868-1"
         offset="0"
         style="stop-color:#717188;stop-opacity:1" /><stop
         id="stop3870-1"
         offset="1"
         style="stop-color:#6b6b6b;stop-opacity:1;" /></linearGradient><linearGradient
       y2="1.0179684"
       x2="7.8451643"
       y1="5.6525216"
       x1="7.8451643"
       gradientUnits="userSpaceOnUse"
       id="linearGradient4515"
       xlink:href="#linearGradient3866-8"
       inkscape:collect="always" /><radialGradient
       inkscape:collect="always"
       xlink:href="#linearGradient3852-4"
       id="radialGradient5374-4-7"
       gradientUnits="userSpaceOnUse"
       gradientTransform="matrix(0.35882709,-0.01458857,0.01251176,0.40537334,4.9838699,2.1071585)"
       cx="7.9300532"
       cy="1.7860492"
       fx="7.9300532"
       fy="1.7860492"
       r="2.3503494" /><linearGradient
       id="linearGradient3852-4"><stop
         id="stop3854-0"
         offset="0"
         style="stop-color:#ffffff;stop-opacity:1;" /><stop
         style="stop-color:#dddddd;stop-opacity:1;"
         offset="0.66561043"
         id="stop3856-5" /><stop
         id="stop3858-8"
         offset="1"
         style="stop-color:#464646;stop-opacity:1;" /></linearGradient><linearGradient
       inkscape:collect="always"
       xlink:href="#linearGradient3866-7"
       id="linearGradient5376-4-6"
       gradientUnits="userSpaceOnUse"
       x1="7.8451643"
       y1="5.6525216"
       x2="7.8451643"
       y2="1.0179684" /><linearGradient
       id="linearGradient3866-7"><stop
         id="stop3868-0"
         offset="0"
         style="stop-color:#717188;stop-opacity:1" /><stop
         id="stop3870-7"
         offset="1"
         style="stop-color:#6b6b6b;stop-opacity:1;" /></linearGradient><radialGradient
       inkscape:collect="always"
       xlink:href="#linearGradient3852-5"
       id="radialGradient5374-4-3"
       gradientUnits="userSpaceOnUse"
       gradientTransform="matrix(0.35882709,-0.01458857,0.01251176,0.40537334,4.9838699,2.1071585)"
       cx="7.9300532"
       cy="1.7860492"
       fx="7.9300532"
       fy="1.7860492"
       r="2.3503494" /><linearGradient
       id="linearGradient3852-5"><stop
         id="stop3854-1"
         offset="0"
         style="stop-color:#ffffff;stop-opacity:1;" /><stop
         style="stop-color:#dddddd;stop-opacity:1;"
         offset="0.66561043"
         id="stop3856-6" /><stop
         id="stop3858-4"
         offset="1"
         style="stop-color:#464646;stop-opacity:1;" /></linearGradient><linearGradient
       inkscape:collect="always"
       xlink:href="#linearGradient3866-3"
       id="linearGradient5376-4-0"
       gradientUnits="userSpaceOnUse"
       x1="7.8451643"
       y1="5.6525216"
       x2="7.8451643"
       y2="1.0179684" /><linearGradient
       id="linearGradient3866-3"><stop
         id="stop3868-6"
         offset="0"
         style="stop-color:#717188;stop-opacity:1" /><stop
         id="stop3870-4"
         offset="1"
         style="stop-color:#6b6b6b;stop-opacity:1;" /></linearGradient><radialGradient
       inkscape:collect="always"
       xlink:href="#linearGradient5328-5-9"
       id="radialGradient5370-9-4"
       gradientUnits="userSpaceOnUse"
       gradientTransform="matrix(0.37553419,-2.0140452e-8,1.7614747e-8,0.40297829,4.9079328,2.1932289)"
       cx="7.9383807"
       cy="3.451864"
       fx="7.9383807"
       fy="3.451864"
       r="2.3503494" /><linearGradient
       id="linearGradient5328-5-9"><stop
         style="stop-color:#ffffff;stop-opacity:1;"
         offset="0"
         id="stop5330-9-7" /><stop
         id="stop3842-2"
         offset="0.5"
         style="stop-color:#dddddd;stop-opacity:1;" /><stop
         style="stop-color:#464646;stop-opacity:1;"
         offset="1"
         id="stop5332-8-3" /></linearGradient><linearGradient
       inkscape:collect="always"
       xlink:href="#linearGradient5209-0-2"
       id="linearGradient5372-5-0"
       gradientUnits="userSpaceOnUse"
       x1="7.8304267"
       y1="5.9680095"
       x2="7.8890662"
       y2="3.584255" /><linearGradient
       id="linearGradient5209-0-2"><stop
         style="stop-color:#4c4c4c;stop-opacity:1"
         offset="0"
         id="stop5211-9-4" /><stop
         style="stop-color:#6b6b6b;stop-opacity:1;"
         offset="1"
         id="stop5213-4-2" /></linearGradient><radialGradient
       inkscape:collect="always"
       xlink:href="#linearGradient5328-5-4"
       id="radialGradient5370-9-6"
       gradientUnits="userSpaceOnUse"
       gradientTransform="matrix(0.37553419,-2.0140452e-8,1.7614747e-8,0.40297829,4.9079328,2.1932289)"
       cx="7.9383807"
       cy="3.451864"
       fx="7.9383807"
       fy="3.451864"
       r="2.3503494" /><linearGradient
       id="linearGradient5328-5-4"><stop
         style="stop-color:#ffffff;stop-opacity:1;"
         offset="0"
         id="stop5330-9-9" /><stop
         id="stop3842-7"
         offset="0.5"
         style="stop-color:#dddddd;stop-opacity:1;" /><stop
         style="stop-color:#464646;stop-opacity:1;"
         offset="1"
         id="stop5332-8-0" /></linearGradient><linearGradient
       inkscape:collect="always"
       xlink:href="#linearGradient5209-0-7"
       id="linearGradient5372-5-6"
       gradientUnits="userSpaceOnUse"
       x1="7.8304267"
       y1="5.9680095"
       x2="7.8890662"
       y2="3.584255" /><linearGradient
       id="linearGradient5209-0-7"><stop
         style="stop-color:#4c4c4c;stop-opacity:1"
         offset="0"
         id="stop5211-9-9" /><stop
         style="stop-color:#6b6b6b;stop-opacity:1;"
         offset="1"
         id="stop5213-4-4" /></linearGradient><linearGradient
       id="linearGradient10798-1-9-3-7-1-15-1-7-6-1"><stop
         style="stop-color:#4f9e55;stop-opacity:1"
         offset="0"
         id="stop10800-5-2-1-8-2-8-1-7-3-7" /><stop
         id="stop10806-6-8-5-3-2-95-0-5-4-8"
         offset="0.5"
         style="stop-color:#3c8d49;stop-opacity:1;" /><stop
         style="stop-color:#a4e173;stop-opacity:1;"
         offset="1"
         id="stop10802-1-5-3-0-2-0-9-8-4-3" /></linearGradient><linearGradient
       id="linearGradient4929"><stop
         style="stop-color:#d5f3ff;stop-opacity:1;"
         offset="0"
         id="stop4931" /><stop
         style="stop-color:#ffffff;stop-opacity:1;"
         offset="1"
         id="stop4934" /></linearGradient><linearGradient
       id="linearGradient4900"><stop
         style="stop-color:#8fb7e6;stop-opacity:1;"
         offset="0"
         id="stop4902" /><stop
         style="stop-color:#89b2e3;stop-opacity:1;"
         offset="1"
         id="stop4904" /></linearGradient><linearGradient
       id="linearGradient4839"><stop
         style="stop-color:#8db6e5;stop-opacity:1;"
         offset="0"
         id="stop4841" /><stop
         style="stop-color:#8eb6e5;stop-opacity:1;"
         offset="1"
         id="stop4843" /></linearGradient><linearGradient
       id="linearGradient4881"><stop
         style="stop-color:#68b3e1;stop-opacity:1;"
         offset="0"
         id="stop4883" /><stop
         style="stop-color:#ffffff;stop-opacity:1;"
         offset="1"
         id="stop4885" /></linearGradient></defs><sodipodi:namedview
     id="base"
     pagecolor="#ffffff"
     bordercolor="#666666"
     borderopacity="1.0"
     inkscape:pageopacity="0.0"
     inkscape:pageshadow="2"
     inkscape:zoom="45.254834"
     inkscape:cx="9.8994949"
     inkscape:cy="8.6952037"
     inkscape:document-units="px"
     inkscape:current-layer="layer1"
     showgrid="true"
     inkscape:window-width="1920"
     inkscape:window-height="991"
     inkscape:window-x="-9"
     inkscape:window-y="-9"
     inkscape:window-maximized="1"
     showguides="true"
     inkscape:guide-bbox="true"
     inkscape:snap-global="false"
     inkscape:showpageshadow="0"
     inkscape:pagecheckerboard="0"
     inkscape:deskcolor="#505050"><inkscape:grid
       type="xygrid"
       id="grid3006"
       originx="0"
       originy="0"
       spacingy="1"
       spacingx="1"
       units="px"
       visible="true" /></sodipodi:namedview><metadata
     id="metadata7"><rdf:RDF><cc:Work
         rdf:about=""><dc:format>image/svg+xml</dc:format><dc:type
           rdf:resource="http://purl.org/dc/dcmitype/StillImage" /></cc:Work></rdf:RDF></metadata><g
     inkscape:label="Layer 1"
     inkscape:groupmode="layer"
     id="layer1"
     style="display:inline"
     transform="translate(0,-1036.3622)"><path
       style="display:inline;fill:#ff0000;fill-opacity:0.989967;stroke-width:0.547;stroke-linecap:square;stroke-opacity:0.945098;paint-order:markers stroke fill"
       d="m 9.4992204,1048.8826 -1.8577939,2.2783 a 0.35639273,0.35639273 152.12382 0 1 -0.2454622,0.1298 2.5615368,2.5615368 178.42175 0 1 -0.2546652,0.01 l -0.019599,-2e-4 a 2.0002143,2.0002143 5.0629191 0 1 -0.2994796,-0.027 l -0.210083,-0.035 a 0.36703117,0.36703117 31.629752 0 1 -0.2371279,-0.1461 l -0.083682,-0.1931 c -0.033109,-0.076 -0.072864,-0.2058 -0.087389,-0.2894 -0.00196,-0.011 -0.00392,-0.023 -0.00586,-0.034 -0.013625,-0.081 -0.028482,-0.2134 -0.034619,-0.2964 -0.0037,-0.05 -0.00744,-0.1041 -0.010687,-0.1525 -0.00558,-0.083 -0.00151,-0.2176 0.010344,-0.3005 0.010992,-0.077 0.025478,-0.1702 0.040844,-0.2481 0.015842,-0.08 0.06871,-0.2034 0.1059545,-0.2779 0.058448,-0.1169 0.1397119,-0.2795 0.1965845,-0.3933 0.037219,-0.074 0.1147086,-0.183 0.1728218,-0.2428 0.1173382,-0.1207 0.3052835,-0.3155 0.4184354,-0.4403 0.05518,-0.061 0.1290995,-0.1728 0.1753437,-0.242 0.1074856,-0.1608 0.2962929,-0.432 0.407272,-0.59 0.047625,-0.068 0.1271681,-0.1764 0.1769034,-0.2431 0.062521,-0.084 0.1446131,-0.1943 0.206571,-0.2776 0.0497,-0.067 0.064339,-0.1833 0.032707,-0.2603 l -0.1395659,-0.3399 a 3.1398127,3.1398127 64.921913 0 0 -0.1276469,-0.2727 l -0.069179,-0.1311 a 1.7867385,1.7867385 57.350267 0 0 -0.1620868,-0.2529 l -0.070686,-0.092 a 4.5640811,4.5640811 54.419272 0 1 -0.1753351,-0.245 l -0.2084104,-0.3127 a 20.782479,20.782479 55.895471 0 0 -0.1690509,-0.2496 1.2322323,1.2322323 62.480474 0 1 -0.09878,-0.1896 l -0.051423,-0.1125 a 0.69236862,0.69236862 77.716441 0 1 -0.062677,-0.2879 v -0.1514 c 0,-0.083 0.046256,-0.1999 0.1033415,-0.2605 0.1035734,-0.11 0.262296,-0.2784 0.3671354,-0.389 0.057238,-0.06 0.1509376,-0.1576 0.2082213,-0.2181 0.1022611,-0.108 0.2552735,-0.2706 0.3561727,-0.3778 0.05697,-0.061 0.1700098,-0.1188 0.2525113,-0.13 l 0.1873715,-0.025 c 0.082502,-0.011 0.1902742,0.034 0.2405166,0.1 0.076904,0.1018 0.1865424,0.2476 0.264051,0.3535 0.04904,0.067 0.1269966,0.1772 0.1803005,0.2412 0.1373753,0.1649 0.3869815,0.4507 0.525428,0.6086 0.054712,0.062 0.1582348,0.1455 0.2311588,0.1856 0.1175476,0.065 0.2889079,0.1588 0.4081748,0.2227 0.0733,0.039 0.201828,0.07 0.282743,0.052 0.05593,-0.012 0.118732,-0.028 0.17346,-0.043 0.07848,-0.021 0.184663,-0.092 0.237726,-0.1558 l 0.512497,-0.6196 a 14.578885,14.578885 129.00034 0 0 0.189735,-0.2343 l 0.406744,-0.5131 c 0.05172,-0.065 0.136219,-0.171 0.189156,-0.236 0.06113,-0.075 0.140597,-0.1717 0.204058,-0.2459 0.05356,-0.063 0.149376,-0.1569 0.205576,-0.2183 0.06766,-0.074 0.153196,-0.1705 0.218428,-0.2446 0.05485,-0.062 0.153746,-0.1533 0.222118,-0.2016 0.06698,-0.047 0.150489,-0.1049 0.221773,-0.1498 0.06932,-0.044 0.198988,-0.077 0.279877,-0.059 0.07868,0.018 0.170886,0.047 0.244845,0.072 0.07547,0.026 0.185067,0.095 0.245777,0.1519 l 0.418953,0.3931 a 0.67643785,0.67643785 55.745751 0 1 0.165643,0.2433 l 0.111548,0.2804 a 0.63444022,0.63444022 81.675983 0 1 0.04247,0.2903 l -0.0067,0.075 a 0.39751074,0.39751074 115.81127 0 1 -0.122747,0.2538 l -0.399724,0.3783 c -0.06047,0.057 -0.157268,0.1514 -0.216197,0.2103 -0.114556,0.1146 -0.296268,0.2963 -0.416572,0.4166 -0.05881,0.059 -0.1538,0.1547 -0.210852,0.2153 -0.10132,0.1077 -0.240973,0.2591 -0.344011,0.3684 -0.05691,0.06 -0.151176,0.1568 -0.207038,0.2185 -0.103186,0.114 -0.243174,0.2756 -0.336023,0.3893 -0.05247,0.064 -0.127132,0.1765 -0.17069,0.2475 -0.05296,0.086 -0.118906,0.195 -0.169036,0.2811 -0.04178,0.072 -0.08728,0.1982 -0.09289,0.281 -0.0076,0.1125 -0.0105,0.2628 -0.0116,0.376 -7.99e-4,0.082 0.0033,0.2165 0.01575,0.2989 0.01277,0.085 0.03154,0.1869 0.05096,0.2706 0.01864,0.08 0.07816,0.2008 0.125752,0.2691 0.09899,0.1421 0.260972,0.3631 0.361436,0.4993 0.04925,0.067 0.126964,0.1768 0.173204,0.2461 0.06481,0.097 0.15402,0.231 0.218291,0.3292 0.04554,0.07 0.108654,0.1888 0.140617,0.2658 0.04113,0.099 0.09367,0.2316 0.127951,0.3349 0.02578,0.078 0.03881,0.2113 0.04665,0.2942 0.0082,0.086 0.01866,0.1899 0.02352,0.2751 0.0047,0.082 -0.01852,0.214 -0.03749,0.2951 -0.02337,0.1 -0.05298,0.2278 -0.07549,0.3253 -0.01871,0.081 -0.08718,0.1884 -0.152489,0.2405 -0.02137,0.017 -0.04367,0.035 -0.0651,0.052 -0.0644,0.052 -0.167807,0.1386 -0.236853,0.1851 -0.113063,0.076 -0.279234,0.1822 -0.396564,0.2483 -0.07046,0.04 -0.200502,0.059 -0.283634,0.053 -0.07216,-0 -0.157119,-0.011 -0.228233,-0.016 -0.08292,-0.01 -0.203299,-0.053 -0.268899,-0.1042 l -0.110079,-0.086 a 2.3757465,2.3757465 41.640673 0 1 -0.224871,-0.1999 l -0.33243,-0.3356 a 3.6527148,3.6527148 47.634836 0 1 -0.202998,-0.2226 l -0.275359,-0.3281 a 1.9536607,1.9536607 54.410611 0 1 -0.174948,-0.2445 l -0.09127,-0.1508 a 6.4787555,6.4787555 56.778618 0 0 -0.2532574,-0.3867 l -0.050446,-0.071 a 0.17574189,0.17574189 1.9649234 0 0 -0.2796887,-0.01 z"
       id="path2"
       sodipodi:nodetypes="cccccccccccccccccccccccccccccccccccccccsccscccscccscccccc"
       inkscape:path-effect="#path-effect2"
       inkscape:original-d="m 9.6453785,1048.7034 -2.0992233,2.5743 -0.2541165,0.022 -0.321078,-0 -0.5075628,-0.084 -0.088388,-0.1215 -0.1436311,-0.3314 c 0,0 -0.044194,-0.2321 -0.055243,-0.3315 -0.011049,-0.099 -0.033146,-0.453 -0.033146,-0.453 0,0 0.055243,-0.453 0.099437,-0.5414 0.044194,-0.088 0.3314564,-0.6629 0.3314564,-0.6629 0,0 0.5966213,-0.6077 0.6187184,-0.6629 0.022097,-0.055 0.5413786,-0.7955 0.5745242,-0.8397 0.033146,-0.044 0.3866991,-0.5193 0.3866991,-0.5193 l -0.2541163,-0.6187 -0.2099224,-0.3977 -0.2541165,-0.3315 -0.3756504,-0.5635 -0.121534,-0.1767 -0.1767767,-0.3867 v -0.453 c 0,0 0.5303301,-0.5635 0.5745242,-0.6077 0.044194,-0.044 0.5634758,-0.5966 0.5634758,-0.5966 l 0.4861359,-0.066 c 0,0 0.386699,0.5082 0.4419417,0.5966 0.055243,0.088 0.7181553,0.8397 0.7181553,0.8397 0,0 0.6187185,0.3425 0.6739615,0.3646 0.05524,0.022 0.464039,-0.099 0.464039,-0.099 l 0.704655,-0.852 0.594056,-0.7493 c 0,0 0.34507,-0.4296 0.400313,-0.4738 0.05524,-0.044 0.422296,-0.4661 0.422296,-0.4661 0,0 0.37565,-0.2762 0.475087,-0.3094 0.09944,-0.033 0.53033,0.1326 0.53033,0.1326 l 0.638805,0.5995 0.222982,0.5606 -0.03315,0.3757 -0.618718,0.5855 c 0,0 -0.53033,0.5304 -0.629767,0.6298 -0.09944,0.099 -0.441942,0.4751 -0.552428,0.5856 -0.110485,0.1105 -0.475087,0.5303 -0.53033,0.6187 -0.05524,0.088 -0.287262,0.464 -0.320407,0.5414 -0.03315,0.077 -0.03315,0.5855 -0.03315,0.6739 0,0.088 0.06629,0.4751 0.110485,0.5635 0.0442,0.088 0.533451,0.7462 0.533451,0.7462 0,0 0.360696,0.5375 0.382793,0.5817 0.0221,0.044 0.223537,0.5179 0.223537,0.6173 0,0.099 0.05402,0.4855 0.03192,0.5739 -0.0221,0.088 -0.144187,0.6187 -0.144187,0.6187 0,0 -0.254117,0.1989 -0.298311,0.2431 -0.04419,0.044 -0.585572,0.3977 -0.651864,0.3977 -0.06629,0 -0.528989,-0.036 -0.528989,-0.036 l -0.347637,-0.2717 -0.544614,-0.5498 -0.469171,-0.5591 -0.2890428,-0.4777 z" /><path
       style="display:inline;fill:#00c202;stroke-width:0.547;stroke-linecap:square;stroke-opacity:0.945098;paint-order:markers stroke fill;fill-opacity:1"
       d="m 3.9049956,1042.6609 c -0.1546405,-0.165 -0.4954423,-0.4263 -0.7828308,-0.5315 -0.069402,-0.025 -0.405731,-0.011 -0.7451164,0.028 -0.2255867,0.026 -0.5856262,0.2613 -0.8043712,0.5238 a 3.7440027,3.7440027 120.33976 0 0 -0.3689361,0.6303 2.2476416,2.2476416 102.87868 0 0 -0.1728167,0.7559 1.8704973,1.8704973 79.904171 0 0 0.1415796,0.7951 c 0.06006,0.2069 0.2138135,0.631 0.3463147,0.9462 0.033389,0.079 0.067907,0.161 0.1018367,0.2406 0.1338277,0.3137 0.4289682,0.7782 0.6649482,1.025 0.021093,0.022 0.042294,0.044 0.063423,0.066 0.2364981,0.2455 0.6768467,0.5705 0.9786053,0.7308 a 0.79449886,0.79449886 168.65371 0 0 0.9054378,-0.1816 l 0.06511,-0.061 c 0.2495333,-0.2334 0.6483113,-0.6179 0.8854958,-0.8638 0.1611178,-0.1671 0.4511426,-0.5305 0.6517445,-0.8071 0.1375603,-0.1897 0.2925104,-0.4044 0.4284816,-0.5932 0.1996563,-0.2773 0.5176643,-0.7308 0.7107986,-1.0127 l 0.456849,-0.6667 c 0.1931343,-0.2819 0.532111,-0.7189 0.7568155,-0.9763 0.1961065,-0.2247 0.4308322,-0.494 0.6276128,-0.7208 0.2238685,-0.2581 0.5909906,-0.6728 0.8332846,-0.9137 0.1495738,-0.1486 0.3177984,-0.3139 0.4726759,-0.4659 0.243703,-0.2391 0.635167,-0.6308 0.8725,-0.8767 0.205635,-0.213 0.42929,-0.4462 0.581026,-0.6046 0.100761,-0.1052 0.185323,-0.3087 0.188992,-0.4544 a 2.6389465,2.6389465 85.916593 0 0 -0.01884,-0.2639 0.45168338,0.45168338 56.30035 0 0 -0.245947,-0.3688 l -0.296236,-0.1505 a 0.81267757,0.81267757 9.8177406 0 0 -0.471076,-0.082 l -0.242078,0.031 a 2.5399624,2.5399624 163.07486 0 0 -0.8135798,0.2476 c -0.2356798,0.1178 -0.6224041,0.4095 -0.8699178,0.6452 -0.1358297,0.1294 -0.4471253,0.4248 -0.6752559,0.6793 -0.1797374,0.2006 -0.5352161,0.5463 -0.7612049,0.8024 -0.09248,0.1048 -0.1893085,0.2166 -0.28006,0.3232 -0.2209499,0.2597 -0.5604135,0.6974 -0.7909437,0.9494 -0.2152009,0.2353 -0.5633569,0.6424 -0.7887181,0.8996 -0.061187,0.07 -0.1228573,0.1399 -0.1800493,0.2048 -0.1477941,0.1677 -0.3911785,0.4365 -0.5430285,0.601 a 0.38350514,0.38350514 9.7906615 0 1 -0.4593963,-0.079 z"
       id="path1"
       sodipodi:nodetypes="ccscccccccccccccccccccccsssccc"
       inkscape:original-d="M 4.328125,1043.1123 3.625,1042.3622 c 0,0 -0.5074199,-0.2662 -0.6324199,-0.2662 -0.125,0 -1.0238301,0.11 -1.0238301,0.11 L 1.5,1042.7685 1.125,1043.456 1,1044.2685 l 0.28125,0.9687 c 0,0 0.5,1.2188 0.59375,1.375 0.09375,0.1563 0.90625,0.9688 0.90625,0.9688 l 1,0.5312 0.96875,-0.9062 c 0,0 0.59375,-0.5938 0.71875,-0.75 0.125,-0.1563 1.15625,-1.5938 1.15625,-1.5938 l 1.15625,-1.6875 c 0,0 1.3125,-1.5 1.4375,-1.6562 0.125,-0.1563 1.0625,-1.0626 1.34375,-1.3438 0.28125,-0.2813 1.195312,-1.2382 1.195312,-1.2382 l 0.0069,-0.274 -0.03818,-0.5073 -0.746093,-0.3789 -0.917969,0.1174 -0.8125,0.4062 c 0,0 -0.5699199,0.5662 -0.6949199,0.6599 -0.125,0.094 -0.6046359,0.6784 -0.7608859,0.8034 -0.15625,0.125 -0.967017,1.0661 -1.092017,1.2536 -0.125,0.1875 -0.6949199,0.7738 -0.7886699,0.8988 -0.09375,0.125 -0.8510073,0.9781 -0.8510073,0.9781 l -0.375,0.4062 z"
       inkscape:path-effect="#path-effect1" /></g></svg>
