<?xml version="1.0" encoding="UTF-8" standalone="no"?>
<!-- Created with Inkscape (http://www.inkscape.org/) -->

<svg
   width="16"
   height="16"
   id="svg2"
   version="1.1"
   xml:space="preserve"
   xmlns="http://www.w3.org/2000/svg"
   xmlns:svg="http://www.w3.org/2000/svg"
   xmlns:rdf="http://www.w3.org/1999/02/22-rdf-syntax-ns#"
   xmlns:cc="http://creativecommons.org/ns#"
   xmlns:dc="http://purl.org/dc/elements/1.1/"><defs
     id="defs4" /><metadata
     id="metadata7"><rdf:RDF><cc:Work
         rdf:about=""><dc:format>image/svg+xml</dc:format><dc:type
           rdf:resource="http://purl.org/dc/dcmitype/StillImage" /></cc:Work></rdf:RDF></metadata><g
     id="layer1"
     style="display:inline"
     transform="translate(0,-1036.3622)"><path
       style="display:inline;fill:#3d3d3d;fill-opacity:1;stroke-width:0.547;stroke-linecap:square;stroke-opacity:0.945098;paint-order:markers stroke fill"
       d="m 9.4992204,1048.8826 -1.8577939,2.2783 a 0.35639273,0.35639273 152.12382 0 1 -0.2454622,0.1298 2.9518172,2.9518172 177.97669 0 1 -0.2546783,0.01 h -0.019573 a 1.8342103,1.8342103 4.6985455 0 1 -0.2994823,-0.025 l -0.2101036,-0.035 a 0.36725061,0.36725061 31.641794 0 1 -0.2371176,-0.1461 l -0.083682,-0.1931 c -0.033109,-0.076 -0.072864,-0.2058 -0.087389,-0.2894 -0.00196,-0.011 -0.00392,-0.023 -0.00586,-0.034 -0.013625,-0.081 -0.028481,-0.2134 -0.034617,-0.2964 -0.0037,-0.05 -0.00743,-0.104 -0.01068,-0.1524 -0.00558,-0.083 -0.00156,-0.2174 0.010223,-0.2998 0.010969,-0.077 0.025441,-0.1701 0.040803,-0.2481 0.0159,-0.081 0.068864,-0.2042 0.1061082,-0.2787 0.058448,-0.1169 0.1397119,-0.2795 0.1965845,-0.3933 0.037219,-0.074 0.1146459,-0.183 0.1726823,-0.2427 0.1172824,-0.1206 0.3052295,-0.3154 0.4184406,-0.4402 0.055257,-0.061 0.1292338,-0.173 0.175478,-0.2422 0.1074856,-0.1608 0.2962929,-0.432 0.407272,-0.59 0.047625,-0.068 0.1271681,-0.1764 0.1769034,-0.2431 0.062521,-0.084 0.1446131,-0.1943 0.206571,-0.2776 0.0497,-0.067 0.064339,-0.1833 0.032707,-0.2603 l -0.1395659,-0.3399 a 3.1398127,3.1398127 64.921913 0 0 -0.1276469,-0.2727 l -0.069179,-0.1311 a 1.7867385,1.7867385 57.350267 0 0 -0.1620868,-0.2529 l -0.070686,-0.092 a 4.5640811,4.5640811 54.419272 0 1 -0.1753351,-0.245 l -0.2084104,-0.3127 a 20.782479,20.782479 55.895471 0 0 -0.1690509,-0.2496 1.2322323,1.2322323 62.480474 0 1 -0.09878,-0.1896 l -0.051423,-0.1125 a 0.69236862,0.69236862 77.716441 0 1 -0.062677,-0.2879 l 0,-0.1514 c 0,-0.083 0.046256,-0.1999 0.1033415,-0.2605 0.1035734,-0.11 0.262296,-0.2784 0.3671354,-0.389 0.057238,-0.06 0.1509376,-0.1576 0.2082213,-0.2181 0.1022611,-0.108 0.2552735,-0.2706 0.3561727,-0.3778 0.05697,-0.061 0.1700098,-0.1188 0.2525113,-0.13 l 0.1873715,-0.025 c 0.082502,-0.011 0.1902742,0.034 0.2405166,0.1 0.076904,0.1018 0.1865424,0.2476 0.264051,0.3535 0.04904,0.067 0.1269966,0.1772 0.1803005,0.2412 0.1373753,0.1649 0.3869815,0.4507 0.525428,0.6086 0.054712,0.062 0.1582348,0.1455 0.2311588,0.1856 0.1175476,0.065 0.2889079,0.1588 0.4081748,0.2227 0.0733,0.039 0.201828,0.07 0.282743,0.052 0.05593,-0.012 0.118732,-0.028 0.17346,-0.043 0.07848,-0.021 0.184663,-0.092 0.237726,-0.1558 l 0.512497,-0.6196 a 14.578885,14.578885 129.00034 0 0 0.189735,-0.2343 l 0.406744,-0.5131 c 0.05172,-0.065 0.135939,-0.1707 0.188525,-0.2352 0.06101,-0.075 0.140467,-0.1716 0.204039,-0.2459 0.05391,-0.063 0.150026,-0.1577 0.206226,-0.2191 0.06766,-0.074 0.153196,-0.1705 0.218428,-0.2446 0.05485,-0.062 0.153746,-0.1533 0.222118,-0.2016 0.06698,-0.047 0.150489,-0.1049 0.221773,-0.1498 0.06932,-0.044 0.198988,-0.077 0.279877,-0.059 0.07868,0.018 0.170886,0.047 0.244845,0.072 0.07547,0.026 0.185067,0.095 0.245777,0.1519 l 0.418953,0.3931 a 0.67643785,0.67643785 55.745751 0 1 0.165643,0.2433 l 0.111548,0.2804 a 0.63444022,0.63444022 81.675983 0 1 0.04247,0.2903 l -0.0067,0.075 a 0.39751074,0.39751074 115.81127 0 1 -0.122747,0.2538 l -0.399724,0.3783 c -0.06047,0.057 -0.157268,0.1514 -0.216197,0.2103 -0.114556,0.1146 -0.296268,0.2963 -0.416572,0.4166 -0.05881,0.059 -0.1538,0.1547 -0.210852,0.2153 -0.10132,0.1077 -0.240973,0.2591 -0.344011,0.3684 -0.05691,0.06 -0.151176,0.1568 -0.207038,0.2185 -0.103186,0.114 -0.243174,0.2756 -0.336023,0.3893 -0.05247,0.064 -0.127132,0.1765 -0.17069,0.2475 -0.05296,0.086 -0.118906,0.195 -0.169036,0.2811 -0.04178,0.072 -0.08728,0.1982 -0.09289,0.281 -0.0076,0.1125 -0.0105,0.2628 -0.0116,0.376 -7.99e-4,0.082 0.0033,0.2165 0.01575,0.2989 0.01277,0.085 0.03154,0.1869 0.05096,0.2706 0.01864,0.08 0.07816,0.2008 0.125752,0.2691 0.09899,0.1421 0.260972,0.3631 0.361436,0.4993 0.04925,0.067 0.126964,0.1768 0.173204,0.2461 0.06481,0.097 0.15402,0.231 0.218291,0.3292 0.04554,0.07 0.108654,0.1888 0.140617,0.2658 0.04113,0.099 0.09367,0.2316 0.127951,0.3349 0.02578,0.078 0.03881,0.2113 0.04665,0.2942 0.0082,0.086 0.01866,0.1899 0.02352,0.2751 0.0047,0.082 -0.01852,0.214 -0.03749,0.2951 -0.02337,0.1 -0.05298,0.2278 -0.07549,0.3253 -0.01871,0.081 -0.08718,0.1884 -0.152489,0.2405 -0.02137,0.017 -0.04367,0.035 -0.0651,0.052 -0.0644,0.052 -0.167807,0.1386 -0.236853,0.1851 -0.113063,0.076 -0.279234,0.1822 -0.396564,0.2483 -0.07046,0.04 -0.200502,0.059 -0.283634,0.053 -0.07216,-0 -0.157119,-0.011 -0.228233,-0.016 -0.08292,-0.01 -0.203299,-0.053 -0.268899,-0.1042 l -0.110079,-0.086 a 2.3757465,2.3757465 41.640673 0 1 -0.224871,-0.1999 l -0.33243,-0.3356 a 3.6527148,3.6527148 47.634836 0 1 -0.202998,-0.2226 l -0.275359,-0.3281 a 1.9536607,1.9536607 54.410611 0 1 -0.174948,-0.2445 l -0.09127,-0.1508 a 6.881649,6.881649 56.898218 0 0 -0.2524679,-0.3873 l -0.052025,-0.074 a 0.17498156,0.17498156 2.084524 0 0 -0.2788992,-0.01 z"
       id="path2" /><path
       style="display:inline;fill:#01c304;stroke-width:0.547;stroke-linecap:square;stroke-opacity:0.945098;paint-order:markers stroke fill;fill-opacity:1"
       d="m 3.9050106,1042.6609 c -0.1546487,-0.165 -0.4954573,-0.4263 -0.7828458,-0.5315 -0.069402,-0.025 -0.405731,-0.011 -0.7451164,0.028 -0.2255867,0.026 -0.5856262,0.2613 -0.8043712,0.5238 a 3.7440027,3.7440027 120.33976 0 0 -0.3689361,0.6303 2.2476416,2.2476416 102.87868 0 0 -0.1728167,0.7559 1.8704973,1.8704973 79.904171 0 0 0.1415796,0.7951 c 0.06006,0.2069 0.2138135,0.631 0.3463147,0.9462 0.033389,0.079 0.067907,0.161 0.1018367,0.2406 0.1338277,0.3137 0.4289682,0.7782 0.6649482,1.025 0.021093,0.022 0.042294,0.044 0.063423,0.066 0.2364981,0.2455 0.6768467,0.5705 0.9786053,0.7308 a 0.79449886,0.79449886 168.65371 0 0 0.9054378,-0.1816 l 0.06511,-0.061 c 0.2495333,-0.2334 0.6483113,-0.6179 0.8854958,-0.8638 0.1611178,-0.1671 0.4511426,-0.5305 0.6517445,-0.8071 0.1375603,-0.1897 0.2925104,-0.4044 0.4284816,-0.5932 0.1996563,-0.2773 0.5176643,-0.7308 0.7107986,-1.0127 l 0.456849,-0.6667 c 0.1931343,-0.2819 0.532111,-0.7189 0.7568155,-0.9763 0.1961065,-0.2247 0.4308322,-0.494 0.6276128,-0.7208 0.2238685,-0.2581 0.5909906,-0.6728 0.8332846,-0.9137 0.1495738,-0.1486 0.3177984,-0.3139 0.4726756,-0.4659 0.243703,-0.2391 0.635167,-0.6308 0.8725,-0.8767 0.205635,-0.213 0.42929,-0.4462 0.581026,-0.6046 0.100761,-0.1052 0.185323,-0.3087 0.188992,-0.4544 a 2.6389465,2.6389465 85.916593 0 0 -0.01884,-0.2639 0.45168338,0.45168338 56.30035 0 0 -0.245947,-0.3688 l -0.296236,-0.1505 a 0.81267757,0.81267757 9.8177406 0 0 -0.471076,-0.082 l -0.242078,0.031 a 2.5399624,2.5399624 163.07486 0 0 -0.8135795,0.2476 c -0.2356798,0.1178 -0.6224041,0.4095 -0.8699178,0.6452 -0.1358297,0.1294 -0.4471253,0.4248 -0.6752559,0.6793 -0.1797374,0.2006 -0.5352161,0.5463 -0.7612049,0.8024 -0.09248,0.1048 -0.1893085,0.2166 -0.28006,0.3232 -0.2209499,0.2597 -0.5604135,0.6974 -0.7909437,0.9494 -0.2152009,0.2353 -0.5633569,0.6424 -0.7887181,0.8996 -0.061187,0.07 -0.1228573,0.1399 -0.1800493,0.2048 -0.1477941,0.1677 -0.3911785,0.4365 -0.5430285,0.601 a 0.38352554,0.38352554 9.7846057 0 1 -0.4593963,-0.079 z"
       id="path1" /><path
       style="display:inline;fill:#414969;fill-opacity:1;stroke-width:0.547;stroke-linecap:square;stroke-opacity:0.945098;paint-order:markers stroke fill"
       d="m 12.823453,1043.916 0.0039,-6.2722 -0.320408,-0.1105 -0.29831,0.1216 v 6.2424 l 0.305513,0.1779 z"
       id="path3"
       transform="translate(-0.16294539,0.03945399)" /><path
       style="display:inline;fill:#414969;fill-opacity:1;stroke-width:0.547;stroke-linecap:square;stroke-opacity:0.945098;paint-order:markers stroke fill"
       d="m 12.823453,1043.916 0.0039,-6.2722 -0.320408,-0.1105 -0.29831,0.1216 v 6.2424 l 0.305513,0.1779 z"
       id="path3-8"
       transform="rotate(64.022714,12.480608,1040.8484)" /><path
       style="display:inline;fill:#414969;fill-opacity:1;stroke-width:0.547;stroke-linecap:square;stroke-opacity:0.945098;paint-order:markers stroke fill"
       d="m 12.823453,1043.916 0.0039,-6.2722 -0.320408,-0.1105 -0.29831,0.1216 v 6.2424 l 0.305513,0.1779 z"
       id="path3-8-3"
       transform="rotate(120.58002,12.406995,1040.7351)" /></g></svg>
