<?xml version="1.0" encoding="UTF-8" standalone="no"?>
<svg
   xmlns:dc="http://purl.org/dc/elements/1.1/"
   xmlns:cc="http://creativecommons.org/ns#"
   xmlns:rdf="http://www.w3.org/1999/02/22-rdf-syntax-ns#"
   xmlns:svg="http://www.w3.org/2000/svg"
   xmlns="http://www.w3.org/2000/svg"
   xmlns:sodipodi="http://sodipodi.sourceforge.net/DTD/sodipodi-0.dtd"
   xmlns:inkscape="http://www.inkscape.org/namespaces/inkscape"
   version="1.1"
   x="0px"
   y="0px"
   viewBox="0 0 16 16"
   enable-background="new 0 0 100 100"
   xml:space="preserve"
   id="svg10"
   sodipodi:docname="firststeps16.svg"
   width="16"
   height="16"
   inkscape:version="0.92.4 (5da689c313, 2019-01-14)"><metadata
     id="metadata16"><rdf:RDF><cc:Work
         rdf:about=""><dc:format>image/svg+xml</dc:format><dc:type
           rdf:resource="http://purl.org/dc/dcmitype/StillImage" /><dc:title></dc:title></cc:Work></rdf:RDF></metadata><defs
     id="defs14" /><sodipodi:namedview
     pagecolor="#ffffff"
     bordercolor="#666666"
     borderopacity="1"
     objecttolerance="10"
     gridtolerance="10"
     guidetolerance="10"
     inkscape:pageopacity="0"
     inkscape:pageshadow="2"
     inkscape:window-width="1680"
     inkscape:window-height="987"
     id="namedview12"
     showgrid="false"
     inkscape:zoom="21.360282"
     inkscape:cx="24.645028"
     inkscape:cy="-0.86851882"
     inkscape:window-x="-8"
     inkscape:window-y="-8"
     inkscape:window-maximized="1"
     inkscape:current-layer="svg10" /><path
     d="M 8,1 C 4.1338223,1 1,4.1339779 1,8 c 0,3.866178 3.1338223,7 7,7 3.866177,0 7,-3.133822 7,-7 C 15,4.1339779 11.866177,1 8,1 Z M 8,13.8086 C 4.7971113,13.8086 2.1915556,11.202889 2.1915556,8 2.1915556,4.7971115 4.7971113,2.1914 8,2.1914 c 3.202889,0 5.8086,2.6057115 5.8086,5.8086 0,3.202889 -2.605711,5.8086 -5.8086,5.8086 z"
     id="path2"
     inkscape:connector-curvature="0"
     style="fill:#ea983f;fill-opacity:1;stroke:none;stroke-width:1;stroke-opacity:1" /><path
     d="m 10.458089,3.7427557 c -0.05724,-0.033294 -0.1302,-0.024421 -0.178111,0.021936 L 6.7166664,7.2119593 c -0.019916,0.019285 -0.034222,0.043864 -0.040916,0.070779 L 5.472062,12.091894 c -0.016178,0.06471 0.012442,0.13191 0.07,0.165355 0.023178,0.01338 0.049,0.01992 0.074516,0.01992 0.0378,0 0.075136,-0.01432 0.1035999,-0.042 l 3.563466,-3.4471119 c 0.019914,-0.019443 0.034378,-0.043864 0.041064,-0.070779 L 10.528085,3.9079627 c 0.01602,-0.064715 -0.01244,-0.1319115 -0.07,-0.1651999 z M 8,8.5446 c -0.301,0 -0.5446,-0.2437557 -0.5446,-0.5447557 0,-0.301 0.2437557,-0.5447558 0.5446,-0.5446 0.3011557,0 0.5447557,0.2436 0.5447557,0.5447557 0,0.3011558 -0.2436,0.5446 -0.5447557,0.5446 z"
     id="path4"
     inkscape:connector-curvature="0"
     style="fill:#ea983f;fill-opacity:1;stroke-width:1" /></svg>