<?xml version="1.0" encoding="UTF-8" standalone="no"?>
<!-- Created with Inkscape (http://www.inkscape.org/) -->

<svg
   version="1.1"
   id="svg1520"
   width="16"
   height="16"
   viewBox="0 0 16 16"
   xmlns="http://www.w3.org/2000/svg"
   xmlns:svg="http://www.w3.org/2000/svg"
   xmlns:rdf="http://www.w3.org/1999/02/22-rdf-syntax-ns#"
   xmlns:cc="http://creativecommons.org/ns#"
   xmlns:dc="http://purl.org/dc/elements/1.1/">
  <metadata
     id="metadata1526">
    <rdf:RDF>
      <cc:Work
         rdf:about="">
        <dc:format>image/svg+xml</dc:format>
        <dc:type
           rdf:resource="http://purl.org/dc/dcmitype/StillImage" />
        <dc:title />
      </cc:Work>
    </rdf:RDF>
  </metadata>
  <defs
     id="defs1524" />
  <path
     style="fill:#f7941e;fill-opacity:1;stroke:none;stroke-width:1px;stroke-linecap:butt;stroke-linejoin:miter;stroke-opacity:1"
     d="M 2.4526946,12 4,13.470659 11.440719,6.4598802 9.6550898,4.7125749 Z"
     id="path4114" />
  <path
     style="opacity:1;fill:#f7941e;fill-opacity:1;stroke:none;stroke-width:0.72372538;stroke-linecap:round;stroke-linejoin:round;stroke-miterlimit:4;stroke-dasharray:none;stroke-opacity:1"
     id="path2204"
     d="m -7.3040589,0.53518053 -1.9877238,-0.27886641 -1.4182483,1.42645328 0.278867,-1.98772387 -1.426454,-1.41824803 1.9877243,0.2788665 1.418248,-1.4264533 -0.2788664,1.98772385 z"
     transform="matrix(0.30699073,0.6189166,-0.6189166,0.30699073,8.549533,10.203015)" />
  <path
     style="opacity:1;fill:#f7941e;fill-opacity:1;stroke:none;stroke-width:1.45331621;stroke-linecap:round;stroke-linejoin:round;stroke-miterlimit:4;stroke-dasharray:none;stroke-opacity:1"
     id="path2204-7"
     d="m -7.3040589,0.53518053 -1.9877238,-0.27886641 -1.4182483,1.42645328 0.278867,-1.98772387 -1.426454,-1.41824803 1.9877243,0.2788665 1.418248,-1.4264533 -0.2788664,1.98772385 z"
     transform="matrix(0.15287588,0.30820937,-0.30820937,0.15287588,9.4827966,5.8221574)" />
  <path
     style="opacity:1;fill:#f7941e;fill-opacity:1;stroke:none;stroke-width:1.45331621;stroke-linecap:round;stroke-linejoin:round;stroke-miterlimit:4;stroke-dasharray:none;stroke-opacity:1"
     id="path2204-7-2"
     d="m -7.3040589,0.53518053 -1.9877238,-0.27886641 -1.4182483,1.42645328 0.278867,-1.98772387 -1.426454,-1.41824803 1.9877243,0.2788665 1.418248,-1.4264533 -0.2788664,1.98772385 z"
     transform="matrix(0.15287588,0.30820937,-0.30820937,0.15287588,4.9606411,5.783834)" />
  <path
     style="opacity:1;fill:#f7941e;fill-opacity:1;stroke:none;stroke-width:1.45331621;stroke-linecap:round;stroke-linejoin:round;stroke-miterlimit:4;stroke-dasharray:none;stroke-opacity:1"
     id="path2204-7-7"
     d="m -7.3040589,0.53518053 -1.9877238,-0.27886641 -1.4182483,1.42645328 0.278867,-1.98772387 -1.426454,-1.41824803 1.9877243,0.2788665 1.418248,-1.4264533 -0.2788664,1.98772385 z"
     transform="matrix(0.15287588,0.30820937,-0.30820937,0.15287588,14.043276,10.344313)" />
  <rect
     style="opacity:1;fill:none;fill-opacity:1;stroke:#f7941e;stroke-width:1.00000012;stroke-linecap:round;stroke-linejoin:round;stroke-miterlimit:4;stroke-dasharray:none;stroke-opacity:1"
     id="rect2200-7"
     width="13.511618"
     height="2.3844028"
     x="-6.753819"
     y="10.121508"
     rx="0.28056473"
     ry="0.28056473"
     transform="matrix(0.70698241,-0.70723113,0.70698241,0.70723113,0,0)" />
</svg>
