<?xml version="1.0" encoding="UTF-8" standalone="no"?>
<svg
   version="1.1"
   x="0px"
   y="0px"
   viewBox="0 0 16 16"
   xml:space="preserve"
   id="svg10"
   width="16"
   height="16"
   sodipodi:docname="webresources16.svg"
   inkscape:version="1.3.2 (091e20e, 2023-11-25, custom)"
   xmlns:inkscape="http://www.inkscape.org/namespaces/inkscape"
   xmlns:sodipodi="http://sodipodi.sourceforge.net/DTD/sodipodi-0.dtd"
   xmlns="http://www.w3.org/2000/svg"
   xmlns:svg="http://www.w3.org/2000/svg"><sodipodi:namedview
   id="namedview1"
   pagecolor="#ffffff"
   bordercolor="#000000"
   borderopacity="0.25"
   inkscape:showpageshadow="2"
   inkscape:pageopacity="0.0"
   inkscape:pagecheckerboard="0"
   inkscape:deskcolor="#d1d1d1"
   inkscape:zoom="24.28125"
   inkscape:cx="1.9150579"
   inkscape:cy="6.1981982"
   inkscape:window-width="1920"
   inkscape:window-height="991"
   inkscape:window-x="-9"
   inkscape:window-y="-9"
   inkscape:window-maximized="1"
   inkscape:current-layer="svg10" />
  <defs
   id="defs14" />
  <g
   id="g847"
   style="stroke-width:5.21429"
   transform="matrix(0.19178082,0,0,0.19178082,0.28359339,-0.74635557)">
    <path
   d="m 68.413549,22.430997 c -0.629,-0.763 -1.294,-1.494 -1.98,-2.204 -6.64,-6.85 -15.927,-11.121 -26.198,-11.121 -10.271,0 -19.558,4.271 -26.197,11.122 -0.687,0.709 -1.352,1.441 -1.98,2.204 -5.1980002,6.307 -8.3230002,14.382 -8.3230002,23.174 0,8.792 3.125,16.867 8.3220002,23.175 0.629,0.763 1.294,1.494 1.98,2.204 6.64,6.85 15.927,11.121 26.198,11.121 10.271,0 19.558,-4.271 26.197,-11.122 0.687,-0.709 1.352,-1.441 1.98,-2.204 5.198,-6.307 8.323,-14.382 8.323,-23.174 0,-8.792 -3.125,-16.867 -8.322,-23.175 z m -17.633,54.965 c 2.962,-2.843 5.49,-6.839 7.368,-11.633 2.152,0.959 4.141,2.084 5.924,3.352 -3.675,3.726 -8.216,6.593 -13.292,8.281 z m -34.382,-8.281 c 1.783,-1.268 3.771,-2.393 5.924,-3.352 1.878,4.794 4.406,8.791 7.368,11.633 -5.076,-1.688 -9.617,-4.555 -13.292,-8.281 z m 13.292,-55.299 c -2.962,2.843 -5.49,6.839 -7.368,11.633 -2.152,-0.959 -4.141,-2.084 -5.924,-3.352 3.675,-3.726 8.216,-6.593 13.292,-8.281 z m 34.382,8.281 c -1.783,1.268 -3.771,2.393 -5.924,3.352 -1.878,-4.794 -4.406,-8.791 -7.368,-11.633 5.076,1.688 9.617,4.555 13.292,8.281 z m -25.337,22.009 h -16.979 c 0.13,-5.334 0.953,-10.346 2.309,-14.751 4.455,1.605 9.42,2.568 14.67,2.723 z m 0,3 v 12.028 c -5.25,0.155 -10.215,1.118 -14.67,2.723 -1.355,-4.405 -2.179,-9.417 -2.309,-14.751 z m 3,0 h 16.979 c -0.13,5.334 -0.953,10.346 -2.309,14.751 -4.455,-1.605 -9.42,-2.568 -14.67,-2.723 z m 0,-3 v -12.028 c 5.25,-0.155 10.215,-1.118 14.67,-2.723 1.355,4.405 2.179,9.417 2.309,14.751 z m 13.698,-17.568 c -4.146,1.487 -8.784,2.389 -13.698,2.542 v -16.854 c 5.669,0.828 10.623,6.299 13.698,14.312 z m -16.698,2.541 c -4.914,-0.153 -9.553,-1.054 -13.698,-2.542 3.075,-8.013 8.029,-13.483 13.698,-14.312 z m -13.698,35.595 c 4.146,-1.487 8.784,-2.389 13.698,-2.542 v 16.854 c -5.669,-0.828 -10.623,-6.299 -13.698,-14.312 z m 16.698,-2.541 c 4.914,0.153 9.553,1.054 13.698,2.542 -3.075,8.012 -8.029,13.483 -13.698,14.311 z m -20.414,-33.87 c -1.517,4.748 -2.427,10.129 -2.563,15.843 H 6.7735488 c 0.332,-7.5 3.138,-14.368 7.6250002,-19.801 2.075,1.511 4.399,2.843 6.923,3.958 z m -2.564,18.843 c 0.137,5.714 1.047,11.095 2.563,15.843 -2.524,1.115 -4.848,2.447 -6.923,3.958 -4.4860002,-5.433 -7.2920002,-12.301 -7.6240002,-19.801 z m 40.392,15.843 c 1.517,-4.748 2.427,-10.129 2.563,-15.843 h 11.984 c -0.332,7.5 -3.138,14.368 -7.625,19.801 -2.074,-1.511 -4.398,-2.843 -6.922,-3.958 z m 2.564,-18.843 c -0.137,-5.714 -1.047,-11.095 -2.563,-15.843 2.524,-1.115 4.848,-2.447 6.923,-3.958 4.486,5.433 7.292,12.301 7.624,19.801 z"
   id="path845"
   style="fill:#ea983f;fill-opacity:1;stroke-width:5.21429" />
  </g>
</svg>
