<?xml version="1.0" encoding="UTF-8" standalone="no"?>
<!-- Created with Inkscape (http://www.inkscape.org/) -->

<svg
   width="16"
   height="16"
   id="svg2"
   version="1.1"
   xml:space="preserve"
   xmlns:xlink="http://www.w3.org/1999/xlink"
   xmlns="http://www.w3.org/2000/svg"
   xmlns:svg="http://www.w3.org/2000/svg"
   xmlns:rdf="http://www.w3.org/1999/02/22-rdf-syntax-ns#"
   xmlns:cc="http://creativecommons.org/ns#"
   xmlns:dc="http://purl.org/dc/elements/1.1/"><defs
     id="defs4"><linearGradient
       id="linearGradient5"><stop
         style="stop-color:#8b97a3;stop-opacity:1;"
         offset="0"
         id="stop5" /><stop
         style="stop-color:#ffffff;stop-opacity:1;"
         offset="1"
         id="stop6" /></linearGradient><filter
       style="color-interpolation-filters:sRGB"
       id="filter2"
       x="-0.14926855"
       y="-0.45522522"
       width="1.2985371"
       height="1.9104504"><feGaussianBlur
         stdDeviation="0.448 0.727"
         id="feGaussianBlur2" /></filter><filter
       style="color-interpolation-filters:sRGB"
       id="filter3"
       x="-0.065432493"
       y="-0.42503413"
       width="1.130865"
       height="1.8500683"><feGaussianBlur
         stdDeviation="0.236 0.545"
         id="feGaussianBlur3" /></filter><filter
       style="color-interpolation-filters:sRGB"
       id="filter4"
       x="-0.10591327"
       y="-0.084029431"
       width="1.2118332"
       height="1.1682064"><feGaussianBlur
         stdDeviation="0.088 0.047"
         id="feGaussianBlur4" /></filter><linearGradient
       xlink:href="#linearGradient5"
       id="linearGradient6"
       x1="10.562392"
       y1="1050.8373"
       x2="7.2298231"
       y2="1048.4935"
       gradientUnits="userSpaceOnUse"
       gradientTransform="matrix(0.99845886,0,0,1.0105171,0.05444527,-11.045671)" /></defs><metadata
     id="metadata7"><rdf:RDF><cc:Work
         rdf:about=""><dc:format>image/svg+xml</dc:format><dc:type
           rdf:resource="http://purl.org/dc/dcmitype/StillImage" /></cc:Work></rdf:RDF></metadata><g
     id="layer1"
     style="display:inline"
     transform="translate(0,-1036.3622)"><path
       style="mix-blend-mode:normal;fill:#fde3a4;fill-opacity:0.996078;stroke:#f4c241;stroke-width:1.49332;stroke-linecap:square;stroke-dasharray:none;stroke-opacity:0.882353;paint-order:markers stroke fill;filter:url(#filter4)"
       d="m 6.2755727,1047.698 c -0.018109,-0.036 -0.1252688,-0.2429 -0.2454566,-0.4746 -0.2059867,-0.3969 -0.5568774,-1.0313 -0.7833786,-1.4169 l -0.2374535,-0.4044 c -0.093901,-0.1599 -0.2372707,-0.4241 -0.3195594,-0.5904 -0.1030808,-0.2083 -0.2382641,-0.4835 -0.3342114,-0.6861 -0.064939,-0.1371 -0.1500115,-0.368 -0.1875159,-0.5153 -0.042897,-0.1684 -0.094088,-0.3839 -0.1376997,-0.5712 -0.054412,-0.2336 -0.094237,-0.6181 -0.09087,-0.8582 0.00178,-0.127 0.00377,-0.2702 0.00573,-0.4127 0.00615,-0.4472 0.1144659,-1.1572 0.2715072,-1.5756 0.041022,-0.1093 0.081893,-0.2168 0.1184287,-0.3123 0.073455,-0.1919 0.2458268,-0.4724 0.3830862,-0.6275 0.1967508,-0.2223 0.4640811,-0.5263 0.624608,-0.717 0.07878,-0.094 0.216629,-0.235 0.3245301,-0.2934 0.2253173,-0.122 0.614108,-0.309 0.9477245,-0.4604 0.3316569,-0.1504 0.9081149,-0.2548 1.2749598,-0.2636 0.3757116,-0.01 0.847543,-0.021 1.2441765,-0.031 0.4470804,-0.011 1.125987,0.1566 1.516059,0.3755 8.25e-4,5e-4 0.0016,9e-4 0.0025,0 0.390065,0.2189 0.971087,0.6449 1.279958,0.968 0.25774,0.2696 0.620134,0.8183 0.801103,1.2275 0.146474,0.3312 0.241292,0.9739 0.247306,1.4212 8.59e-4,0.064 0.0017,0.1284 0.0026,0.1924 0.006,0.4472 -0.05017,1.1678 -0.161483,1.6006 -0.08563,0.3329 -0.318582,0.9276 -0.513526,1.3302 a 29.082431,29.082431 114.24372 0 0 -0.478734,1.0631 l -0.027,0.062 a 13.319228,13.319228 117.02162 0 1 -0.734533,1.4403 l -0.06403,0.1087 -0.309359,0.4419 z"
       id="path1"
       transform="matrix(1.0028948,0,0,0.95304989,0.01690947,48.549496)" /><path
       style="mix-blend-mode:normal;fill:#ffffff;fill-opacity:1;stroke:none;stroke-width:0.547;stroke-linecap:square;stroke-opacity:1;paint-order:markers stroke fill;filter:url(#filter2)"
       d="m 4.921875,1044.9716 c 0.125,-0.047 0.9375,-0.6875 0.9375,-0.6875 0,0 1.046875,-0.5313 1.109375,-0.5625 0.0625,-0.031 1.578125,-0.016 1.578125,-0.016 l 1.296875,0.016 0.890625,0.094 0.671875,0.5 0.71875,0.5313 c 0,0 -0.515625,0.9687 -0.546875,1.0312 -0.03125,0.062 -0.390625,0.7657 -0.4375,0.8282 -0.04687,0.062 -0.515625,0.8125 -0.515625,0.8125 l -1.78125,0.016 c 0,0 -1.296875,0 -1.4375,-0.031 -0.140625,-0.031 -1.015625,0 -1.015625,0 z"
       id="path2"
       transform="matrix(0.9653915,0,0,0.89886121,0.29729031,105.27919)" /><path
       style="mix-blend-mode:normal;fill:#f9eca3;fill-opacity:1;stroke:none;stroke-width:0.547;stroke-linecap:square;stroke-opacity:1;paint-order:markers stroke fill;filter:url(#filter3)"
       d="m 4.2493322,1043.0884 1.328125,-0.9843 c 0,0 1.46875,-0.5625 1.65625,-0.5625 0.1875,0 2.40625,-0.062 2.40625,-0.062 0,0 1.6718748,0.1718 1.7343748,0.1718 0.0625,0 1.40625,0.7813 1.40625,0.7813 l 0.125,0.3125 -0.53125,1.1094 -0.328125,0.2026 c 0,0 -1.484375,-0.7031 -1.640625,-0.7656 -0.15625,-0.062 -3.0468748,0.031 -3.0468748,0.031 0,0 -0.890625,0.2344 -1.015625,0.3281 -0.125,0.094 -0.984375,0.9063 -0.984375,0.9063 h -0.609375 l -0.3125,-1.0625 z"
       id="path3"
       transform="matrix(0.99845884,0,0,1.0105171,0.00830928,-11.005835)" /><rect
       style="fill:url(#linearGradient6);stroke:#717d8a;stroke-width:0.690156;stroke-linecap:square;stroke-opacity:1;paint-order:markers stroke fill"
       id="rect4"
       width="4.5670476"
       height="3.0591393"
       x="6.2320948"
       y="1048.0507" /><rect
       style="fill:#717d8a;fill-opacity:1;stroke:none;stroke-width:0.43785;stroke-linecap:square;stroke-opacity:1;paint-order:markers stroke fill"
       id="rect6"
       width="4.8428359"
       height="0.43958473"
       x="6.1328111"
       y="1050.7261" /><rect
       style="display:inline;fill:#49607a;fill-opacity:0.968627;stroke:none;stroke-width:0.416137;stroke-linecap:square;stroke-opacity:1;paint-order:markers stroke fill"
       id="rect6-6"
       width="2.1239195"
       height="0.90537"
       x="7.5060625"
       y="1051.4567" /></g></svg>
