<?xml version="1.0" encoding="UTF-8" standalone="no"?>
<!-- Created with Inkscape (http://www.inkscape.org/) -->

<svg
   width="16"
   height="16"
   id="svg2"
   version="1.1"
   xmlns="http://www.w3.org/2000/svg"
   xmlns:svg="http://www.w3.org/2000/svg"
   xmlns:rdf="http://www.w3.org/1999/02/22-rdf-syntax-ns#"
   xmlns:cc="http://creativecommons.org/ns#"
   xmlns:dc="http://purl.org/dc/elements/1.1/">
  <defs
     id="defs4" />
  <metadata
     id="metadata7">
    <rdf:RDF>
      <cc:Work
         rdf:about="">
        <dc:format>image/svg+xml</dc:format>
        <dc:type
           rdf:resource="http://purl.org/dc/dcmitype/StillImage" />
        <dc:title />
      </cc:Work>
    </rdf:RDF>
  </metadata>
  <g
     id="layer1"
     style="display:inline"
     transform="translate(0,-1036.3622)">
    <g
       style="display:inline"
       id="g4794"
       transform="matrix(0.97551468,0,0,0.97551468,9.2809852,25.497327)">
      <path
         style="display:inline;fill:#000000;fill-opacity:1;stroke:none"
         d="m 4.0078125,4.96875 0.029297,1.0214844 0.9003906,0 2.2949219,2.296875 0,0.40625 -2.2949219,2.2968746 -0.9003906,0 -0.029297,1.021485 1.9511719,0 2.0488281,-2.0507815 2.0507815,2.0507815 1.951172,0 -0.03125,-1.021485 -0.898438,0 -2.3027342,-2.302734 -0.013672,0.00781 0,-0.4101563 0.013672,0.00781 2.3027342,-2.3027344 0.898438,0 0.03125,-1.0214844 -1.951172,0 L 8.0078125,7.0195312 5.9589844,4.96875 Z"
         transform="matrix(1.0250999,0,0,1.0250999,-9.513937,1036.2375)"
         id="close_x" />
    </g>
  </g>
</svg>
