<svg version="1.2" xmlns="http://www.w3.org/2000/svg" viewBox="0 0 16 16" width="16" height="16">
	<defs>
		<clipPath clipPathUnits="userSpaceOnUse" id="cp1">
			<path d="m12.72 5.5c0 1.38-0.54 2.7-1.52 3.68-0.97 0.97-2.3 1.52-3.67 1.52-1.38 0-2.71-0.55-3.68-1.52-0.98-0.98-1.52-2.3-1.52-3.68 0-1.38 0.54-2.7 1.52-3.68 0.97-0.97 2.3-1.52 3.68-1.52 1.37 0 2.7 0.55 3.67 1.52 0.98 0.98 1.52 2.3 1.52 3.68z"/>
		</clipPath>
		<linearGradient id="g1" x2="1" gradientUnits="userSpaceOnUse" gradientTransform="matrix(0,-7.122,7.122,0,12.176,13.482)">
			<stop offset="0" stop-color="#4f9e55"/>
			<stop offset=".5" stop-color="#3c8d49"/>
			<stop offset="1" stop-color="#a4e173"/>
		</linearGradient>
		<linearGradient id="g2" x2="1" gradientUnits="userSpaceOnUse" gradientTransform="matrix(-0.752,.903,-0.92,-0.766,12.343,8.498)">
			<stop offset="0" stop-color="#9dd560"/>
			<stop offset="1" stop-color="#499851"/>
		</linearGradient>
		<linearGradient id="g3" x2="1" gradientUnits="userSpaceOnUse" gradientTransform="matrix(-2.112,-2.068,4.109,-4.196,8.281,6.266)">
			<stop offset="0" stop-color="#0d5c9a"/>
			<stop offset="1" stop-color="#4077a7"/>
		</linearGradient>
	</defs>
	<style>
		.s0 { fill: #ffffff;stroke: #3784be;stroke-width: .6 } 
		.s1 { fill: url(#g1) } 
		.s2 { fill: #ffffff;stroke: url(#g2);stroke-width: .4 } 
		.s3 { fill: none;stroke: #14733c;stroke-linecap: round;stroke-linejoin: round;stroke-width: .5 } 
		.s4 { fill: url(#g3) } 
	</style>
	<g id="layer1">
		<g id="g17594">
			<path id="path6139" class="s0" d="m12.72 5.5c0 2.87-2.32 5.2-5.19 5.2-2.88 0-5.2-2.33-5.2-5.2 0-2.87 2.32-5.2 5.2-5.2 2.87 0 5.19 2.33 5.19 5.2z"/>
		</g>
		<g id="Clip-Path: g19963" clip-path="url(#cp1)">
		</g>
		<g id="layer1-0-8">
			<g id="g8159-2-9">
				<path id="path10796-2-6-0-3-1" class="s1" d="m15.74 9.98c0 2.06-1.68 3.74-3.74 3.74-2.07 0-3.74-1.68-3.74-3.74 0-2.07 1.67-3.74 3.74-3.74 2.06 0 3.74 1.67 3.74 3.74z"/>
				<path id="path8117-2-7" class="s2" d="m10.69 7.12l3.42 2.93-3.39 2.86z"/>
				<path id="path10796-2-6-0-5-3" class="s3" d="m15.74 9.98c0 2.06-1.68 3.74-3.74 3.74-2.07 0-3.74-1.68-3.74-3.74 0-2.07 1.67-3.74 3.74-3.74 2.06 0 3.74 1.67 3.74 3.74z"/>
			</g>
		</g>
		<path id="path4920" class="s4" d="m3 7.01h5.98v-6.03z"/>
	</g>
</svg>