<?xml version="1.0" encoding="UTF-8" standalone="no"?>
<!-- Created with Inkscape (http://www.inkscape.org/) -->

<svg
   width="16"
   height="16"
   id="svg2"
   version="1.1"
   xmlns:xlink="http://www.w3.org/1999/xlink"
   xmlns="http://www.w3.org/2000/svg"
   xmlns:svg="http://www.w3.org/2000/svg"
   xmlns:rdf="http://www.w3.org/1999/02/22-rdf-syntax-ns#"
   xmlns:cc="http://creativecommons.org/ns#"
   xmlns:dc="http://purl.org/dc/elements/1.1/">
  <defs
     id="defs4">
    <linearGradient
       id="linearGradient4852-7">
      <stop
         style="stop-color:#707070;stop-opacity:1"
         offset="0"
         id="stop4854-4" />
      <stop
         style="stop-color:#a0a0a0;stop-opacity:1"
         offset="1"
         id="stop4856-0" />
    </linearGradient>
    <linearGradient
       id="linearGradient4844-4">
      <stop
         style="stop-color:#606060;stop-opacity:1"
         offset="0"
         id="stop4846-8" />
      <stop
         style="stop-color:#787878;stop-opacity:1"
         offset="1"
         id="stop4848-8" />
    </linearGradient>
    <linearGradient
       y2="1038.5814"
       x2="4.7528968"
       y1="1051.0466"
       x1="4.7528968"
       gradientTransform="translate(1.9961442e-6,-9.9830355e-5)"
       gradientUnits="userSpaceOnUse"
       id="linearGradient4047"
       xlink:href="#linearGradient4852-7" />
    <linearGradient
       y2="1037.7"
       x2="8.6566515"
       y1="1050.7386"
       x1="8.6566515"
       gradientTransform="translate(1.9961442e-6,-9.9830355e-5)"
       gradientUnits="userSpaceOnUse"
       id="linearGradient4049"
       xlink:href="#linearGradient4844-4" />
  </defs>
  <metadata
     id="metadata7">
    <rdf:RDF>
      <cc:Work
         rdf:about="">
        <dc:format>image/svg+xml</dc:format>
        <dc:type
           rdf:resource="http://purl.org/dc/dcmitype/StillImage" />
        <dc:title />
      </cc:Work>
    </rdf:RDF>
  </metadata>
  <g
     id="layer1"
     style="display:inline"
     transform="translate(0,-1036.3622)">
    <path
       style="fill:url(#linearGradient4047);fill-opacity:1;stroke:url(#linearGradient4049);stroke-width:0.98060334;stroke-linecap:round;stroke-linejoin:miter;stroke-miterlimit:4;stroke-opacity:1;stroke-dasharray:none;stroke-dashoffset:0;display:inline"
       d="m 13.419292,1038.6553 c -0.468185,-0.4682 -1.221974,-0.4682 -1.690135,-10e-5 l -3.1127968,3.1129 -3.1127723,-3.1128 c -0.4681138,-0.4682 -1.221974,-0.4682 -1.690134,0 l -0.8600555,0.8601 c -0.4681391,0.468 -0.4681272,1.2218 3.66e-5,1.6901 l 3.1127223,3.1128 -3.1127269,3.1127 c -0.4682099,0.4682 -0.468198,1.222 -1.34e-5,1.6902 l 0.8601016,0.8601 c 0.4681344,0.4681 1.2219244,0.4681 1.6901337,0 l 3.1127774,-3.1128 3.1344053,3.1344 c 0.468135,0.4682 1.221925,0.4682 1.690135,0 l 0.860055,-0.86 c 0.46816,-0.4682 0.463458,-1.2173 -3.7e-5,-1.6902 l -3.134406,-3.1344 3.112777,-3.1127 c 0.468181,-0.4683 0.468169,-1.2221 3.4e-5,-1.6902 z"
       id="rect4043" />
  </g>
</svg>
