<?xml version="1.0" encoding="UTF-8" standalone="no"?>
<svg
   xmlns:dc="http://purl.org/dc/elements/1.1/"
   xmlns:cc="http://creativecommons.org/ns#"
   xmlns:rdf="http://www.w3.org/1999/02/22-rdf-syntax-ns#"
   xmlns:svg="http://www.w3.org/2000/svg"
   xmlns="http://www.w3.org/2000/svg"
   xmlns:xlink="http://www.w3.org/1999/xlink"
   xmlns:sodipodi="http://sodipodi.sourceforge.net/DTD/sodipodi-0.dtd"
   xmlns:inkscape="http://www.inkscape.org/namespaces/inkscape"
   inkscape:version="1.0rc1 (09960d6, 2020-04-09)"
   sodipodi:docname="rem_all_triggers.svg"
   viewBox="0 0 16 16"
   height="16"
   width="16"
   id="svg25944"
   version="1.1">
  <metadata
     id="metadata25950">
    <rdf:RDF>
      <cc:Work
         rdf:about="">
        <dc:format>image/svg+xml</dc:format>
        <dc:type
           rdf:resource="http://purl.org/dc/dcmitype/StillImage" />
        <dc:title />
      </cc:Work>
    </rdf:RDF>
  </metadata>
  <defs
     id="defs25948">
    <linearGradient
       id="linearGradient4119">
      <stop
         id="stop4121"
         offset="0"
         style="stop-color:#2b2b2b;stop-opacity:1;" />
      <stop
         id="stop4123"
         offset="1"
         style="stop-color:#686861;stop-opacity:1;" />
    </linearGradient>
    <linearGradient
       id="linearGradient4113"
       inkscape:collect="always">
      <stop
         id="stop4115"
         offset="0"
         style="stop-color:#d8d8d8;stop-opacity:1" />
      <stop
         id="stop4117"
         offset="1"
         style="stop-color:#d8d8d8;stop-opacity:1" />
    </linearGradient>
    <linearGradient
       inkscape:collect="always"
       id="linearGradient4852-7">
      <stop
         style="stop-color:#707070;stop-opacity:1"
         offset="0"
         id="stop4854-4" />
      <stop
         style="stop-color:#a0a0a0;stop-opacity:1"
         offset="1"
         id="stop4856-0" />
    </linearGradient>
    <linearGradient
       id="linearGradient4844-4">
      <stop
         style="stop-color:#313131;stop-opacity:1;"
         offset="0"
         id="stop4846-8" />
      <stop
         style="stop-color:#696969;stop-opacity:1;"
         offset="1"
         id="stop4848-8" />
    </linearGradient>
    <linearGradient
       y2="1038.5814"
       x2="4.7528968"
       y1="1051.0466"
       x1="4.7528968"
       gradientTransform="matrix(0.85131056,0,0,0.85131056,3.1105797,157.79848)"
       gradientUnits="userSpaceOnUse"
       id="linearGradient4047"
       xlink:href="#linearGradient4852-7"
       inkscape:collect="always" />
    <linearGradient
       y2="1037.7"
       x2="8.6566515"
       y1="1050.7386"
       x1="8.6566515"
       gradientTransform="matrix(0.85131056,0,0,0.85131056,3.1105797,157.79848)"
       gradientUnits="userSpaceOnUse"
       id="linearGradient4049"
       xlink:href="#linearGradient4844-4"
       inkscape:collect="always" />
    <linearGradient
       inkscape:collect="always"
       xlink:href="#linearGradient4113"
       id="linearGradient4109"
       gradientUnits="userSpaceOnUse"
       gradientTransform="matrix(0.85131056,0,0,0.85131056,-0.812566,152.8602)"
       x1="4.7528968"
       y1="1051.0466"
       x2="4.7528968"
       y2="1038.5814" />
    <linearGradient
       inkscape:collect="always"
       xlink:href="#linearGradient4119"
       id="linearGradient4111"
       gradientUnits="userSpaceOnUse"
       gradientTransform="matrix(0.85131056,0,0,0.85131056,-0.812566,152.8602)"
       x1="8.6566515"
       y1="1050.7386"
       x2="8.6566515"
       y2="1037.7" />
  </defs>
  <sodipodi:namedview
     inkscape:document-rotation="0"
     inkscape:current-layer="svg25944"
     inkscape:window-maximized="1"
     inkscape:window-y="23"
     inkscape:window-x="0"
     inkscape:cy="7.9999867"
     inkscape:cx="8.4999967"
     inkscape:zoom="49.81299"
     inkscape:bbox-nodes="true"
     inkscape:snap-bbox="true"
     inkscape:snap-nodes="false"
     showgrid="true"
     id="namedview25946"
     inkscape:window-height="1005"
     inkscape:window-width="1680"
     inkscape:pageshadow="2"
     inkscape:pageopacity="0"
     guidetolerance="10"
     gridtolerance="10"
     objecttolerance="10"
     borderopacity="1"
     bordercolor="#666666"
     pagecolor="#dadada">
    <inkscape:grid
       id="grid25954"
       type="xygrid" />
  </sodipodi:namedview>
  <g
     inkscape:label="Layer 1"
     id="layer1"
     style="display:inline;stroke-width:1.01237369"
     transform="matrix(0.98794115,0,0,0.98761387,0.10999009,-1023.4421)">
    <path
       style="display:inline;fill:url(#linearGradient4109);fill-opacity:1;stroke:url(#linearGradient4111);stroke-width:1.01237369;stroke-linecap:round;stroke-linejoin:miter;stroke-miterlimit:4;stroke-dasharray:none;stroke-dashoffset:0;stroke-opacity:1"
       d="m 10.611417,1037.0786 c -0.39857,-0.3986 -1.040279,-0.3986 -1.438829,-10e-5 l -2.649957,2.65 -2.6499362,-2.6499 c -0.3985102,-0.3986 -1.0402794,-0.3986 -1.4388289,0 l -0.7321744,0.7322 c -0.3985317,0.3984 -0.3985216,1.0401 3.12e-5,1.4388 l 2.6498934,2.65 -2.6498973,2.6498 c -0.398592,0.3986 -0.3985819,1.0403 -1.14e-5,1.4389 l 0.7322136,0.7322 c 0.3985277,0.3985 1.0402371,0.3985 1.4388286,0 l 2.6499404,-2.6499 2.668352,2.6683 c 0.398529,0.3986 1.040238,0.3986 1.43883,0 l 0.732174,-0.7321 c 0.39855,-0.3986 0.394547,-1.0363 -3.2e-5,-1.4389 l -2.668352,-2.6683 2.649939,-2.6499 c 0.398568,-0.3987 0.398558,-1.0404 2.9e-5,-1.4389 z"
       id="rect4043-2-1"
       inkscape:connector-curvature="0"
       sodipodi:nodetypes="sccccccccssccsccsccss" />
    <path
       style="display:inline;fill:url(#linearGradient4047);fill-opacity:1;stroke:url(#linearGradient4049);stroke-width:1.01237369;stroke-linecap:round;stroke-linejoin:miter;stroke-miterlimit:4;stroke-dasharray:none;stroke-dashoffset:0;stroke-opacity:1"
       d="m 14.534563,1042.0169 c -0.39857,-0.3986 -1.040279,-0.3986 -1.438829,-10e-5 l -2.649957,2.65 -2.6499365,-2.6499 c -0.3985102,-0.3986 -1.0402794,-0.3986 -1.4388289,0 l -0.7321744,0.7322 c -0.3985317,0.3984 -0.3985216,1.0401 3.12e-5,1.4388 l 2.6498934,2.65 -2.6498973,2.6498 c -0.398592,0.3986 -0.3985819,1.0403 -1.14e-5,1.4389 l 0.7322136,0.7322 c 0.3985277,0.3985 1.0402371,0.3985 1.4388286,0 l 2.6499407,-2.6499 2.668352,2.6683 c 0.398529,0.3986 1.040238,0.3986 1.43883,0 l 0.732174,-0.7321 c 0.39855,-0.3986 0.394547,-1.0363 -3.2e-5,-1.4389 l -2.668352,-2.6683 2.649939,-2.6499 c 0.398568,-0.3987 0.398558,-1.0404 2.9e-5,-1.4389 z"
       id="rect4043-2"
       inkscape:connector-curvature="0"
       sodipodi:nodetypes="sccccccccssccsccsccss" />
  </g>
  <text
     transform="scale(0.82456577,1.2127595)"
     id="text26047"
     y="12.368486"
     x="5.8367515"
     style="font-style:normal;font-weight:normal;font-size:21.2648px;line-height:1.25;font-family:sans-serif;letter-spacing:0px;word-spacing:0px;fill:#000000;fill-opacity:1;stroke:none;stroke-width:1"
     xml:space="preserve"><tspan
       style="font-style:normal;font-variant:normal;font-weight:bold;font-stretch:normal;font-size:11.3412px;font-family:sans-serif;-inkscape-font-specification:'sans-serif Bold';stroke-width:1"
       y="12.368486"
       x="5.8367515"
       id="tspan26045"
       sodipodi:role="line">T</tspan></text>
</svg>
