<?xml version="1.0" encoding="UTF-8" standalone="no"?>
<!-- Created with Inkscape (http://www.inkscape.org/) -->

<svg
   version="1.1"
   id="svg9904"
   width="48"
   height="48"
   viewBox="0 0 48 48"
   xmlns:xlink="http://www.w3.org/1999/xlink"
   xmlns="http://www.w3.org/2000/svg"
   xmlns:svg="http://www.w3.org/2000/svg"
   xmlns:rdf="http://www.w3.org/1999/02/22-rdf-syntax-ns#"
   xmlns:cc="http://creativecommons.org/ns#"
   xmlns:dc="http://purl.org/dc/elements/1.1/">
  <metadata
     id="metadata9910">
    <rdf:RDF>
      <cc:Work
         rdf:about="">
        <dc:format>image/svg+xml</dc:format>
        <dc:type
           rdf:resource="http://purl.org/dc/dcmitype/StillImage" />
        <dc:title />
      </cc:Work>
    </rdf:RDF>
  </metadata>
  <defs
     id="defs9908">
    <linearGradient
       id="linearGradient836">
      <stop
         style="stop-color:#79b14b;stop-opacity:1"
         offset="0"
         id="stop832" />
      <stop
         style="stop-color:#2a9449;stop-opacity:1"
         offset="1"
         id="stop834" />
    </linearGradient>
    <linearGradient
       id="linearGradient10468">
      <stop
         style="stop-color:#d6f3b6;stop-opacity:1"
         offset="0"
         id="stop10464" />
      <stop
         id="stop10472"
         offset="0.48184019"
         style="stop-color:#61a342;stop-opacity:1" />
      <stop
         style="stop-color:#c2e9a3;stop-opacity:1"
         offset="1"
         id="stop10466" />
    </linearGradient>
    <linearGradient
       xlink:href="#linearGradient10468"
       id="linearGradient10470"
       x1="4"
       y1="11"
       x2="4"
       y2="4"
       gradientUnits="userSpaceOnUse"
       gradientTransform="matrix(2.7332009,0,0,2.7874538,2.1344017,2.7816281)" />
    <filter
       style="color-interpolation-filters:sRGB"
       id="filter10710"
       x="-0.56371527"
       width="2.1274305"
       y="-0.6607788"
       height="2.3215576">
      <feGaussianBlur
         stdDeviation="0.70464408"
         id="feGaussianBlur10712" />
    </filter>
    <linearGradient
       xlink:href="#linearGradient836"
       id="linearGradient838"
       x1="3.000002"
       y1="23.687532"
       x2="27"
       y2="24"
       gradientUnits="userSpaceOnUse" />
    <filter
       style="color-interpolation-filters:sRGB"
       id="filter1941"
       x="-0.051404932"
       width="1.1028099"
       y="-0.075606635"
       height="1.1512133">
      <feGaussianBlur
         stdDeviation="0.87812508"
         id="feGaussianBlur1943" />
    </filter>
  </defs>
  <path
     style="opacity:0.51000001;fill:#808080;fill-opacity:1;stroke:none;stroke-width:0.96195245;stroke-linecap:round;stroke-linejoin:round;stroke-miterlimit:4;stroke-dasharray:none;stroke-opacity:1;filter:url(#filter1941)"
     d="m -37.166988,22.750262 v 8.362364 h -6.950445 a 10.930652,11.147621 0 0 0 -9.448761,-5.57491 10.930652,11.147621 0 0 0 -10.932804,11.149817 10.930652,11.147621 0 0 0 10.932804,11.149813 10.930652,11.147621 0 0 0 9.454099,-5.574907 h 6.945107 v 8.362363 l 13.666005,-13.937269 z"
     id="path10459-7"
     transform="matrix(1.033989,0,0,1.0493305,69.611421,-12.347266)" />
  <path
     style="opacity:1;fill:url(#linearGradient10470);fill-opacity:1;stroke:url(#linearGradient838);stroke-width:1.00199997;stroke-linecap:round;stroke-linejoin:round;stroke-miterlimit:4;stroke-dasharray:none;stroke-opacity:1"
     d="M 30.833012,9.7502621 V 18.112626 H 23.882567 A 10.930652,11.147621 0 0 0 14.433806,12.537716 10.930652,11.147621 0 0 0 3.5010022,23.687533 10.930652,11.147621 0 0 0 14.433806,34.837346 10.930652,11.147621 0 0 0 23.887905,29.262439 h 6.945107 v 8.362363 L 44.499017,23.687533 Z"
     id="path10459" />
  <ellipse
     style="opacity:1;fill:#ffffff;fill-opacity:1;stroke:none;stroke-width:0.46964359;stroke-linecap:round;stroke-linejoin:round;stroke-miterlimit:4;stroke-dasharray:none;stroke-opacity:1;filter:url(#filter10710)"
     id="path10474"
     cx="11"
     cy="20"
     rx="1.5"
     ry="1.2796611"
     transform="matrix(2.0846209,0,0,2.1835921,-10.303899,-22.157244)" />
</svg>
