<?xml version="1.0" encoding="UTF-8" standalone="no"?>
<!-- Created with Inkscape (http://www.inkscape.org/) -->

<svg
   width="32"
   height="32"
   viewBox="0 0 2.7234042 2.7234042"
   version="1.1"
   id="SVGRoot"
   sodipodi:docname="eclipse32.svg"
   inkscape:export-xdpi="192"
   inkscape:export-ydpi="192"
   inkscape:version="1.3.2 (091e20e, 2023-11-25, custom)"
   xmlns:inkscape="http://www.inkscape.org/namespaces/inkscape"
   xmlns:sodipodi="http://sodipodi.sourceforge.net/DTD/sodipodi-0.dtd"
   xmlns="http://www.w3.org/2000/svg"
   xmlns:svg="http://www.w3.org/2000/svg"
   xmlns:rdf="http://www.w3.org/1999/02/22-rdf-syntax-ns#"
   xmlns:cc="http://creativecommons.org/ns#"
   xmlns:dc="http://purl.org/dc/elements/1.1/">
  <defs
     id="defs1978">
    <linearGradient
       id="SVGID_1_"
       gradientUnits="userSpaceOnUse"
       x1="131.3853"
       y1="358.5762"
       x2="131.3853"
       y2="432.21109"
       gradientTransform="matrix(0.02260151,0,0,-0.02414814,-1.5424596,11.304165)">
      <stop
         offset="0.3033"
         style="stop-color:#473788"
         id="stop32" />
      <stop
         offset="0.872"
         style="stop-color:#2C2255"
         id="stop34" />
    </linearGradient>
    <linearGradient
       id="SVGID_2_"
       gradientUnits="userSpaceOnUse"
       x1="131.3853"
       y1="358.5752"
       x2="131.3853"
       y2="432.21011"
       gradientTransform="matrix(0.02260151,0,0,-0.02414814,-1.5424596,11.304165)">
      <stop
         offset="0.3033"
         style="stop-color:#473788"
         id="stop39" />
      <stop
         offset="0.872"
         style="stop-color:#2C2255"
         id="stop41" />
    </linearGradient>
    <linearGradient
       id="SVGID_3_"
       gradientUnits="userSpaceOnUse"
       x1="131.3853"
       y1="358.57709"
       x2="131.3853"
       y2="432.2084"
       gradientTransform="matrix(0.02260151,0,0,-0.02414814,-1.5424596,11.304165)">
      <stop
         offset="0.3033"
         style="stop-color:#473788"
         id="stop46" />
      <stop
         offset="0.8631"
         style="stop-color:#2C2255"
         id="stop48" />
    </linearGradient>
    <linearGradient
       id="linearGradient4675"
       gradientUnits="userSpaceOnUse"
       x1="131.3853"
       y1="358.5762"
       x2="131.3853"
       y2="432.21109"
       gradientTransform="matrix(1,0,0,-1,0,793)">
      <stop
         offset="0.3033"
         style="stop-color:#473788"
         id="stop4671" />
      <stop
         offset="0.872"
         style="stop-color:#2C2255"
         id="stop4673" />
    </linearGradient>
    <linearGradient
       id="linearGradient4682"
       gradientUnits="userSpaceOnUse"
       x1="131.3853"
       y1="358.5752"
       x2="131.3853"
       y2="432.21011"
       gradientTransform="matrix(1,0,0,-1,0,793)">
      <stop
         offset="0.3033"
         style="stop-color:#473788"
         id="stop4678" />
      <stop
         offset="0.872"
         style="stop-color:#2C2255"
         id="stop4680" />
    </linearGradient>
    <linearGradient
       id="linearGradient4689"
       gradientUnits="userSpaceOnUse"
       x1="131.3853"
       y1="358.57709"
       x2="131.3853"
       y2="432.2084"
       gradientTransform="matrix(1,0,0,-1,0,793)">
      <stop
         offset="0.3033"
         style="stop-color:#473788"
         id="stop4685" />
      <stop
         offset="0.8631"
         style="stop-color:#2C2255"
         id="stop4687" />
    </linearGradient>
  </defs>
  <sodipodi:namedview
     id="base"
     pagecolor="#ffffff"
     bordercolor="#666666"
     borderopacity="1.0"
     inkscape:pageopacity="0.0"
     inkscape:pageshadow="2"
     inkscape:zoom="11.313709"
     inkscape:cx="4.4636116"
     inkscape:cy="14.009553"
     inkscape:document-units="px"
     inkscape:current-layer="layer1"
     showgrid="false"
     inkscape:window-width="1920"
     inkscape:window-height="991"
     inkscape:window-x="-9"
     inkscape:window-y="-9"
     inkscape:window-maximized="1"
     inkscape:grid-bbox="true"
     showguides="false"
     inkscape:pagecheckerboard="0"
     inkscape:showpageshadow="0"
     inkscape:deskcolor="#505050">
    <inkscape:grid
       type="xygrid"
       id="grid2674"
       originx="0"
       originy="0"
       spacingy="1"
       spacingx="1"
       units="px"
       visible="false" />
  </sodipodi:namedview>
  <metadata
     id="metadata1981">
    <rdf:RDF>
      <cc:Work
         rdf:about="">
        <dc:format>image/svg+xml</dc:format>
        <dc:type
           rdf:resource="http://purl.org/dc/dcmitype/StillImage" />
      </cc:Work>
    </rdf:RDF>
  </metadata>
  <g
     inkscape:label="Layer 1"
     inkscape:groupmode="layer"
     id="layer1">
    <g
       id="g1"
       transform="translate(0.06382885,0.05899742)">
      <path
         inkscape:connector-curvature="0"
         style="fill:#2c2255;stroke-width:0.267375"
         d="M 0.74309255,1.643364 H 0.36465331 c 0.0501084,0.1836465 0.14308952,0.3482407 0.27921892,0.4937091 0.21701942,0.2318943 0.47797617,0.3476847 0.78314117,0.3476847 0.061002,0 0.1201051,-0.00488 0.1775125,-0.01409 C 1.834383,2.433589 2.0356261,2.3225557 2.2080531,2.1370733 2.3450634,1.9916523 2.4387013,1.8270108 2.4891929,1.6433642 H 2.3356162 2.1110476 Z"
         id="path2" />
      <path
         d="M 0.53441529,1.0941855 H 0.33671982 c -0.007232,0.046412 -0.01216,0.093792 -0.014398,0.1423774 H 0.55728707 0.67515399 2.3764823 2.5317782 c -0.00226,-0.048587 -0.00718,-0.095965 -0.01448,-0.1423774"
         id="path4"
         inkscape:connector-curvature="0"
         style="fill:#2c2255;stroke-width:0.267377" />
      <path
         d="m 0.32232277,1.3687739 c 0.002238,0.048611 0.007142,0.095989 0.014398,0.1423775 H 0.54225885 0.69805096 2.3626068 2.5173367 c 0.00728,-0.046388 0.01224,-0.093767 0.01452,-0.1423775"
         id="path6"
         inkscape:connector-curvature="0"
         style="fill:#2c2255;stroke-width:0.267377" />
      <path
         inkscape:connector-curvature="0"
         style="fill:#2c2255;stroke-width:0.267375"
         d="M 2.489238,0.96195149 C 2.4387915,0.77779778 2.3451308,0.61243128 2.2080529,0.46594862 2.0360782,0.28220554 1.8353996,0.17196912 1.6062885,0.13487764 1.5483395,0.1254881 1.4886484,0.12055547 1.4270143,0.12055547 1.1218494,0.12055547 0.86087,0.23571734 0.64387322,0.46594625 0.5077001,0.61242868 0.41467144,0.77779538 0.3645867,0.96194913"
         id="path10" />
      <path
         d="m 0.25662019,1.3027047 c 0,-0.62360165 0.4383562,-1.14174836 1.00861481,-1.23288344 -0.014148,-5.5541e-4 -0.028365,-0.0011591 -0.042649,-0.0011591 -0.63993894,0 -1.15875651,0.5525095 -1.15875651,1.23404254 0,0.6815573 0.51879497,1.2340425 1.15875651,1.2340425 0.01433,0 0.028546,-5.795e-4 0.042739,-0.00114 C 0.69497639,2.4444772 0.25662019,1.9263304 0.25662019,1.3027047 Z"
         id="path12"
         inkscape:connector-curvature="0"
         style="fill:#f7941e;stroke-width:0.267377" />
      <path
         d="M 2.178946,1.2365387 C 2.175246,1.1877357 2.167546,1.1401397 2.156074,1.0941613 H 0.69805018 c -0.011482,0.045954 -0.019188,0.09355 -0.0228954,0.1423774 z"
         id="path37"
         inkscape:connector-curvature="0"
         style="fill:url(#SVGID_1_);stroke-width:0.267377" />
      <path
         d="M 2.178946,1.3687739 H 0.67517745 c 0.003706,0.048803 0.011368,0.096399 0.0228728,0.1423775 H 2.1560959 c 0.01148,-0.045978 0.01914,-0.093574 0.02285,-0.1423775 z"
         id="path44"
         inkscape:connector-curvature="0"
         style="fill:url(#SVGID_2_);stroke-width:0.267377" />
      <path
         d="m 1.4270617,2.108963 c 0.3027924,0 0.5637947,-0.1906016 0.6839894,-0.4656005 H 0.74307237 C 0.8632672,1.9183615 1.1242694,2.108963 1.4270617,2.108963 Z"
         id="path51"
         inkscape:connector-curvature="0"
         style="fill:url(#SVGID_3_);stroke-width:0.267377" />
      <path
         d="M 0.56372943,1.3687739 H 0.67411515 2.1817712 2.379829 2.530287 c 0.00104,-0.021033 0.00163,-0.042211 0.00163,-0.063534 0,-0.023062 -7.912e-4,-0.04593 -0.00202,-0.068701 H 2.3798055 2.1817487 0.67409258 0.55590931 0.32232277 c -0.00122,0.022747 -0.002012,0.04564 -0.002012,0.068701 0,0.021323 5.8764e-4,0.042501 0.001627,0.063534 z"
         id="path55"
         inkscape:connector-curvature="0"
         style="fill:#ffffff;stroke-width:0.267377" />
      <path
         d="M 0.73866509,0.96195022 H 0.36456497 c -0.012296,0.0430562 -0.0202284,0.0872231 -0.027845,0.13223528 h 0.19267789 0.16406428 1.46184276 0.2070298 0.147972 c -0.00764,-0.044988 -0.01748,-0.089155 -0.029744,-0.13223528"
         id="path57"
         inkscape:connector-curvature="0"
         style="fill:#ffffff;stroke-width:0.267377" />
      <path
         d="M 2.3681883,1.5111273 H 2.1611587 0.69933846 0.54311687 0.33669731 c 0.007414,0.044987 0.015844,0.089131 0.0279354,0.1322352 H 0.74449619 2.1160008 2.341157 2.4877949 c 0.01206,-0.04308 0.02181,-0.087223 0.029246,-0.1322352 z"
         id="path59"
         inkscape:connector-curvature="0"
         style="fill:#ffffff;stroke-width:0.267377" />
    </g>
  </g>
</svg>
